<?xml version="1.0" encoding="UTF-8" standalone="no"?><svg xmlns="http://www.w3.org/2000/svg" xmlns:xlink="http://www.w3.org/1999/xlink" contentScriptType="application/ecmascript" contentStyleType="text/css" height="622px" preserveAspectRatio="none" style="width:349px;height:622px;background:#FFFFFF;" version="1.1" viewBox="0 0 349 622" width="349px" zoomAndPan="magnify"><defs><linearGradient id="gvnph6ed97r40" x1="0%" x2="100%" y1="0%" y2="100%"><stop offset="0%" stop-color="#FFFFFF"/><stop offset="100%" stop-color="#AAAAFF"/></linearGradient><filter height="300%" id="fvnph6ed97r4" width="300%" x="-1" y="-1"><feGaussianBlur result="blurOut" stdDeviation="2.0"/><feColorMatrix in="blurOut" result="blurOut2" type="matrix" values="0 0 0 0 0 0 0 0 0 0 0 0 0 0 0 0 0 0 .4 0"/><feOffset dx="4.0" dy="4.0" in="blurOut2" result="blurOut3"/><feBlend in="SourceGraphic" in2="blurOut3" mode="normal"/></filter><linearGradient id="gvnph6ed97r41" x1="0%" x2="100%" y1="0%" y2="100%"><stop offset="0%" stop-color="#AAAAFF"/><stop offset="100%" stop-color="#FFFFFF"/></linearGradient><linearGradient id="gvnph6ed97r42" x1="0%" x2="100%" y1="0%" y2="100%"><stop offset="0%" stop-color="#000000"/><stop offset="100%" stop-color="#0000FF"/></linearGradient></defs><g><rect fill="url(#gvnph6ed97r40)" height="622" style="stroke:none;stroke-width:1.0;" width="349" x="0" y="0"/><text fill="#888888" font-family="sans-serif" font-size="10" lengthAdjust="spacing" textLength="43" x="293.5" y="9.668">EXAMPLE</text><text fill="#000000" font-family="sans-serif" font-size="18" lengthAdjust="spacing" textLength="218" x="59.25" y="29.1797">example activity diagram</text><ellipse cx="110" cy="48.9766" fill="#000000" filter="url(#fvnph6ed97r4)" rx="10" ry="10" style="stroke:none;stroke-width:1.0;"/><rect fill="#008000" filter="url(#fvnph6ed97r4)" height="34.1328" rx="12.5" ry="12.5" style="stroke:#000000;stroke-width:1.5;" width="83" x="68.5" y="99.9766"/><text fill="#000000" font-family="sans-serif" font-size="12" lengthAdjust="spacing" textLength="63" x="78.5" y="121.5781">First Action</text><path d="M172,104.4766 L172,112.9766 L151.8,116.9766 L172,120.9766 L172,129.7871 A0,0 0 0 0 172,129.7871 L262,129.7871 A0,0 0 0 0 262,129.7871 L262,114.4766 L252,104.4766 L172,104.4766 A0,0 0 0 0 172,104.4766 " fill="#FBFB77" filter="url(#fvnph6ed97r4)" style="stroke:#A80036;stroke-width:1.0;"/><path d="M252,104.4766 L252,114.4766 L262,114.4766 L252,104.4766 " fill="#FBFB77" style="stroke:#A80036;stroke-width:1.0;"/><text fill="#000000" font-family="sans-serif" font-size="13" lengthAdjust="spacing" textLength="69" x="178" y="122.0449">first action</text><polygon fill="url(#gvnph6ed97r41)" filter="url(#fvnph6ed97r4)" points="110,174.9766,122,186.9766,110,198.9766,98,186.9766,110,174.9766" style="stroke:#000000;stroke-width:1.5;"/><rect fill="url(#gvnph6ed97r41)" filter="url(#fvnph6ed97r4)" height="34.1328" rx="12.5" ry="12.5" style="stroke:#000000;stroke-width:1.5;" width="90" x="13" y="252.9766"/><text fill="#000000" font-family="sans-serif" font-size="12" lengthAdjust="spacing" textLength="70" x="23" y="274.5781">Some Action</text><rect fill="url(#gvnph6ed97r41)" filter="url(#fvnph6ed97r4)" height="34.1328" rx="12.5" ry="12.5" style="stroke:#000000;stroke-width:1.5;" width="104" x="7" y="381.9766"/><text fill="#000000" font-family="sans-serif" font-size="12" lengthAdjust="spacing" textLength="84" x="17" y="403.5781">Another Action</text><ellipse cx="85" cy="582.9766" filter="url(#fvnph6ed97r4)" rx="10" ry="10" style="stroke:#000000;stroke-width:1.0;fill:none;"/><ellipse cx="85.5" cy="583.4766" fill="#000000" rx="6" ry="6" style="stroke:none;stroke-width:1.0;"/><rect fill="url(#gvnph6ed97r42)" filter="url(#fvnph6ed97r4)" height="8" style="stroke:none;stroke-width:1.0;" width="80" x="123" y="265.9766"/><rect fill="url(#gvnph6ed97r41)" filter="url(#fvnph6ed97r4)" height="34.1328" rx="12.5" ry="12.5" style="stroke:#000000;stroke-width:1.5;" width="113" x="89.5" y="327.9766"/><text fill="#000000" font-family="sans-serif" font-size="12" lengthAdjust="spacing" textLength="93" x="99.5" y="349.5781">Parallel Action 1</text><rect fill="url(#gvnph6ed97r42)" filter="url(#fvnph6ed97r4)" height="8" style="stroke:none;stroke-width:1.0;" width="80" x="106" y="435.9766"/><rect fill="url(#gvnph6ed97r41)" filter="url(#fvnph6ed97r4)" height="34.1328" rx="12.5" ry="12.5" style="stroke:#000000;stroke-width:1.5;" width="113" x="222.5" y="327.9766"/><text fill="#000000" font-family="sans-serif" font-size="12" lengthAdjust="spacing" textLength="93" x="232.5" y="349.5781">Parallel Action 2</text><rect fill="url(#gvnph6ed97r41)" filter="url(#fvnph6ed97r4)" height="34.1328" rx="12.5" ry="12.5" style="stroke:#000000;stroke-width:1.5;" width="82" x="102" y="484.9766"/><text fill="#000000" font-family="sans-serif" font-size="12" lengthAdjust="spacing" textLength="62" x="112" y="506.5781">Last Action</text><!--MD5=[6137a9e5092c9ebae6bcbd352d5765d6]
link start to First Action--><path d="M110,59.1566 C110,68.2466 110,82.5066 110,94.4666 " fill="none" id="start-to-First Action" style="stroke:#FF0000;stroke-width:1.0;"/><polygon fill="#FF0000" points="110,99.7666,114,90.7666,110,94.7666,106,90.7666,110,99.7666" style="stroke:#FF0000;stroke-width:1.0;"/><!--MD5=[6b779da881cab200b8445baadb5dbe10]
link First Action to #27--><path d="M110,134.0966 C110,144.8966 110,159.0566 110,169.8566 " fill="none" id="First Action-to-#27" style="stroke:#FF0000;stroke-width:1.0;"/><polygon fill="#FF0000" points="110,174.8666,114,165.8666,110,169.8666,106,165.8666,110,174.8666" style="stroke:#FF0000;stroke-width:1.0;"/><text fill="#000000" font-family="sans-serif" font-size="11" lengthAdjust="spacing" textLength="55" x="40.9063" y="164.4647">Some Test</text><!--MD5=[806c1f1f1558bf74d94c8e7e8103ad03]
link #27 to Some Action--><path d="M105.57,194.8866 C98,206.6666 82.33,231.0666 71.04,248.6566 " fill="none" id="#27-to-Some Action" style="stroke:#FF0000;stroke-width:1.0;"/><polygon fill="#FF0000" points="68.28,252.9666,76.5032,247.5463,70.9773,248.7565,69.7671,243.2306,68.28,252.9666" style="stroke:#FF0000;stroke-width:1.0;"/><text fill="#000000" font-family="sans-serif" font-size="11" lengthAdjust="spacing" textLength="22" x="90" y="230.6113">true</text><!--MD5=[4beb2c76a604107c8915e967765e6c2d]
link Some Action to Another Action--><path d="M58.13,287.0566 C58.31,309.7466 58.63,351.1766 58.83,376.4766 " fill="none" id="Some Action-to-Another Action" style="stroke:#FF0000;stroke-width:1.0;"/><polygon fill="#FF0000" points="58.87,381.6166,62.7927,372.5826,58.8271,376.6167,54.793,372.6512,58.87,381.6166" style="stroke:#FF0000;stroke-width:1.0;"/><!--MD5=[491a2288c9c853ffd270cf42bd02087a]
link Another Action to end--><path d="M61.31,416.1266 C66.34,451.3266 78.21,534.4566 82.97,567.7866 " fill="none" id="Another Action-to-end" style="stroke:#FF0000;stroke-width:1.0;"/><polygon fill="#FF0000" points="83.73,573.0566,86.4017,563.577,83.0149,568.108,78.4839,564.7212,83.73,573.0566" style="stroke:#FF0000;stroke-width:1.0;"/><!--MD5=[1ea760391651138c63e5bf7b129b87b4]
link #27 to B1--><path d="M114.52,194.8866 C124.32,209.8666 147.5,245.2966 157.85,261.1066 " fill="none" id="#27-to-B1" style="stroke:#FF0000;stroke-width:1.0;"/><polygon fill="#FF0000" points="160.83,265.6666,159.2661,255.9427,158.0995,261.4779,152.5643,260.3114,160.83,265.6666" style="stroke:#FF0000;stroke-width:1.0;"/><text fill="#000000" font-family="sans-serif" font-size="11" lengthAdjust="spacing" textLength="25" x="140" y="230.6113">false</text><!--MD5=[bfd32addf2609835e076c042411fc443]
link B1 to Parallel Action 1--><path d="M162.27,274.1166 C160.35,282.3766 155.01,305.2866 150.97,322.6366 " fill="none" id="B1-to-Parallel Action 1" style="stroke:#FF0000;stroke-width:1.0;"/><polygon fill="#FF0000" points="149.76,327.8166,155.688,319.9516,150.8885,322.9456,147.8945,318.146,149.76,327.8166" style="stroke:#FF0000;stroke-width:1.0;"/><!--MD5=[55cf7a128913b6c7244eacd4b55eda02]
link Parallel Action 1 to B2--><path d="M146,362.1766 C146,382.2066 146,415.5266 146,430.8366 " fill="none" id="Parallel Action 1-to-B2" style="stroke:#FF0000;stroke-width:1.0;"/><polygon fill="#FF0000" points="146,435.9066,150,426.9066,146,430.9066,142,426.9066,146,435.9066" style="stroke:#FF0000;stroke-width:1.0;"/><!--MD5=[09cff6e8480d7c48c935ec0af115ad55]
link B1 to Parallel Action 2--><path d="M167.98,274.1166 C181.73,282.7666 221.02,307.4866 248.95,325.0666 " fill="none" id="B1-to-Parallel Action 2" style="stroke:#FF0000;stroke-width:1.0;"/><polygon fill="#FF0000" points="253.33,327.8166,247.8576,319.628,249.1029,325.1461,243.5848,326.3913,253.33,327.8166" style="stroke:#FF0000;stroke-width:1.0;"/><!--MD5=[daf36031549c0e76dd7deeb02de50bdd]
link Parallel Action 2 to B2--><path d="M255.83,362.1766 C225.79,383.1866 174.85,418.7966 154.64,432.9366 " fill="none" id="Parallel Action 2-to-B2" style="stroke:#FF0000;stroke-width:1.0;"/><polygon fill="#FF0000" points="150.4,435.9066,160.0634,434.0042,154.4908,433.0316,155.4634,427.459,150.4,435.9066" style="stroke:#FF0000;stroke-width:1.0;"/><!--MD5=[b420d705b3a46cb8c59ccd7fb4367842]
link B2 to Last Action--><path d="M145.84,444.2066 C145.51,450.8666 144.72,466.6266 144.06,479.8566 " fill="none" id="B2-to-Last Action" style="stroke:#FF0000;stroke-width:1.0;"/><polygon fill="#FF0000" points="143.8,484.9666,148.257,476.1839,144.0568,479.9732,140.2675,475.773,143.8,484.9666" style="stroke:#FF0000;stroke-width:1.0;"/><!--MD5=[398ea9df08d14db9958506bc116f2ec7]
link Last Action to end--><path d="M130.98,519.3466 C119.89,534.4466 103.69,556.5266 93.77,570.0266 " fill="none" id="Last Action-to-end" style="stroke:#FF0000;stroke-width:1.0;"/><polygon fill="#FF0000" points="90.67,574.2566,99.2201,569.3683,93.6287,570.2259,92.7711,564.6344,90.67,574.2566" style="stroke:#FF0000;stroke-width:1.0;"/><text fill="#000000" font-family="sans-serif" font-size="11" lengthAdjust="spacing" textLength="83" x="117" y="550.6113">Ending process</text><text fill="#888888" font-family="sans-serif" font-size="10" lengthAdjust="spacing" textLength="115" x="110.75" y="613.6445">(C)2021 Sean Donnellan</text><!--MD5=[9203f01b6840f4ee2005cfb72fca2c05]
@startuml
title example activity diagram
header EXAMPLE
footer (C)2021 Sean Donnellan
skinparam BackgroundColor #fff/aaf
skinparam activity {
  StartColor black
  BarColor black/blue
  EndColor black
  BackgroundColor #aaf/fff
  BackgroundColor<< Begin >> green
  BorderColor black
}
skinparam ArrowColor red

(*) - -> "First Action" << Begin >>
note right: first action 

if "Some Test" then
  - ->[true] "Some Action"
  - -> "Another Action"
  -right-> (*)
else
    - -> [false] ===B1===
    - -> "Parallel Action 1"
    - -> ===B2===

    ===B1=== - -> "Parallel Action 2"
    - -> ===B2===
    - -> "Last Action"
    - ->[Ending process] (*)
endif


@enduml

PlantUML version 1.2021.10(Mon Aug 30 15:43:48 CEST 2021)
(GPL source distribution)
Java Runtime: OpenJDK Runtime Environment
JVM: OpenJDK 64-Bit Server VM
Default Encoding: UTF-8
Language: en
Country: GB
--></g></svg>