<?xml version="1.0" encoding="UTF-8" standalone="no"?><svg xmlns="http://www.w3.org/2000/svg" xmlns:xlink="http://www.w3.org/1999/xlink" contentScriptType="application/ecmascript" contentStyleType="text/css" height="761px" preserveAspectRatio="none" style="width:925px;height:761px;background:#FFFFFF;" version="1.1" viewBox="0 0 925 761" width="925px" zoomAndPan="magnify"><defs><linearGradient id="g1eppcbcf8fehs0" x1="0%" x2="100%" y1="0%" y2="100%"><stop offset="0%" stop-color="#FFFFFF"/><stop offset="100%" stop-color="#BBBBEE"/></linearGradient><linearGradient id="g1eppcbcf8fehs1" x1="0%" x2="100%" y1="0%" y2="100%"><stop offset="0%" stop-color="#BBBBEE"/><stop offset="100%" stop-color="#FFFFFF"/></linearGradient><filter height="300%" id="f1eppcbcf8fehs" width="300%" x="-1" y="-1"><feGaussianBlur result="blurOut" stdDeviation="2.0"/><feColorMatrix in="blurOut" result="blurOut2" type="matrix" values="0 0 0 0 0 0 0 0 0 0 0 0 0 0 0 0 0 0 .4 0"/><feOffset dx="4.0" dy="4.0" in="blurOut2" result="blurOut3"/><feBlend in="SourceGraphic" in2="blurOut3" mode="normal"/></filter><filter height="1" id="b1eppcbcf8fehs0" width="1" x="0" y="0"><feFlood flood-color="#008000" result="flood"/><feComposite in="SourceGraphic" in2="flood" operator="over"/></filter><filter height="1" id="b1eppcbcf8fehs1" width="1" x="0" y="0"><feFlood flood-color="#0000FF" result="flood"/><feComposite in="SourceGraphic" in2="flood" operator="over"/></filter><filter height="1" id="b1eppcbcf8fehs2" width="1" x="0" y="0"><feFlood flood-color="#FF0000" result="flood"/><feComposite in="SourceGraphic" in2="flood" operator="over"/></filter><linearGradient id="g1eppcbcf8fehs2" x1="0%" x2="100%" y1="0%" y2="100%"><stop offset="0%" stop-color="#FFFFFF"/><stop offset="100%" stop-color="#FF0000"/></linearGradient><filter height="1" id="b1eppcbcf8fehs3" width="1" x="0" y="0"><feFlood flood-color="#000000" result="flood"/><feComposite in="SourceGraphic" in2="flood" operator="over"/></filter></defs><g><rect fill="url(#g1eppcbcf8fehs0)" height="761" style="stroke:none;stroke-width:1.0;" width="925" x="0" y="0"/><text fill="#888888" font-family="sans-serif" font-size="10" lengthAdjust="spacing" textLength="42" x="870" y="9.668">example</text><text fill="#000000" font-family="sans-serif" font-size="18" lengthAdjust="spacing" textLength="292" x="310" y="29.1797">DevEnv context overview diagram</text><!--MD5=[4ef80439e1ef409f8f3a0ec422262701]
cluster server--><rect fill="url(#g1eppcbcf8fehs1)" filter="url(#f1eppcbcf8fehs)" height="558" style="stroke:#000000;stroke-width:1.5;" width="548" x="215" y="72.2188"/><text fill="#000000" font-family="sans-serif" font-size="14" font-weight="bold" lengthAdjust="spacing" textLength="89" x="444.5" y="87.7539">host system</text><!--MD5=[5c526fd5d1c47f6bb645743b485e9288]
cluster solution--><rect fill="url(#g1eppcbcf8fehs1)" filter="url(#f1eppcbcf8fehs)" height="491" style="stroke:#000000;stroke-width:1.5;" width="410" x="239" y="115.2188"/><text fill="#000000" font-family="sans-serif" font-size="14" font-weight="bold" lengthAdjust="spacing" textLength="50" x="419" y="130.7539">Docker</text><!--MD5=[ce5ccd5b359d4259c2ab78015c688698]
cluster container--><rect fill="url(#g1eppcbcf8fehs1)" filter="url(#f1eppcbcf8fehs)" height="182" style="stroke:#000000;stroke-width:1.5;" width="199" x="271" y="166.2188"/><text fill="#000000" font-family="sans-serif" font-size="14" font-weight="bold" lengthAdjust="spacing" textLength="67" x="337" y="181.7539">container</text><!--MD5=[b9950c04bb10ab11ed340271964bd2d1]
cluster containerDB--><rect fill="url(#g1eppcbcf8fehs1)" filter="url(#f1eppcbcf8fehs)" height="131" style="stroke:#000000;stroke-width:1.5;" width="127" x="490" y="443.2188"/><text fill="#000000" font-family="sans-serif" font-size="14" font-weight="bold" lengthAdjust="spacing" textLength="67" x="520" y="458.7539">container</text><!--MD5=[a59b936aec1ff337b32b73b39bdd839d]
entity IP--><path d="M673.7798,512.9807 C677.1052,503.5953 685.2715,503.418 690.4301,511.2031 C695.4914,503.6632 701.3816,501.4838 707.6973,509.8406 C713.0406,503.4571 719.2347,505.0771 722.7891,511.8869 C728.8436,505.5916 735.0193,505.694 739.6611,513.5689 C748.3506,517.2306 748.1454,522.4969 742.0494,528.5204 C747.7078,534.0233 747.141,541.9108 738.5039,544.1763 C734.1183,552.8458 728.398,553.4644 722.7915,545.3169 C719.3989,553.5733 713.7767,556.4466 706.7527,549.0339 C700.2208,555.0128 694.3111,554.2184 691.3052,545.3622 C685.3392,554.3108 679.0205,551.9839 674.2733,544.1269 C665.9506,543.1008 662.6001,537.9629 666.1194,530.0684 C660.8329,521.8087 664.2034,514.5774 673.7798,512.9807 " fill="#BBBBEE" filter="url(#f1eppcbcf8fehs)" style="stroke:#000000;stroke-width:1.5;"/><text fill="#000000" font-family="sans-serif" font-size="14" lengthAdjust="spacing" textLength="51" x="680.5" y="533.2539">routing</text><!--MD5=[9b7cb4985c225fc7e077a8370b9a79a8]
entity containerNet--><path d="M505.5679,253.8594 C509.5675,248.4459 514.2795,248.8415 517.9139,254.2751 C520.9991,248.3713 526.607,247.7418 530.1147,253.8458 C532.7573,246.7262 538.3444,247.0541 542.6656,252.1164 C545.2525,246.8302 550.4121,246.0788 553.4793,251.6375 C557.1139,245.6481 562.2205,245.426 565.8554,251.6373 C570.7025,246.6817 575.3178,246.3113 578.6212,253.2887 C582.3215,248.0916 586.9572,248.0684 590.3147,253.6602 C593.5985,247.4194 598.3104,246.3311 602.8011,252.44 C607.2176,247.4544 611.2489,248.2135 613.6843,254.3743 C615.958,248.2047 621.6959,248.3019 625.4184,252.7773 C633.2931,254.5233 635.443,259.5089 630.6524,266.1953 C636.5083,267.9234 639.0736,272.3329 634.3063,277.4959 C638.7289,283.2832 635.854,287.3578 629.5652,288.5517 C633.9263,293.389 633.4523,298.7258 626.4411,300.6189 C623.6755,306.8506 618.6116,307.0052 614.965,301.4787 C612.4671,307.525 606.3083,310.3592 601.5322,303.9321 C599.8371,309.6461 594.2194,310.9975 590.0407,306.8163 C585.9982,311.6908 582.6218,311.5153 578.8262,306.5354 C576.0086,313.6321 571.0833,314.519 565.7886,309.12 C561.6785,312.9567 556.4514,312.6422 554.6389,306.5419 C550.4246,312.9245 546.1059,311.681 541.9198,306.5109 C537.5079,311.8484 532.0089,310.5141 529.391,304.5264 C524.9204,309.862 520.0249,308.7743 517.8014,302.3179 C514.2029,307.5683 509.7874,307.3836 506.7267,301.7698 C499.6916,301.433 497.1081,295.802 501.1034,290.1344 C493.9028,288.1094 492.696,283.6639 496.781,277.712 C492.9567,271.8317 493.9923,266.3663 501.8672,265.2677 C497.0175,260.1744 498.4141,255.059 505.5679,253.8594 " fill="#BBBBEE" filter="url(#f1eppcbcf8fehs)" style="stroke:#000000;stroke-width:1.5;"/><text fill="#000000" font-family="sans-serif" font-size="14" lengthAdjust="spacing" textLength="50" x="512" y="273.2539">Area51</text><text fill="#000000" font-family="sans-serif" font-size="14" lengthAdjust="spacing" textLength="106" x="512" y="289.7422">Private network</text><!--MD5=[fd653a43105205fc53e935418e72fe3b]
entity context--><path d="M304.2197,237.0788 C307.5972,230.9735 311.7106,230.5444 316.2515,235.8523 C318.6643,231.2365 323.3658,231.0524 326.3557,235.1857 C329.7434,228.8167 334.3623,228.0166 339.4354,233.2926 C341.6851,227.6234 345.9986,226.6727 350.5557,230.6259 C353.449,225.9018 356.7838,224.2163 361.0008,229.2018 C366.4429,222.6245 371.7639,225.5563 374.682,231.8787 C377.6736,226.7058 382.8391,227.6052 385.2588,232.4807 C389.1075,227.3042 393.4913,228.727 396.2299,233.6828 C401.1575,228.7931 407.4324,229.141 409.5913,236.6633 C412.8298,232.0631 417.0582,232.1301 420.3194,236.6366 C426.1775,240.011 426.7998,246.8923 420.9135,250.7608 C428.4101,254.7386 428.2178,259.6749 422.2738,264.942 C428.5815,268.1276 430.1181,273.6643 423.8857,278.3567 C429.8294,282.2372 429.7606,286.7154 424.331,290.9966 C430.1951,295.4921 429.115,301.951 422.3679,304.6307 C426.7908,309.1968 426.5886,313.3912 420.8548,316.6821 C417.9834,324.0176 413.355,323.2027 408.4495,318.8391 C403.8123,324.2826 399.8109,323.9757 396.209,317.7528 C394.0137,323.5566 389.6687,324.2171 385.5571,319.7379 C381.9067,324.9064 378.3505,324.8442 374.1876,320.3404 C370.6988,326.1726 365.2604,324.8063 362.8274,319.2841 C358.8207,325.3036 354.2981,324.0946 351.0771,318.4899 C346.9319,323.7095 341.9976,324.1998 338.3006,317.9889 C335.9528,323.8012 330.5966,324.4161 327.1418,319.0988 C323.7491,324.2897 318.3782,324.2417 315.9626,318.1322 C311.2757,322.3535 307.6861,322.1422 304.4127,316.4804 C297.9414,313.3567 297.2546,308.4818 302.5021,303.6176 C297.1212,298.6855 298.2523,295.0242 304.0114,291.477 C296.2247,288.3183 295.7445,283.7157 301.7533,278.2091 C296.2945,273.8066 295.3489,269.1381 301.9163,264.8827 C294.9182,259.5754 296.9322,253.5359 304.4164,250.7997 C297.3709,247.0755 298.5252,240.9857 304.2197,237.0788 " fill="#FFFF33" filter="url(#f1eppcbcf8fehs)" style="stroke:#000000;stroke-width:1.5;"/><text fill="#000000" font-family="sans-serif" font-size="14" lengthAdjust="spacing" textLength="88" x="310" y="256.7539">whatever the</text><text fill="#000000" font-family="sans-serif" font-size="14" lengthAdjust="spacing" textLength="102" x="310" y="273.2422">environment is</text><text fill="#000000" font-family="sans-serif" font-size="14" lengthAdjust="spacing" textLength="85" x="310" y="289.7305">that is being</text><text fill="#000000" font-family="sans-serif" font-size="14" lengthAdjust="spacing" textLength="71" x="310" y="306.2188">developed</text><!--MD5=[bce8ed80e0b7aad8739b0649b735fd39]
entity neo4j--><path d="M533.5,515.2188 C533.5,505.2188 563,505.2188 563,505.2188 C563,505.2188 592.5,505.2188 592.5,515.2188 L592.5,540.707 C592.5,550.707 563,550.707 563,550.707 C563,550.707 533.5,550.707 533.5,540.707 L533.5,515.2188 " fill="#BBBBEE" filter="url(#f1eppcbcf8fehs)" style="stroke:#000000;stroke-width:1.5;"/><path d="M533.5,515.2188 C533.5,525.2188 563,525.2188 563,525.2188 C563,525.2188 592.5,525.2188 592.5,515.2188 " fill="none" style="stroke:#000000;stroke-width:1.5;"/><text fill="#000000" font-family="sans-serif" font-size="14" lengthAdjust="spacing" textLength="39" x="543.5" y="542.7539">neo4j</text><!--MD5=[8fc3522a43f8c7199df5e09e5bb0188e]
entity user--><ellipse cx="903" cy="245.2188" filter="url(#f1eppcbcf8fehs)" rx="8" ry="8" style="stroke:#A80036;stroke-width:1.5;fill:none;"/><path d="M903,253.2188 L903,280.2188 M890,261.2188 L916,261.2188 M903,280.2188 L890,295.2188 M903,280.2188 L916,295.2188 " fill="none" filter="url(#f1eppcbcf8fehs)" style="stroke:#A80036;stroke-width:1.5;"/><text fill="#000000" font-family="sans-serif" font-size="14" lengthAdjust="spacing" textLength="30" x="888" y="314.2539">user</text><!--MD5=[79a439086b036a57b90a01d7b2f8bbd1]
entity admin--><ellipse cx="816" cy="245.2188" filter="url(#f1eppcbcf8fehs)" rx="8" ry="8" style="stroke:#A80036;stroke-width:1.5;fill:none;"/><path d="M816,253.2188 L816,280.2188 M803,261.2188 L829,261.2188 M816,280.2188 L803,295.2188 M816,280.2188 L829,295.2188 " fill="none" filter="url(#f1eppcbcf8fehs)" style="stroke:#A80036;stroke-width:1.5;"/><text fill="#000000" font-family="sans-serif" font-size="14" lengthAdjust="spacing" textLength="74" x="779" y="314.2539">dev/admin</text><!--MD5=[c8721b010f8b70c3e73dbc8438640c28]
entity cisco--><polygon fill="#BBBBEE" filter="url(#f1eppcbcf8fehs)" points="113.5,506.2188,123.5,496.2188,198.5,496.2188,198.5,549.1953,188.5,559.1953,113.5,559.1953,113.5,506.2188" style="stroke:#000000;stroke-width:1.5;"/><line style="stroke:#000000;stroke-width:1.5;" x1="188.5" x2="198.5" y1="506.2188" y2="496.2188"/><line style="stroke:#000000;stroke-width:1.5;" x1="113.5" x2="188.5" y1="506.2188" y2="506.2188"/><line style="stroke:#000000;stroke-width:1.5;" x1="188.5" x2="188.5" y1="506.2188" y2="559.1953"/><text fill="#000000" font-family="sans-serif" font-size="14" lengthAdjust="spacing" textLength="37" x="128.5" y="529.7539">Cisco</text><text fill="#000000" font-family="sans-serif" font-size="14" lengthAdjust="spacing" textLength="45" x="128.5" y="546.2422">Teams</text><!--MD5=[89b9af056a9be15ecdb96c9859b2ea62]
entity csvData--><path d="M6,515.2188 C6,505.2188 42,505.2188 42,505.2188 C42,505.2188 78,505.2188 78,515.2188 L78,540.707 C78,550.707 42,550.707 42,550.707 C42,550.707 6,550.707 6,540.707 L6,515.2188 " fill="#BBBBEE" filter="url(#f1eppcbcf8fehs)" style="stroke:#000000;stroke-width:1.5;"/><path d="M6,515.2188 C6,525.2188 42,525.2188 42,525.2188 C42,525.2188 78,525.2188 78,515.2188 " fill="none" style="stroke:#000000;stroke-width:1.5;"/><text fill="#000000" font-family="sans-serif" font-size="14" lengthAdjust="spacing" textLength="52" x="16" y="542.7539">csvData</text><!--MD5=[073e2e67848a2efe57f55962030b266c]
link containerDB to containerNet--><path d="M495.4832,442.4889 C495.6008,440.381 495.7348,438.2593 495.8864,436.1268 C496.1897,431.862 496.5636,427.5545 497.0183,423.2305 C498.8369,405.9344 501.9475,388.3738 507,372.2188 C514.27,348.9788 528.43,325.6088 540.94,307.8588 " fill="none" id="containerDB-containerNet" style="stroke:#000000;stroke-width:1.0;"/><!--MD5=[bc8704a0e38e573df57f78a1c48bc02f]
link containerNet to container--><path d="M496.87,276.2188 C491.125,276.2188 485.38,276.2188 479.635,276.2188 C476.7625,276.2188 473.89,276.2188 471.0175,276.2188 C470.838,276.2188 470.6584,276.2188 470.4789,276.2188 C470.3891,276.2188 470.2994,276.2188 470.2096,276.2188 C470.1647,276.2188 470.1198,276.2188 470.075,276.2188 " fill="none" id="containerNet-container" style="stroke:#000000;stroke-width:1.0;"/><!--MD5=[609c6cc87b7748f82a69a3d4c5791eed]
link containerDB to IP--><path d="M489.9513,490.4226 C489.9243,490.2266 489.8974,490.0301 489.8708,489.8332 C489.8174,489.4394 489.7648,489.0437 489.713,488.6462 C489.6093,487.8512 489.5088,487.0491 489.4117,486.2403 C489.2174,484.6227 489.037,482.9784 488.8731,481.3113 C488.5453,477.9772 488.2839,474.552 488.1113,471.0675 C486.73,443.1913 491.03,411.5138 512.5,392.2188 C572.28,338.4888 653.94,446.4488 688.94,500.0187 " fill="none" id="containerDB-to-IP" style="stroke:#008000;stroke-width:1.0;"/><polygon fill="#008000" points="691.78,504.3988,690.2312,494.6724,689.0561,500.2059,683.5226,499.0307,691.78,504.3988" style="stroke:#008000;stroke-width:1.0;"/><text fill="#000000" font-family="sans-serif" font-size="13" lengthAdjust="spacing" textLength="45" x="513.5" y="385.7871">expose</text><text fill="#000000" font-family="sans-serif" font-size="13" lengthAdjust="spacing" textLength="32" x="520" y="401.0977">7474</text><text fill="#000000" font-family="sans-serif" font-size="13" lengthAdjust="spacing" textLength="32" x="520" y="416.4082">7687</text><!--MD5=[c56a61b4cf6f117e5b464fd20b647d1a]
link container to IP--><path d="M456.4056,348.2616 C456.4534,348.3989 456.5018,348.5359 456.5507,348.6728 C456.6485,348.9464 456.7486,349.219 456.8509,349.4907 C457.2603,350.5771 457.7063,351.6471 458.191,352.6978 C460.1297,356.9009 462.6875,360.7975 466,364.2188 C481.82,380.5487 547.63,362.1288 568,372.2188 C575.57,375.9688 646.4,457.4788 683.53,500.5588 " fill="none" id="container-to-IP" style="stroke:#008000;stroke-width:1.0;"/><polygon fill="#008000" points="687.01,504.5988,684.1695,495.1684,683.7478,500.8095,678.1067,500.3879,687.01,504.5988" style="stroke:#008000;stroke-width:1.0;"/><text fill="#000000" font-family="sans-serif" font-size="13" lengthAdjust="spacing" textLength="45" x="610" y="393.2871">expose</text><text fill="#000000" font-family="sans-serif" font-size="13" lengthAdjust="spacing" textLength="32" x="616.5" y="408.5977">5000</text><!--MD5=[a59cf8b19bf907b9aa7d880c02cafeb4]
link containerNet to IP--><path d="M610.01,307.8488 C631.23,324.5188 655.09,346.9088 670,372.2188 C694.94,414.5788 702.6,472.9788 704.96,504.4588 " fill="none" id="containerNet-IP" style="stroke:#000000;stroke-width:1.0;"/><!--MD5=[d4dfb387c04cb07489f61d82efd48be5]
link user to IP--><path d="M892.44,317.0588 C887.32,332.4988 880.25,349.8788 871,364.2188 C834.84,420.2887 776.22,471.9588 739.46,501.3588 " fill="none" id="user-to-IP" style="stroke:#008000;stroke-width:1.0;"/><polygon fill="#008000" points="735.53,504.4888,745.0688,502.0368,739.4496,501.3845,740.102,495.7654,735.53,504.4888" style="stroke:#008000;stroke-width:1.0;"/><!--MD5=[82ac4fbec3acfe27a1d1915f23d8b853]
link admin to neo4j--><path d="M805.3,316.8888 C794,350.3688 772.61,396.3887 736,419.2188 C709.75,435.5888 621.64,408.5087 597,427.2188 C574.7,444.1588 566.92,476.5187 564.26,499.7388 " fill="none" id="admin-to-neo4j" style="stroke:#A80036;stroke-width:1.0;stroke-dasharray:7.0,7.0;"/><polygon fill="#A80036" points="563.74,504.8488,568.6449,496.3081,564.2545,499.8753,560.6873,495.4849,563.74,504.8488" style="stroke:#A80036;stroke-width:1.0;"/><!--MD5=[c1fb0f456f7db11821fa6ce49f7a838e]
link admin to context--><path d="M792.33,235.4388 C764.41,191.8588 713.51,125.2587 649,97.2188 C560.14,58.5987 511.02,42.5888 431,97.2188 C390.09,125.1487 373.08,180.8888 366.02,222.7888 " fill="none" id="admin-to-context" style="stroke:#A80036;stroke-width:1.0;stroke-dasharray:7.0,7.0;"/><polygon fill="#A80036" points="365.21,227.8188,370.6003,219.5759,366.0111,222.8833,362.7037,218.2941,365.21,227.8188" style="stroke:#A80036;stroke-width:1.0;"/><text fill="#000000" font-family="sans-serif" font-size="13" lengthAdjust="spacing" textLength="30" x="588" y="52.7871">label</text><!--MD5=[0d5e80727caf5fe0981ffd00b84f7541]
link context to cisco--><path d="M322.2,324.4388 C282.06,373.2987 220.31,448.4488 184.47,492.0688 " fill="none" id="context-to-cisco" style="stroke:#0000FF;stroke-width:1.0;"/><polygon fill="#0000FF" points="181.08,496.1988,189.8776,491.7714,184.2485,492.3309,183.689,486.7018,181.08,496.1988" style="stroke:#0000FF;stroke-width:1.0;"/><text fill="#000000" font-family="sans-serif" font-size="13" lengthAdjust="spacing" textLength="30" x="283" y="400.7871">label</text><!--MD5=[698758b03747f7e0457eb052957a825b]
reverse link context to csvData--><path d="M290.1,304.3288 C232.24,329.2588 151.31,370.9088 96,427.2188 C73.83,449.7887 58.18,483.3288 49.63,505.1088 " fill="none" id="context-backto-csvData" style="stroke:#0000FF;stroke-width:1.0;"/><polygon fill="#0000FF" points="294.92,302.2588,285.0724,302.1016,290.3191,304.2163,288.2044,309.463,294.92,302.2588" style="stroke:#0000FF;stroke-width:1.0;"/><text fill="#000000" font-family="sans-serif" font-size="13" lengthAdjust="spacing" textLength="30" x="161" y="400.7871">label</text><!--MD5=[e728667cdcada73295e67c2124b4696c]
link context to neo4j--><path d="M358.35,329.7888 C359.87,360.6288 367.59,397.6588 393,419.2188 C416.25,438.9488 505.8,408.6588 530,427.2188 C552.15,444.2088 559.6,476.5688 562.02,499.7687 " fill="none" id="context-neo4j" style="stroke:#A80036;stroke-width:1.0;"/><polygon fill="#A80036" points="562.49,504.8688,565.6491,495.5403,562.0322,499.8898,557.6827,496.2728,562.49,504.8688" style="stroke:#A80036;stroke-width:1.0;"/><polygon fill="#A80036" points="358.15,324.5088,354.5129,333.6614,358.3498,329.5048,362.5065,333.3417,358.15,324.5088" style="stroke:#A80036;stroke-width:1.0;"/><text fill="#000000" font-family="sans-serif" font-size="13" lengthAdjust="spacing" textLength="30" x="394" y="400.7871">label</text><rect fill="url(#g1eppcbcf8fehs1)" height="84.6641" rx="5" ry="5" style="stroke:url(#g1eppcbcf8fehs1);stroke-width:0.0;" width="114" x="398.5" y="649.2188"/><text fill="#000000" font-family="sans-serif" font-size="10" lengthAdjust="spacing" textLength="81" x="404.5" y="663.8867">Connexion types</text><text fill="#000000" filter="url(#b1eppcbcf8fehs0)" font-family="sans-serif" font-size="10" lengthAdjust="spacing" textLength="13" x="404.5" y="677.6641">'   '</text><text fill="#000000" font-family="sans-serif" font-size="10" lengthAdjust="spacing" textLength="75" x="420.5" y="677.6641">User connexion</text><text fill="#000000" filter="url(#b1eppcbcf8fehs1)" font-family="sans-serif" font-size="10" lengthAdjust="spacing" textLength="13" x="404.5" y="689.4414">'   '</text><text fill="#000000" font-family="sans-serif" font-size="10" lengthAdjust="spacing" textLength="65" x="420.5" y="689.4414">External data</text><text fill="#000000" filter="url(#b1eppcbcf8fehs2)" font-family="sans-serif" font-size="10" lengthAdjust="spacing" textLength="13" x="404.5" y="701.2188">'   '</text><text fill="#000000" font-family="sans-serif" font-size="10" lengthAdjust="spacing" textLength="83" x="420.5" y="701.2188">internal use case</text><rect fill="url(#g1eppcbcf8fehs2)" height="11.7773" style="stroke:none;stroke-width:0.0;" width="13" x="404.5" y="703.2188"/><text fill="#000000" font-family="sans-serif" font-size="10" lengthAdjust="spacing" textLength="13" x="404.5" y="712.9961">'   '</text><text fill="#000000" font-family="sans-serif" font-size="10" lengthAdjust="spacing" textLength="59" x="420.5" y="712.9961">admin flows</text><text fill="#000000" filter="url(#b1eppcbcf8fehs3)" font-family="sans-serif" font-size="10" lengthAdjust="spacing" textLength="13" x="404.5" y="724.7734">'   '</text><text fill="#000000" font-family="sans-serif" font-size="10" lengthAdjust="spacing" textLength="76" x="420.5" y="724.7734">internal routing</text><line style="stroke:#000000;stroke-width:1.0;" x1="404.5" x2="506.5" y1="667.9961" y2="667.9961"/><line style="stroke:#000000;stroke-width:1.0;" x1="404.5" x2="506.5" y1="679.7734" y2="679.7734"/><line style="stroke:#000000;stroke-width:1.0;" x1="404.5" x2="506.5" y1="691.5508" y2="691.5508"/><line style="stroke:#000000;stroke-width:1.0;" x1="404.5" x2="506.5" y1="703.3281" y2="703.3281"/><line style="stroke:#000000;stroke-width:1.0;" x1="404.5" x2="506.5" y1="715.1055" y2="715.1055"/><line style="stroke:#000000;stroke-width:1.0;" x1="404.5" x2="506.5" y1="726.8828" y2="726.8828"/><line style="stroke:#000000;stroke-width:1.0;" x1="404.5" x2="404.5" y1="667.9961" y2="726.8828"/><line style="stroke:#000000;stroke-width:1.0;" x1="417.5" x2="417.5" y1="667.9961" y2="726.8828"/><line style="stroke:#000000;stroke-width:1.0;" x1="506.5" x2="506.5" y1="667.9961" y2="726.8828"/><text fill="#888888" font-family="sans-serif" font-size="10" lengthAdjust="spacing" textLength="115" x="398.5" y="752.5508">(C)2021 Sean Donnellan</text><!--MD5=[b3d5103abf802ae410c19c7652164b9d]
@startuml
title DevEnv context overview diagram
header example
footer (C)2021 Sean Donnellan

skinparam BackgroundColor #ffffff/bbbbee
skinparam NodeBorderColor black
skinparam NodeBackgroundColor #bbbbee
skinparam DatabaseBackgroundColor #bbbbee
skinparam ActorBackgroundColor transparent
skinparam CloudBackgroundColor #ffff33
skinparam LegendBackgroundColor #bbbbee/ffffff
skinparam LegendBorderThickness 0
skinparam LegendFontSize 10

rectangle "host system" as server #bbbbee/ffffff {
    rectangle "Docker" as solution {
        rectangle "container" as container {
            cloud context [
                whatever the
                environment is
                that is being
                developed
            ]
        }
        cloud containerNet #bbbbee [
            Area51
            Private network
        ]
        rectangle "container" as containerDB {
            database neo4j
        }
        containerDB -[#000000] containerNet
        containerNet -[#000000] container
    }
    cloud "routing" as IP #bbbbee
}

actor user
actor "dev/admin" as admin
node cisco [
    Cisco
    Teams
]
database csvData

containerDB -> IP #green : expose\n7474\n7687
container -> IP #green : expose\n5000
containerNet - IP #000000
user - -> IP #green
admin .> neo4j
admin .> context : label
context - -> cisco #blue : label
context <- - csvData  #blue : label
context <- -> neo4j : label

legend
Connexion types
|<back:#green>'   '</back>| User connexion |
|<back:#blue>'   '</back>| External data |
|<back:red>'   '</back>| internal use case |
|<back:white/red>'   '</back>| admin flows |
|<back:black>'   '</back>| internal routing|
endlegend

@enduml

PlantUML version 1.2021.10(Mon Aug 30 15:43:48 CEST 2021)
(GPL source distribution)
Java Runtime: OpenJDK Runtime Environment
JVM: OpenJDK 64-Bit Server VM
Default Encoding: UTF-8
Language: en
Country: GB
--></g></svg>