<?xml version="1.0" encoding="UTF-8" standalone="no"?><svg xmlns="http://www.w3.org/2000/svg" xmlns:xlink="http://www.w3.org/1999/xlink" contentScriptType="application/ecmascript" contentStyleType="text/css" height="1214px" preserveAspectRatio="none" style="width:1024px;height:1214px;background:#FFFFFF;" version="1.1" viewBox="0 0 1024 1214" width="1024px" zoomAndPan="magnify"><defs><filter height="300%" id="f9nk4ijfywpyw" width="300%" x="-1" y="-1"><feGaussianBlur result="blurOut" stdDeviation="2.0"/><feColorMatrix in="blurOut" result="blurOut2" type="matrix" values="0 0 0 0 0 0 0 0 0 0 0 0 0 0 0 0 0 0 .4 0"/><feOffset dx="4.0" dy="4.0" in="blurOut2" result="blurOut3"/><feBlend in="SourceGraphic" in2="blurOut3" mode="normal"/></filter><linearGradient id="g9nk4ijfywpyw0" x1="0%" x2="100%" y1="0%" y2="100%"><stop offset="0%" stop-color="#FAFAFF"/><stop offset="100%" stop-color="#888888"/></linearGradient></defs><g><text fill="#000000" font-family="sans-serif" font-size="18" lengthAdjust="spacing" textLength="616" x="206" y="29.4023">Sequence diagram for CSV load through local docker to remote docker</text><rect fill="#D3D3D3" height="1150.8691" style="stroke:#A80036;stroke-width:1.0;" width="85" x="1" y="41.1992"/><text fill="#000000" font-family="sans-serif" font-size="13" font-weight="bold" lengthAdjust="spacing" textLength="79" x="4" y="53.7676">workstation</text><rect fill="#D3D3D3" height="1150.8691" style="stroke:#A80036;stroke-width:1.0;" width="611.5" x="176.5" y="41.1992"/><text fill="#000000" font-family="sans-serif" font-size="13" font-weight="bold" lengthAdjust="spacing" textLength="81" x="441.75" y="53.7676">local docker</text><rect fill="#8888FF" height="1150.8691" style="stroke:#A80036;stroke-width:1.0;" width="82" x="883" y="41.1992"/><text fill="#000000" font-family="sans-serif" font-size="13" font-weight="bold" lengthAdjust="spacing" textLength="76" x="886" y="53.7676">neo Docker</text><rect fill="#A9DCDF" filter="url(#f9nk4ijfywpyw)" height="715.4531" style="stroke:#A9DCDF;stroke-width:1.0;" width="10" x="209" y="230.2402"/><line style="stroke:#0000FF;stroke-width:1.0;" x1="209" x2="209" y1="230.2402" y2="945.6934"/><line style="stroke:#0000FF;stroke-width:1.0;" x1="219" x2="219" y1="230.2402" y2="945.6934"/><line style="stroke:#0000FF;stroke-width:1.0;" x1="209" x2="219" y1="230.2402" y2="230.2402"/><rect fill="#A9DCDF" filter="url(#f9nk4ijfywpyw)" height="93.9316" style="stroke:#A9DCDF;stroke-width:1.0;" width="10" x="209" y="986.6484"/><line style="stroke:#0000FF;stroke-width:1.0;" x1="209" x2="209" y1="986.6484" y2="1080.5801"/><line style="stroke:#0000FF;stroke-width:1.0;" x1="219" x2="219" y1="986.6484" y2="1080.5801"/><line style="stroke:#0000FF;stroke-width:1.0;" x1="209" x2="219" y1="1080.5801" y2="1080.5801"/><rect fill="#A9DCDF" filter="url(#f9nk4ijfywpyw)" height="71.6211" style="stroke:#0000FF;stroke-width:1.0;" width="10" x="328" y="373.793"/><rect fill="#A9DCDF" filter="url(#f9nk4ijfywpyw)" height="29.3105" style="stroke:#0000FF;stroke-width:1.0;" width="10" x="495" y="283.8613"/><rect fill="#A9DCDF" filter="url(#f9nk4ijfywpyw)" height="367.0371" style="stroke:#0000FF;stroke-width:1.0;" width="10" x="568.5" y="521.3457"/><rect fill="#A9DCDF" filter="url(#f9nk4ijfywpyw)" height="251.4844" style="stroke:#A9DCDF;stroke-width:1.0;" width="10" x="743.5" y="694.209"/><line style="stroke:#0000FF;stroke-width:1.0;" x1="743.5" x2="743.5" y1="694.209" y2="945.6934"/><line style="stroke:#0000FF;stroke-width:1.0;" x1="753.5" x2="753.5" y1="694.209" y2="945.6934"/><line style="stroke:#0000FF;stroke-width:1.0;" x1="743.5" x2="753.5" y1="694.209" y2="694.209"/><rect fill="#A9DCDF" filter="url(#f9nk4ijfywpyw)" height="50.6211" style="stroke:#A9DCDF;stroke-width:1.0;" width="10" x="743.5" y="986.6484"/><line style="stroke:#0000FF;stroke-width:1.0;" x1="743.5" x2="743.5" y1="986.6484" y2="1037.2695"/><line style="stroke:#0000FF;stroke-width:1.0;" x1="753.5" x2="753.5" y1="986.6484" y2="1037.2695"/><line style="stroke:#0000FF;stroke-width:1.0;" x1="743.5" x2="753.5" y1="1037.2695" y2="1037.2695"/><line style="stroke:#0000FF;stroke-width:1.0;" x1="43.5" x2="43.5" y1="143.998" y2="945.6934"/><line style="stroke:#0000FF;stroke-width:1.0;stroke-dasharray:1.0,4.0;" x1="43.5" x2="43.5" y1="945.6934" y2="986.6484"/><line style="stroke:#0000FF;stroke-width:1.0;" x1="43.5" x2="43.5" y1="986.6484" y2="1105.5801"/><line style="stroke:#0000FF;stroke-width:1.0;" x1="213.5" x2="213.5" y1="143.998" y2="945.6934"/><line style="stroke:#0000FF;stroke-width:1.0;stroke-dasharray:1.0,4.0;" x1="213.5" x2="213.5" y1="945.6934" y2="986.6484"/><line style="stroke:#0000FF;stroke-width:1.0;" x1="213.5" x2="213.5" y1="986.6484" y2="1105.5801"/><line style="stroke:#0000FF;stroke-width:1.0;" x1="333" x2="333" y1="143.998" y2="945.6934"/><line style="stroke:#0000FF;stroke-width:1.0;stroke-dasharray:1.0,4.0;" x1="333" x2="333" y1="945.6934" y2="986.6484"/><line style="stroke:#0000FF;stroke-width:1.0;" x1="333" x2="333" y1="986.6484" y2="1105.5801"/><line style="stroke:#0000FF;stroke-width:1.0;" x1="500" x2="500" y1="143.998" y2="945.6934"/><line style="stroke:#0000FF;stroke-width:1.0;stroke-dasharray:1.0,4.0;" x1="500" x2="500" y1="945.6934" y2="986.6484"/><line style="stroke:#0000FF;stroke-width:1.0;" x1="500" x2="500" y1="986.6484" y2="1105.5801"/><line style="stroke:#0000FF;stroke-width:1.0;" x1="573" x2="573" y1="143.998" y2="945.6934"/><line style="stroke:#0000FF;stroke-width:1.0;stroke-dasharray:1.0,4.0;" x1="573" x2="573" y1="945.6934" y2="986.6484"/><line style="stroke:#0000FF;stroke-width:1.0;" x1="573" x2="573" y1="986.6484" y2="1105.5801"/><line style="stroke:#0000FF;stroke-width:1.0;" x1="748" x2="748" y1="143.998" y2="945.6934"/><line style="stroke:#0000FF;stroke-width:1.0;stroke-dasharray:1.0,4.0;" x1="748" x2="748" y1="945.6934" y2="986.6484"/><line style="stroke:#0000FF;stroke-width:1.0;" x1="748" x2="748" y1="986.6484" y2="1105.5801"/><line style="stroke:#0000FF;stroke-width:1.0;" x1="923.5" x2="923.5" y1="143.998" y2="945.6934"/><line style="stroke:#0000FF;stroke-width:1.0;stroke-dasharray:1.0,4.0;" x1="923.5" x2="923.5" y1="945.6934" y2="986.6484"/><line style="stroke:#0000FF;stroke-width:1.0;" x1="923.5" x2="923.5" y1="986.6484" y2="1105.5801"/><text fill="#000000" font-family="sans-serif" font-size="14" lengthAdjust="spacing" textLength="30" x="25.5" y="141.0449">user</text><ellipse cx="43.5" cy="70.5098" fill="#FEFECE" filter="url(#f9nk4ijfywpyw)" rx="8" ry="8" style="stroke:#0000FF;stroke-width:2.0;"/><path d="M43.5,78.5098 L43.5,105.5098 M30.5,86.5098 L56.5,86.5098 M43.5,105.5098 L30.5,120.5098 M43.5,105.5098 L56.5,120.5098 " fill="none" filter="url(#f9nk4ijfywpyw)" style="stroke:#0000FF;stroke-width:2.0;"/><text fill="#000000" font-family="sans-serif" font-size="14" lengthAdjust="spacing" textLength="30" x="25.5" y="1118.1152">user</text><ellipse cx="43.5" cy="1131.0684" fill="#FEFECE" filter="url(#f9nk4ijfywpyw)" rx="8" ry="8" style="stroke:#0000FF;stroke-width:2.0;"/><path d="M43.5,1139.0684 L43.5,1166.0684 M30.5,1147.0684 L56.5,1147.0684 M43.5,1166.0684 L30.5,1181.0684 M43.5,1166.0684 L56.5,1181.0684 " fill="none" filter="url(#f9nk4ijfywpyw)" style="stroke:#0000FF;stroke-width:2.0;"/><rect fill="url(#g9nk4ijfywpyw0)" filter="url(#f9nk4ijfywpyw)" height="28.1328" style="stroke:#0000FF;stroke-width:1.5;" width="63" x="180.5" y="110.8652"/><text fill="#000000" font-family="sans-serif" font-size="12" lengthAdjust="spacing" textLength="49" x="187.5" y="129.4668">wrapper</text><rect fill="url(#g9nk4ijfywpyw0)" filter="url(#f9nk4ijfywpyw)" height="28.1328" style="stroke:#0000FF;stroke-width:1.5;" width="63" x="180.5" y="1104.5801"/><text fill="#000000" font-family="sans-serif" font-size="12" lengthAdjust="spacing" textLength="49" x="187.5" y="1123.1816">wrapper</text><rect fill="url(#g9nk4ijfywpyw0)" filter="url(#f9nk4ijfywpyw)" height="28.1328" style="stroke:#0000FF;stroke-width:1.5;" width="68" x="297" y="110.8652"/><text fill="#000000" font-family="sans-serif" font-size="12" lengthAdjust="spacing" textLength="54" x="304" y="129.4668">tokenizer</text><rect fill="url(#g9nk4ijfywpyw0)" filter="url(#f9nk4ijfywpyw)" height="28.1328" style="stroke:#0000FF;stroke-width:1.5;" width="68" x="297" y="1104.5801"/><text fill="#000000" font-family="sans-serif" font-size="12" lengthAdjust="spacing" textLength="54" x="304" y="1123.1816">tokenizer</text><rect fill="url(#g9nk4ijfywpyw0)" filter="url(#f9nk4ijfywpyw)" height="28.1328" style="stroke:#0000FF;stroke-width:1.5;" width="78" x="459" y="110.8652"/><text fill="#000000" font-family="sans-serif" font-size="12" lengthAdjust="spacing" textLength="64" x="466" y="129.4668">convertCSV</text><rect fill="url(#g9nk4ijfywpyw0)" filter="url(#f9nk4ijfywpyw)" height="28.1328" style="stroke:#0000FF;stroke-width:1.5;" width="78" x="459" y="1104.5801"/><text fill="#000000" font-family="sans-serif" font-size="12" lengthAdjust="spacing" textLength="64" x="466" y="1123.1816">convertCSV</text><rect fill="url(#g9nk4ijfywpyw0)" filter="url(#f9nk4ijfywpyw)" height="28.1328" style="stroke:#0000FF;stroke-width:1.5;" width="41" x="551" y="110.8652"/><text fill="#000000" font-family="sans-serif" font-size="12" lengthAdjust="spacing" textLength="27" x="558" y="129.4668">flask</text><rect fill="url(#g9nk4ijfywpyw0)" filter="url(#f9nk4ijfywpyw)" height="28.1328" style="stroke:#0000FF;stroke-width:1.5;" width="41" x="551" y="1104.5801"/><text fill="#000000" font-family="sans-serif" font-size="12" lengthAdjust="spacing" textLength="27" x="558" y="1123.1816">flask</text><rect fill="url(#g9nk4ijfywpyw0)" filter="url(#f9nk4ijfywpyw)" height="28.1328" style="stroke:#0000FF;stroke-width:1.5;" width="67" x="713" y="110.8652"/><text fill="#000000" font-family="sans-serif" font-size="12" lengthAdjust="spacing" textLength="53" x="720" y="129.4668">Uploader</text><rect fill="url(#g9nk4ijfywpyw0)" filter="url(#f9nk4ijfywpyw)" height="28.1328" style="stroke:#0000FF;stroke-width:1.5;" width="67" x="713" y="1104.5801"/><text fill="#000000" font-family="sans-serif" font-size="12" lengthAdjust="spacing" textLength="53" x="720" y="1123.1816">Uploader</text><rect fill="url(#g9nk4ijfywpyw0)" filter="url(#f9nk4ijfywpyw)" height="28.1328" style="stroke:#0000FF;stroke-width:1.5;" width="49" x="897.5" y="110.8652"/><text fill="#000000" font-family="sans-serif" font-size="12" lengthAdjust="spacing" textLength="35" x="904.5" y="129.4668">Neo4J</text><rect fill="url(#g9nk4ijfywpyw0)" filter="url(#f9nk4ijfywpyw)" height="28.1328" style="stroke:#0000FF;stroke-width:1.5;" width="49" x="897.5" y="1104.5801"/><text fill="#000000" font-family="sans-serif" font-size="12" lengthAdjust="spacing" textLength="35" x="904.5" y="1123.1816">Neo4J</text><rect fill="#A9DCDF" filter="url(#f9nk4ijfywpyw)" height="715.4531" style="stroke:#A9DCDF;stroke-width:1.0;" width="10" x="209" y="230.2402"/><line style="stroke:#0000FF;stroke-width:1.0;" x1="209" x2="209" y1="230.2402" y2="945.6934"/><line style="stroke:#0000FF;stroke-width:1.0;" x1="219" x2="219" y1="230.2402" y2="945.6934"/><line style="stroke:#0000FF;stroke-width:1.0;" x1="209" x2="219" y1="230.2402" y2="230.2402"/><rect fill="#A9DCDF" filter="url(#f9nk4ijfywpyw)" height="93.9316" style="stroke:#A9DCDF;stroke-width:1.0;" width="10" x="209" y="986.6484"/><line style="stroke:#0000FF;stroke-width:1.0;" x1="209" x2="209" y1="986.6484" y2="1080.5801"/><line style="stroke:#0000FF;stroke-width:1.0;" x1="219" x2="219" y1="986.6484" y2="1080.5801"/><line style="stroke:#0000FF;stroke-width:1.0;" x1="209" x2="219" y1="1080.5801" y2="1080.5801"/><rect fill="#A9DCDF" filter="url(#f9nk4ijfywpyw)" height="71.6211" style="stroke:#0000FF;stroke-width:1.0;" width="10" x="328" y="373.793"/><rect fill="#A9DCDF" filter="url(#f9nk4ijfywpyw)" height="29.3105" style="stroke:#0000FF;stroke-width:1.0;" width="10" x="495" y="283.8613"/><rect fill="#A9DCDF" filter="url(#f9nk4ijfywpyw)" height="367.0371" style="stroke:#0000FF;stroke-width:1.0;" width="10" x="568.5" y="521.3457"/><rect fill="#A9DCDF" filter="url(#f9nk4ijfywpyw)" height="251.4844" style="stroke:#A9DCDF;stroke-width:1.0;" width="10" x="743.5" y="694.209"/><line style="stroke:#0000FF;stroke-width:1.0;" x1="743.5" x2="743.5" y1="694.209" y2="945.6934"/><line style="stroke:#0000FF;stroke-width:1.0;" x1="753.5" x2="753.5" y1="694.209" y2="945.6934"/><line style="stroke:#0000FF;stroke-width:1.0;" x1="743.5" x2="753.5" y1="694.209" y2="694.209"/><rect fill="#A9DCDF" filter="url(#f9nk4ijfywpyw)" height="50.6211" style="stroke:#A9DCDF;stroke-width:1.0;" width="10" x="743.5" y="986.6484"/><line style="stroke:#0000FF;stroke-width:1.0;" x1="743.5" x2="743.5" y1="986.6484" y2="1037.2695"/><line style="stroke:#0000FF;stroke-width:1.0;" x1="753.5" x2="753.5" y1="986.6484" y2="1037.2695"/><line style="stroke:#0000FF;stroke-width:1.0;" x1="743.5" x2="753.5" y1="1037.2695" y2="1037.2695"/><path d="M15.5,160.998 L180.5,160.998 L180.5,167.998 L170.5,177.998 L15.5,177.998 L15.5,160.998 " fill="#EEEEEE" style="stroke:#000000;stroke-width:1.0;"/><rect fill="none" height="927.582" style="stroke:#000000;stroke-width:2.0;" width="1002.5" x="15.5" y="160.998"/><text fill="#000000" font-family="sans-serif" font-size="13" font-weight="bold" lengthAdjust="spacing" textLength="120" x="30.5" y="174.5664">"User Interaction"</text><polygon fill="#0000FF" points="197,226.2402,207,230.2402,197,234.2402,201,230.2402" style="stroke:#0000FF;stroke-width:1.0;"/><line style="stroke:#0000FF;stroke-width:1.0;" x1="43.5" x2="203" y1="230.2402" y2="230.2402"/><text fill="#000000" font-family="sans-serif" font-size="13" lengthAdjust="spacing" textLength="122" x="50.5" y="194.877">provide filename of</text><text fill="#000000" font-family="sans-serif" font-size="13" lengthAdjust="spacing" textLength="55" x="50.5" y="210.1875">local csv</text><text fill="#000000" font-family="sans-serif" font-size="13" lengthAdjust="spacing" textLength="42" x="54.5" y="225.498">via CLI</text><path d="M170.5,245.2402 L303.5,245.2402 L303.5,252.2402 L293.5,262.2402 L170.5,262.2402 L170.5,245.2402 " fill="#EEEEEE" style="stroke:#000000;stroke-width:1.0;"/><rect fill="none" height="75.9316" style="stroke:#000000;stroke-width:2.0;" width="380.5" x="170.5" y="245.2402"/><text fill="#000000" font-family="sans-serif" font-size="13" font-weight="bold" lengthAdjust="spacing" textLength="88" x="185.5" y="258.8086">"Conversion"</text><polygon fill="#0000FF" points="483,279.8613,493,283.8613,483,287.8613,487,283.8613" style="stroke:#0000FF;stroke-width:1.0;"/><line style="stroke:#0000FF;stroke-width:1.0;" x1="219" x2="489" y1="283.8613" y2="283.8613"/><text fill="#000000" font-family="sans-serif" font-size="13" lengthAdjust="spacing" textLength="115" x="226" y="279.1191">trigger conversion</text><polygon fill="#0000FF" points="230,309.1719,220,313.1719,230,317.1719,226,313.1719" style="stroke:#0000FF;stroke-width:1.0;"/><line style="stroke:#0000FF;stroke-width:1.0;" x1="224" x2="499" y1="313.1719" y2="313.1719"/><text fill="#000000" font-family="sans-serif" font-size="13" lengthAdjust="spacing" textLength="115" x="236" y="308.4297">new converted file</text><path d="M170.5,335.1719 L269.5,335.1719 L269.5,342.1719 L259.5,352.1719 L170.5,352.1719 L170.5,335.1719 " fill="#EEEEEE" style="stroke:#000000;stroke-width:1.0;"/><rect fill="none" height="118.2422" style="stroke:#000000;stroke-width:2.0;" width="329.5" x="170.5" y="335.1719"/><text fill="#000000" font-family="sans-serif" font-size="13" font-weight="bold" lengthAdjust="spacing" textLength="54" x="185.5" y="348.7402">"Token"</text><polygon fill="#0000FF" points="316,369.793,326,373.793,316,377.793,320,373.793" style="stroke:#0000FF;stroke-width:1.0;"/><line style="stroke:#0000FF;stroke-width:1.0;" x1="219" x2="322" y1="373.793" y2="373.793"/><text fill="#000000" font-family="sans-serif" font-size="13" lengthAdjust="spacing" textLength="90" x="226" y="369.0508">request Token</text><line style="stroke:#0000FF;stroke-width:1.0;" x1="338" x2="380" y1="403.1035" y2="403.1035"/><line style="stroke:#0000FF;stroke-width:1.0;" x1="380" x2="380" y1="403.1035" y2="416.1035"/><line style="stroke:#0000FF;stroke-width:1.0;" x1="339" x2="380" y1="416.1035" y2="416.1035"/><polygon fill="#0000FF" points="349,412.1035,339,416.1035,349,420.1035,345,416.1035" style="stroke:#0000FF;stroke-width:1.0;"/><text fill="#000000" font-family="sans-serif" font-size="13" lengthAdjust="spacing" textLength="143" x="345" y="398.3613">create "random" Token</text><polygon fill="#0000FF" points="230,441.4141,220,445.4141,230,449.4141,226,445.4141" style="stroke:#0000FF;stroke-width:1.0;"/><line style="stroke:#0000FF;stroke-width:1.0;" x1="224" x2="332" y1="445.4141" y2="445.4141"/><text fill="#000000" font-family="sans-serif" font-size="13" lengthAdjust="spacing" textLength="81" x="236" y="440.6719">return Token</text><path d="M170.5,467.4141 L309.5,467.4141 L309.5,474.4141 L299.5,484.4141 L170.5,484.4141 L170.5,467.4141 " fill="#EEEEEE" style="stroke:#000000;stroke-width:1.0;"/><rect fill="none" height="174.1738" style="stroke:#000000;stroke-width:2.0;" width="578" x="170.5" y="467.4141"/><text fill="#000000" font-family="sans-serif" font-size="13" font-weight="bold" lengthAdjust="spacing" textLength="94" x="185.5" y="480.9824">"Trigger URL"</text><polygon fill="#0000FF" points="556.5,517.3457,566.5,521.3457,556.5,525.3457,560.5,521.3457" style="stroke:#0000FF;stroke-width:1.0;"/><line style="stroke:#0000FF;stroke-width:1.0;" x1="219" x2="562.5" y1="521.3457" y2="521.3457"/><text fill="#000000" font-family="sans-serif" font-size="13" lengthAdjust="spacing" textLength="146" x="226" y="501.293">pass converted file and</text><text fill="#000000" font-family="sans-serif" font-size="13" lengthAdjust="spacing" textLength="77" x="226" y="516.6035">URL+TOKEN</text><path d="M419,534.3457 L419,574.3457 L723,574.3457 L723,544.3457 L713,534.3457 L419,534.3457 " fill="#FBFB77" filter="url(#f9nk4ijfywpyw)" style="stroke:#A80036;stroke-width:1.0;"/><path d="M713,534.3457 L713,544.3457 L723,544.3457 L713,534.3457 " fill="#FBFB77" style="stroke:#A80036;stroke-width:1.0;"/><text fill="#000000" font-family="sans-serif" font-size="13" lengthAdjust="spacing" textLength="271" x="425" y="551.9141">Aim: provide file with random URL to neo4j</text><text fill="#000000" font-family="sans-serif" font-size="13" lengthAdjust="spacing" textLength="279" x="429" y="567.2246">end docker after neo4j returns result of load</text><line style="stroke:#0000FF;stroke-width:1.0;" x1="578.5" x2="620.5" y1="620.5879" y2="620.5879"/><line style="stroke:#0000FF;stroke-width:1.0;" x1="620.5" x2="620.5" y1="620.5879" y2="633.5879"/><line style="stroke:#0000FF;stroke-width:1.0;" x1="579.5" x2="620.5" y1="633.5879" y2="633.5879"/><polygon fill="#0000FF" points="589.5,629.5879,579.5,633.5879,589.5,637.5879,585.5,633.5879" style="stroke:#0000FF;stroke-width:1.0;"/><text fill="#000000" font-family="sans-serif" font-size="13" lengthAdjust="spacing" textLength="109" x="585.5" y="600.5352">begin serving file</text><text fill="#000000" font-family="sans-serif" font-size="13" lengthAdjust="spacing" textLength="147" x="589.5" y="615.8457">via random URL+Token</text><path d="M160.5,655.5879 L279.5,655.5879 L279.5,662.5879 L269.5,672.5879 L160.5,672.5879 L160.5,655.5879 " fill="#EEEEEE" style="stroke:#000000;stroke-width:1.0;"/><rect fill="none" height="396.6816" style="stroke:#000000;stroke-width:2.0;" width="847.5" x="160.5" y="655.5879"/><text fill="#000000" font-family="sans-serif" font-size="13" font-weight="bold" lengthAdjust="spacing" textLength="74" x="175.5" y="669.1563">"Load CSV"</text><polygon fill="#0000FF" points="731.5,690.209,741.5,694.209,731.5,698.209,735.5,694.209" style="stroke:#0000FF;stroke-width:1.0;"/><line style="stroke:#0000FF;stroke-width:1.0;" x1="219" x2="737.5" y1="694.209" y2="694.209"/><text fill="#000000" font-family="sans-serif" font-size="13" lengthAdjust="spacing" textLength="105" x="226" y="689.4668">Pass URL+Token</text><line style="stroke:#0000FF;stroke-width:1.0;" x1="753.5" x2="795.5" y1="723.5195" y2="723.5195"/><line style="stroke:#0000FF;stroke-width:1.0;" x1="795.5" x2="795.5" y1="723.5195" y2="736.5195"/><line style="stroke:#0000FF;stroke-width:1.0;" x1="754.5" x2="795.5" y1="736.5195" y2="736.5195"/><polygon fill="#0000FF" points="764.5,732.5195,754.5,736.5195,764.5,740.5195,760.5,736.5195" style="stroke:#0000FF;stroke-width:1.0;"/><text fill="#000000" font-family="sans-serif" font-size="13" lengthAdjust="spacing" textLength="127" x="760.5" y="718.7773">Load CQL statement</text><path d="M170.5,751.5195 L403.5,751.5195 L403.5,758.5195 L393.5,768.5195 L170.5,768.5195 L170.5,751.5195 " fill="#EEEEEE" style="stroke:#000000;stroke-width:1.0;"/><rect fill="none" height="293.75" style="stroke:#000000;stroke-width:2.0;" width="827.5" x="170.5" y="751.5195"/><text fill="#000000" font-family="sans-serif" font-size="13" font-weight="bold" lengthAdjust="spacing" textLength="188" x="185.5" y="765.0879">"Loader IP session to neo4j"</text><polygon fill="#0000FF" points="912,801.4512,922,805.4512,912,809.4512,916,805.4512" style="stroke:#0000FF;stroke-width:1.0;"/><line style="stroke:#0000FF;stroke-width:1.0;" x1="753.5" x2="918" y1="805.4512" y2="805.4512"/><text fill="#000000" font-family="sans-serif" font-size="13" lengthAdjust="spacing" textLength="117" x="760.5" y="785.3984">Pass load CSV CQL</text><text fill="#000000" font-family="sans-serif" font-size="13" lengthAdjust="spacing" textLength="136" x="760.5" y="800.709">including URL+Token</text><path d="M541,820.4512 L759,820.4512 L759,827.4512 L749,837.4512 L541,837.4512 L541,820.4512 " fill="#EEEEEE" style="stroke:#000000;stroke-width:1.0;"/><rect fill="none" height="75.9316" style="stroke:#000000;stroke-width:2.0;" width="419.5" x="541" y="820.4512"/><text fill="#000000" font-family="sans-serif" font-size="13" font-weight="bold" lengthAdjust="spacing" textLength="173" x="556" y="834.0195">"neo4j IP session to flask"</text><polygon fill="#0000FF" points="589.5,855.0723,579.5,859.0723,589.5,863.0723,585.5,859.0723" style="stroke:#0000FF;stroke-width:1.0;"/><line style="stroke:#0000FF;stroke-width:1.0;" x1="583.5" x2="923" y1="859.0723" y2="859.0723"/><text fill="#000000" font-family="sans-serif" font-size="13" lengthAdjust="spacing" textLength="130" x="595.5" y="854.3301">get CSV through URL</text><polygon fill="#0000FF" points="912,884.3828,922,888.3828,912,892.3828,916,888.3828" style="stroke:#0000FF;stroke-width:1.0;"/><line style="stroke:#0000FF;stroke-width:1.0;" x1="573.5" x2="918" y1="888.3828" y2="888.3828"/><text fill="#000000" font-family="sans-serif" font-size="13" lengthAdjust="spacing" textLength="123" x="580.5" y="883.6406">pass converted CSV</text><line style="stroke:#0000FF;stroke-width:1.0;" x1="924" x2="966" y1="924.6934" y2="924.6934"/><line style="stroke:#0000FF;stroke-width:1.0;" x1="966" x2="966" y1="924.6934" y2="937.6934"/><line style="stroke:#0000FF;stroke-width:1.0;" x1="925" x2="966" y1="937.6934" y2="937.6934"/><polygon fill="#0000FF" points="935,933.6934,925,937.6934,935,941.6934,931,937.6934" style="stroke:#0000FF;stroke-width:1.0;"/><text fill="#000000" font-family="sans-serif" font-size="13" lengthAdjust="spacing" textLength="55" x="931" y="919.9512">Load csv</text><text fill="#000000" font-family="sans-serif" font-size="11" lengthAdjust="spacing" textLength="0" x="73.25" y="970.3281"/><text fill="#000000" font-family="sans-serif" font-size="11" font-weight="bold" lengthAdjust="spacing" textLength="821" x="73.25" y="970.3281">Neo4j Loads the data - If the data file is large this can take a long time - It can take from minutes to hours depending on the complexity and size</text><text fill="#000000" font-family="sans-serif" font-size="11" lengthAdjust="spacing" textLength="0" x="897.25" y="970.3281"/><polygon fill="#0000FF" points="764.5,1003.959,754.5,1007.959,764.5,1011.959,760.5,1007.959" style="stroke:#0000FF;stroke-width:1.0;"/><line style="stroke:#0000FF;stroke-width:1.0;" x1="758.5" x2="923" y1="1007.959" y2="1007.959"/><text fill="#000000" font-family="sans-serif" font-size="13" lengthAdjust="spacing" textLength="81" x="770.5" y="1003.2168">return status</text><polygon fill="#0000FF" points="230,1033.2695,220,1037.2695,230,1041.2695,226,1037.2695" style="stroke:#0000FF;stroke-width:1.0;"/><line style="stroke:#0000FF;stroke-width:1.0;" x1="224" x2="747.5" y1="1037.2695" y2="1037.2695"/><text fill="#000000" font-family="sans-serif" font-size="13" lengthAdjust="spacing" textLength="81" x="236" y="1032.5273">return status</text><polygon fill="#0000FF" points="54.5,1076.5801,44.5,1080.5801,54.5,1084.5801,50.5,1080.5801" style="stroke:#0000FF;stroke-width:1.0;"/><line style="stroke:#0000FF;stroke-width:1.0;" x1="48.5" x2="213" y1="1080.5801" y2="1080.5801"/><text fill="#000000" font-family="sans-serif" font-size="13" lengthAdjust="spacing" textLength="81" x="60.5" y="1075.8379">return status</text><text fill="#888888" font-family="sans-serif" font-size="10" lengthAdjust="spacing" textLength="118" x="455" y="1205.7363">(C) 2021 Sean Donnellan</text><!--MD5=[f146b82d0d6cb3794ad5c5f10d389670]
@startuml
title Sequence diagram for CSV load through local docker to remote docker
footer (C) 2021 Sean Donnellan

skinparam handwritten false
skinparam SequenceGroupBodyBackgroundColor transparent
skinparam sequence {
	ArrowColor Blue
	ActorBorderColor Blue
	LifeLineBorderColor blue
	LifeLineBackgroundColor #A9DCDF
	ParticipantBorderColor Blue
	ParticipantBackgroundColor #fafaff/888888
	ParticipantFontSize 12
	ParticipantFontColor black
	ActorFontColor Black
}

box "workstation" #lightgrey
  actor user
end box

box "local docker" #lightGrey
  participant wrapper
	participant tokenizer
  participant convertCSV
  participant flask
  participant Uploader
end box

box "neo Docker" #8888FF
  participant Neo4J
end box

group "User Interaction"
  user -> wrapper :provide filename of \nlocal csv\n via CLI
	activate wrapper
  group "Conversion"
    wrapper -> convertCSV : trigger conversion
		activate convertCSV
    wrapper <- convertCSV : new converted file
		deactivate convertCSV
  end

	group "Token"
		wrapper -> tokenizer : request Token
		activate tokenizer
		tokenizer -> tokenizer : create "random" Token
		wrapper <- tokenizer : return Token
		deactivate tokenizer
	end

  group "Trigger URL"
    wrapper -> flask : pass converted file and\nURL+TOKEN
		activate flask
		note over flask : Aim: provide file with random URL to neo4j\n end docker after neo4j returns result of load
		flask -> flask : begin serving file \n via random URL+Token
  end

  group "Load CSV"
		wrapper -> Uploader : Pass URL+Token
		activate Uploader
		Uploader -> Uploader : Load CQL statement
    group "Loader IP session to neo4j"
      Uploader -> Neo4J : Pass load CSV CQL\nincluding URL+Token
      group "neo4j IP session to flask"
        flask <- Neo4J : get CSV through URL
        flask -> Neo4J : pass converted CSV
				deactivate flask
      end
      Neo4J -> Neo4J : Load csv
			... **Neo4j Loads the data - If the data file is large this can take a long time - It can take from minutes to hours depending on the complexity and size** ...
      Neo4J -> Uploader : return status
			wrapper <- Uploader : return status
			deactivate Uploader
    end
  end
  wrapper -> user : return status
	deactivate wrapper
end

@enduml

PlantUML version 1.2021.10(Mon Aug 30 15:43:48 CEST 2021)
(GPL source distribution)
Java Runtime: OpenJDK Runtime Environment
JVM: OpenJDK 64-Bit Server VM
Default Encoding: UTF-8
Language: en
Country: GB
--></g></svg>