<?xml version="1.0" encoding="UTF-8" standalone="no"?><svg xmlns="http://www.w3.org/2000/svg" xmlns:xlink="http://www.w3.org/1999/xlink" contentScriptType="application/ecmascript" contentStyleType="text/css" height="549px" preserveAspectRatio="none" style="width:1711px;height:549px;background:#FFFFFF;" version="1.1" viewBox="0 0 1711 549" width="1711px" zoomAndPan="magnify"><defs><linearGradient id="g160qbg5mlwn0c0" x1="0%" x2="100%" y1="0%" y2="100%"><stop offset="0%" stop-color="#FFFFFF"/><stop offset="100%" stop-color="#AAAAFF"/></linearGradient><filter height="300%" id="f160qbg5mlwn0c" width="300%" x="-1" y="-1"><feGaussianBlur result="blurOut" stdDeviation="2.0"/><feColorMatrix in="blurOut" result="blurOut2" type="matrix" values="0 0 0 0 0 0 0 0 0 0 0 0 0 0 0 0 0 0 .4 0"/><feOffset dx="4.0" dy="4.0" in="blurOut2" result="blurOut3"/><feBlend in="SourceGraphic" in2="blurOut3" mode="normal"/></filter><linearGradient id="g160qbg5mlwn0c1" x1="0%" x2="100%" y1="0%" y2="100%"><stop offset="0%" stop-color="#FFFFFF"/><stop offset="100%" stop-color="#008000"/></linearGradient></defs><g><rect fill="url(#g160qbg5mlwn0c0)" height="549" style="stroke:none;stroke-width:1.0;" width="1711" x="0" y="0"/><text fill="#000000" font-family="sans-serif" font-size="18" lengthAdjust="spacing" textLength="431" x="633.75" y="17.4023">Asciidoc document structure with granular access</text><!--MD5=[0d45b23b700a447abd583c185bd8f1e2]
cluster Book--><polygon fill="url(#g160qbg5mlwn0c0)" filter="url(#f160qbg5mlwn0c)" points="85.5,177.6992,127.5,177.6992,134.5,200.1875,1639.5,200.1875,1639.5,525.6992,85.5,525.6992,85.5,177.6992" style="stroke:#000000;stroke-width:1.5;"/><line style="stroke:#000000;stroke-width:1.5;" x1="85.5" x2="134.5" y1="200.1875" y2="200.1875"/><text fill="#000000" font-family="sans-serif" font-size="14" font-weight="bold" lengthAdjust="spacing" textLength="36" x="89.5" y="193.2344">Book</text><!--MD5=[20c63aef3dca36f1eed6a2e142e3dec3]
cluster Book.Chapter1--><polygon fill="url(#g160qbg5mlwn0c0)" filter="url(#f160qbg5mlwn0c)" points="653.5,236.6992,715.5,236.6992,722.5,259.1875,1106.5,259.1875,1106.5,424.6992,653.5,424.6992,653.5,236.6992" style="stroke:#000000;stroke-width:1.5;"/><line style="stroke:#000000;stroke-width:1.5;" x1="653.5" x2="722.5" y1="259.1875" y2="259.1875"/><text fill="#000000" font-family="sans-serif" font-size="14" font-weight="bold" lengthAdjust="spacing" textLength="56" x="657.5" y="252.2344">Chapter</text><!--MD5=[39dd4779a8cde742bb086c96ac192731]
cluster Book.Chapter1.SubSection1--><polygon fill="url(#g160qbg5mlwn0c0)" filter="url(#f160qbg5mlwn0c)" points="861.5,295.6992,945.5,295.6992,952.5,318.1875,1066.5,318.1875,1066.5,384.6992,861.5,384.6992,861.5,295.6992" style="stroke:#000000;stroke-width:1.5;"/><line style="stroke:#000000;stroke-width:1.5;" x1="861.5" x2="952.5" y1="318.1875" y2="318.1875"/><text fill="#000000" font-family="sans-serif" font-size="14" font-weight="bold" lengthAdjust="spacing" textLength="78" x="865.5" y="311.2344">SubSection</text><!--MD5=[466644d11ea8c665710d19944699787e]
cluster Book.Chapter2--><polygon fill="url(#g160qbg5mlwn0c0)" filter="url(#f160qbg5mlwn0c)" points="1146.5,236.6992,1208.5,236.6992,1215.5,259.1875,1599.5,259.1875,1599.5,424.6992,1146.5,424.6992,1146.5,236.6992" style="stroke:#000000;stroke-width:1.5;"/><line style="stroke:#000000;stroke-width:1.5;" x1="1146.5" x2="1215.5" y1="259.1875" y2="259.1875"/><text fill="#000000" font-family="sans-serif" font-size="14" font-weight="bold" lengthAdjust="spacing" textLength="56" x="1150.5" y="252.2344">Chapter</text><!--MD5=[8e7a649f2d0118b58944fa017709d1c5]
cluster Book.Chapter2.SubSection1--><polygon fill="url(#g160qbg5mlwn0c0)" filter="url(#f160qbg5mlwn0c)" points="1354.5,295.6992,1438.5,295.6992,1445.5,318.1875,1559.5,318.1875,1559.5,384.6992,1354.5,384.6992,1354.5,295.6992" style="stroke:#000000;stroke-width:1.5;"/><line style="stroke:#000000;stroke-width:1.5;" x1="1354.5" x2="1445.5" y1="318.1875" y2="318.1875"/><text fill="#000000" font-family="sans-serif" font-size="14" font-weight="bold" lengthAdjust="spacing" textLength="78" x="1358.5" y="311.2344">SubSection</text><!--MD5=[d46dd8f1d106ca285da0143b550f865e]
entity Book.toc--><rect fill="url(#g160qbg5mlwn0c1)" filter="url(#f160qbg5mlwn0c)" height="22.4883" style="stroke:#000000;stroke-width:1.5;" width="142" x="128.5" y="338.6992"/><text fill="#000000" font-family="sans-serif" font-size="14" lengthAdjust="spacing" textLength="122" x="138.5" y="355.2344">Table of Contents</text><!--MD5=[4f00d2b3fd9b0083a42fdd754c41b1b8]
entity Book.text1--><rect fill="url(#g160qbg5mlwn0c1)" filter="url(#f160qbg5mlwn0c)" height="22.4883" style="stroke:#000000;stroke-width:1.5;" width="138" x="305.5" y="338.6992"/><text fill="#000000" font-family="sans-serif" font-size="14" lengthAdjust="spacing" textLength="118" x="315.5" y="355.2344">text and includes</text><!--MD5=[b4d46c23cc256e587ccd800bd898224f]
entity Book.glossary--><rect fill="url(#g160qbg5mlwn0c1)" filter="url(#f160qbg5mlwn0c)" height="22.4883" style="stroke:#000000;stroke-width:1.5;" width="147" x="479" y="338.6992"/><text fill="#000000" font-family="sans-serif" font-size="14" lengthAdjust="spacing" textLength="127" x="489" y="355.2344">appendix Glossary</text><!--MD5=[ba66816862c2eceed55b0e1d75727823]
entity Book.copyright--><rect fill="url(#g160qbg5mlwn0c1)" filter="url(#f160qbg5mlwn0c)" height="22.4883" style="stroke:#000000;stroke-width:1.5;" width="164" x="128.5" y="479.6992"/><text fill="#000000" font-family="sans-serif" font-size="14" lengthAdjust="spacing" textLength="144" x="138.5" y="496.2344">appendix Copyrights</text><!--MD5=[b756a67f0d7b2d8798e9fa81cdf25daa]
entity Book.notation--><rect fill="url(#g160qbg5mlwn0c1)" filter="url(#f160qbg5mlwn0c)" height="22.4883" style="stroke:#000000;stroke-width:1.5;" width="148" x="327.5" y="479.6992"/><text fill="#000000" font-family="sans-serif" font-size="14" lengthAdjust="spacing" textLength="128" x="337.5" y="496.2344">appendix Notation</text><!--MD5=[d7e0466438f305f0d4e2df9f609e780c]
entity Book.Chapter1.text1--><rect fill="url(#g160qbg5mlwn0c1)" filter="url(#f160qbg5mlwn0c)" height="22.4883" style="stroke:#000000;stroke-width:1.5;" width="138" x="696.5" y="338.6992"/><text fill="#000000" font-family="sans-serif" font-size="14" lengthAdjust="spacing" textLength="118" x="706.5" y="355.2344">text and includes</text><!--MD5=[141353092cfcbba92fe2265977d0f0d2]
entity Book.Chapter1.SubSection1.text1--><rect fill="url(#g160qbg5mlwn0c1)" filter="url(#f160qbg5mlwn0c)" height="22.4883" style="stroke:#000000;stroke-width:1.5;" width="138" x="904.5" y="338.6992"/><text fill="#000000" font-family="sans-serif" font-size="14" lengthAdjust="spacing" textLength="118" x="914.5" y="355.2344">text and includes</text><!--MD5=[f47ddd71671de568a4f82882e3627482]
entity Book.Chapter2.text1--><rect fill="url(#g160qbg5mlwn0c1)" filter="url(#f160qbg5mlwn0c)" height="22.4883" style="stroke:#000000;stroke-width:1.5;" width="138" x="1189.5" y="338.6992"/><text fill="#000000" font-family="sans-serif" font-size="14" lengthAdjust="spacing" textLength="118" x="1199.5" y="355.2344">text and includes</text><!--MD5=[23d7864161b1b6fed71b0179e5977430]
entity Book.Chapter2.SubSection1.text1--><rect fill="url(#g160qbg5mlwn0c1)" filter="url(#f160qbg5mlwn0c)" height="22.4883" style="stroke:#000000;stroke-width:1.5;" width="138" x="1397.5" y="338.6992"/><text fill="#000000" font-family="sans-serif" font-size="14" lengthAdjust="spacing" textLength="118" x="1407.5" y="355.2344">text and includes</text><!--MD5=[443a25782ed9d9100e54cbf2ea68ee04]
entity Owner--><ellipse cx="28.5" cy="35.1992" fill="#FEFECE" filter="url(#f160qbg5mlwn0c)" rx="8" ry="8" style="stroke:#A80036;stroke-width:1.5;"/><path d="M28.5,43.1992 L28.5,70.1992 M15.5,51.1992 L41.5,51.1992 M28.5,70.1992 L15.5,85.1992 M28.5,70.1992 L41.5,85.1992 " fill="none" filter="url(#f160qbg5mlwn0c)" style="stroke:#A80036;stroke-width:1.5;"/><text fill="#000000" font-family="sans-serif" font-size="14" lengthAdjust="spacing" textLength="45" x="6" y="104.2344">Owner</text><!--MD5=[05c20daadc9b0b474b844a22ea822f78]
entity Department1--><ellipse cx="415.5" cy="35.1992" fill="#FEFECE" filter="url(#f160qbg5mlwn0c)" rx="8" ry="8" style="stroke:#A80036;stroke-width:1.5;"/><path d="M415.5,43.1992 L415.5,70.1992 M402.5,51.1992 L428.5,51.1992 M415.5,70.1992 L402.5,85.1992 M415.5,70.1992 L428.5,85.1992 " fill="none" filter="url(#f160qbg5mlwn0c)" style="stroke:#A80036;stroke-width:1.5;"/><text fill="#000000" font-family="sans-serif" font-size="14" lengthAdjust="spacing" textLength="90" x="370.5" y="104.2344">Department1</text><!--MD5=[d34442360c4f736251bba6ac354ec7aa]
entity Department2--><ellipse cx="1331.5" cy="35.1992" fill="#FEFECE" filter="url(#f160qbg5mlwn0c)" rx="8" ry="8" style="stroke:#A80036;stroke-width:1.5;"/><path d="M1331.5,43.1992 L1331.5,70.1992 M1318.5,51.1992 L1344.5,51.1992 M1331.5,70.1992 L1318.5,85.1992 M1331.5,70.1992 L1344.5,85.1992 " fill="none" filter="url(#f160qbg5mlwn0c)" style="stroke:#A80036;stroke-width:1.5;"/><text fill="#000000" font-family="sans-serif" font-size="14" lengthAdjust="spacing" textLength="90" x="1286.5" y="104.2344">Department2</text><!--MD5=[effba16934f2b566cf5b5c0217e8c2fd]
entity Department3--><ellipse cx="703.5" cy="35.1992" fill="#FEFECE" filter="url(#f160qbg5mlwn0c)" rx="8" ry="8" style="stroke:#A80036;stroke-width:1.5;"/><path d="M703.5,43.1992 L703.5,70.1992 M690.5,51.1992 L716.5,51.1992 M703.5,70.1992 L690.5,85.1992 M703.5,70.1992 L716.5,85.1992 " fill="none" filter="url(#f160qbg5mlwn0c)" style="stroke:#A80036;stroke-width:1.5;"/><text fill="#000000" font-family="sans-serif" font-size="14" lengthAdjust="spacing" textLength="90" x="658.5" y="104.2344">Department3</text><!--MD5=[e72218784f6c4e68f81900e21f1fe304]
entity Department4--><ellipse cx="159.5" cy="35.1992" fill="#FEFECE" filter="url(#f160qbg5mlwn0c)" rx="8" ry="8" style="stroke:#A80036;stroke-width:1.5;"/><path d="M159.5,43.1992 L159.5,70.1992 M146.5,51.1992 L172.5,51.1992 M159.5,70.1992 L146.5,85.1992 M159.5,70.1992 L172.5,85.1992 " fill="none" filter="url(#f160qbg5mlwn0c)" style="stroke:#A80036;stroke-width:1.5;"/><text fill="#000000" font-family="sans-serif" font-size="14" lengthAdjust="spacing" textLength="90" x="114.5" y="104.2344">Department4</text><!--MD5=[4efd8c4d01c7f0e30e2e75ca12a64810]
entity Contractor1--><ellipse cx="881.5" cy="35.1992" fill="#FEFECE" filter="url(#f160qbg5mlwn0c)" rx="8" ry="8" style="stroke:#A80036;stroke-width:1.5;"/><path d="M881.5,43.1992 L881.5,70.1992 M868.5,51.1992 L894.5,51.1992 M881.5,70.1992 L868.5,85.1992 M881.5,70.1992 L894.5,85.1992 " fill="none" filter="url(#f160qbg5mlwn0c)" style="stroke:#A80036;stroke-width:1.5;"/><text fill="#000000" font-family="sans-serif" font-size="14" lengthAdjust="spacing" textLength="83" x="840" y="104.2344">Contractor1</text><!--MD5=[815a6dda1c991b44d7bef044b2a53868]
entity Contractor2--><ellipse cx="1564.5" cy="35.1992" fill="#FEFECE" filter="url(#f160qbg5mlwn0c)" rx="8" ry="8" style="stroke:#A80036;stroke-width:1.5;"/><path d="M1564.5,43.1992 L1564.5,70.1992 M1551.5,51.1992 L1577.5,51.1992 M1564.5,70.1992 L1551.5,85.1992 M1564.5,70.1992 L1577.5,85.1992 " fill="none" filter="url(#f160qbg5mlwn0c)" style="stroke:#A80036;stroke-width:1.5;"/><text fill="#000000" font-family="sans-serif" font-size="14" lengthAdjust="spacing" textLength="83" x="1523" y="104.2344">Contractor2</text><!--MD5=[a9f34c33db1652e606685ca82bbcf071]
link Owner to Book--><path d="M23.5,112.2992 C22.94,125.6992 23.24,140.3592 25.5,153.6992 C33.045,198.2392 49.635,246.1742 64.5388,283.3717 C71.9906,301.9705 79.0209,317.8848 84.2883,329.3483 C84.6175,330.0647 84.9398,330.7638 85.2549,331.4451 C85.3337,331.6154 85.412,331.7846 85.4899,331.9527 " fill="none" id="Owner-Book" style="stroke:#A80036;stroke-width:1.0;"/><polygon fill="#A80036" points="85.4899,331.9527,85.336,322.105,83.3881,327.4159,78.0772,325.468,85.4899,331.9527" style="stroke:#A80036;stroke-width:1.0;"/><polygon fill="#A80036" points="23.77,107.0392,19.3381,115.8346,23.5274,112.0333,27.3287,116.2227,23.77,107.0392" style="stroke:#A80036;stroke-width:1.0;"/><text fill="#000000" font-family="sans-serif" font-size="13" lengthAdjust="spacing" textLength="89" x="26.5" y="150.2676">Can access all</text><!--MD5=[18c03aabb20bea02e0d198745263d564]
link Department4 to Book--><path d="M143.05,111.8192 C136.95,125.7992 129.33,140.9092 120.5,153.6992 C117.64,157.8392 114.66,157.1592 112.5,161.6992 C110.2956,166.3417 108.2906,171.1208 106.4687,176.002 C106.3548,176.3071 106.2417,176.6126 106.1292,176.9185 " fill="none" id="Department4-Book" style="stroke:#A80036;stroke-width:1.0;"/><polygon fill="#A80036" points="106.1292,176.9185,112.9889,169.8513,107.8544,172.2255,105.4802,167.091,106.1292,176.9185" style="stroke:#A80036;stroke-width:1.0;"/><polygon fill="#A80036" points="145.06,107.1292,137.8381,113.8258,143.0904,111.7249,145.1913,116.9772,145.06,107.1292" style="stroke:#A80036;stroke-width:1.0;"/><text fill="#000000" font-family="sans-serif" font-size="13" lengthAdjust="spacing" textLength="89" x="131.5" y="150.2676">Can access all</text><!--MD5=[6b308c48ef419031e88526d462df18d6]
link Department1 to Book.Chapter1--><path d="M433.95,111.3792 C443.07,127.5592 455.77,144.2192 472.5,153.6992 C490.4,163.8492 643.11,146.9892 657.5,161.6992 C664.6525,169.0117 668.5269,184.0505 670.3034,202.5698 C671.1917,211.8295 671.5555,221.9594 671.5425,232.4287 C671.5408,233.7373 671.5333,235.0513 671.5202,236.3695 " fill="none" id="Department1-Book.Chapter1" style="stroke:#A80036;stroke-width:1.0;"/><polygon fill="#A80036" points="671.5202,236.3695,675.6096,227.4098,671.57,231.3698,667.61,227.3302,671.5202,236.3695" style="stroke:#A80036;stroke-width:1.0;"/><polygon fill="#A80036" points="431.47,106.8292,432.2569,116.6466,433.8592,111.2214,439.2844,112.8238,431.47,106.8292" style="stroke:#A80036;stroke-width:1.0;"/><text fill="#000000" font-family="sans-serif" font-size="13" lengthAdjust="spacing" textLength="191" x="473.5" y="150.2676">Can access Chapter and below</text><!--MD5=[b408c7043472bec453289520f4b80d11]
link Contractor1 to Book.Chapter1.SubSection1--><path d="M879.56,111.9692 C879.21,120.1992 878.84,128.7092 878.5,136.6992 C876.515,183.0742 874.3025,235.1567 872.5675,276.093 C872.3506,281.21 872.1412,286.1529 871.9406,290.8887 C871.8905,292.0726 871.8409,293.2436 871.7919,294.4012 C871.7796,294.6906 871.7674,294.9791 871.7552,295.2668 " fill="none" id="Contractor1-Book.Chapter1.SubSection1" style="stroke:#A80036;stroke-width:1.0;"/><polygon fill="#A80036" points="871.7552,295.2668,876.1324,286.4441,871.9668,290.2713,868.1396,286.1056,871.7552,295.2668" style="stroke:#A80036;stroke-width:1.0;"/><polygon fill="#A80036" points="879.78,106.8892,875.3972,115.7092,879.5653,111.8846,883.3898,116.0527,879.78,106.8892" style="stroke:#A80036;stroke-width:1.0;"/><text fill="#000000" font-family="sans-serif" font-size="13" lengthAdjust="spacing" textLength="175" x="879.5" y="150.2676">Can access only the section</text><!--MD5=[ed8522bd2dd7ac54981f09854beeaf54]
link Department2 to Book.Chapter2--><path d="M1321.65,111.6192 C1315.84,127.4692 1306.72,143.8192 1292.5,153.6992 C1270.73,168.8192 1192.56,143.2792 1173.5,161.6992 C1143.935,190.2742 1138.87,236.0217 1141.35,275.1155 C1141.97,284.8889 1143.0616,294.2465 1144.3598,302.8159 C1145.0089,307.1006 1145.7096,311.1883 1146.4289,315.0324 " fill="none" id="Department2-Book.Chapter2" style="stroke:#A80036;stroke-width:1.0;"/><polygon fill="#A80036" points="1146.4289,315.0324,1148.7054,305.4503,1145.5093,310.1177,1140.8418,306.9217,1146.4289,315.0324" style="stroke:#A80036;stroke-width:1.0;"/><polygon fill="#A80036" points="1323.35,106.7292,1316.6179,113.918,1321.7091,111.4523,1324.1748,116.5435,1323.35,106.7292" style="stroke:#A80036;stroke-width:1.0;"/><text fill="#000000" font-family="sans-serif" font-size="13" lengthAdjust="spacing" textLength="191" x="1308.5" y="150.2676">Can access Chapter and below</text><!--MD5=[c6b95d8ce1edfee335a32f2da51baf9d]
link Contractor2 to Book.Chapter2.SubSection1--><path d="M1546.22,111.6092 C1537.29,127.6292 1524.87,144.1192 1508.5,153.6992 C1484.1,167.9892 1401.88,142.0892 1381.5,161.6992 C1366.685,175.9542 1361.85,221.4767 1360.76,264.0355 C1360.4875,274.6752 1360.4491,285.1296 1360.5473,294.864 " fill="none" id="Contractor2-Book.Chapter2.SubSection1" style="stroke:#A80036;stroke-width:1.0;"/><polygon fill="#A80036" points="1360.5473,294.864,1364.4563,285.8241,1360.4968,289.8642,1356.4567,285.9048,1360.5473,294.864" style="stroke:#A80036;stroke-width:1.0;"/><polygon fill="#A80036" points="1548.64,107.1092,1540.8489,113.134,1546.2678,111.5107,1547.8912,116.9296,1548.64,107.1092" style="stroke:#A80036;stroke-width:1.0;"/><text fill="#000000" font-family="sans-serif" font-size="13" lengthAdjust="spacing" textLength="175" x="1528.5" y="150.2676">Can access only the section</text><!--MD5=[39a7352f6c1662f7468f41a95b664655]
link Department3 to Book.Chapter1--><path d="M683.86,111.9792 C680.95,120.0792 678.33,128.5392 676.5,136.6992 C671.415,159.3817 667.9244,183.7392 665.5514,207.5736 C664.9582,213.5322 664.4348,219.4581 663.9738,225.3169 C663.7433,228.2464 663.5284,231.159 663.3282,234.0507 C663.2781,234.7736 663.229,235.4951 663.1808,236.2154 " fill="none" id="Department3-Book.Chapter1" style="stroke:#A80036;stroke-width:1.0;"/><polygon fill="#A80036" points="663.1808,236.2154,667.7732,227.5028,663.5149,231.2265,659.7911,226.9682,663.1808,236.2154" style="stroke:#A80036;stroke-width:1.0;"/><polygon fill="#A80036" points="685.7,106.9892,678.8323,114.0486,683.9695,111.6802,686.3379,116.8174,685.7,106.9892" style="stroke:#A80036;stroke-width:1.0;"/><text fill="#000000" font-family="sans-serif" font-size="13" lengthAdjust="spacing" textLength="191" x="677.5" y="150.2676">Can access Chapter and below</text><!--MD5=[1739cd53cbc7b07bf6f0ef22597e9c30]
link Department3 to Book.Chapter2--><path d="M753.66,86.2592 C774.67,93.6092 799.51,101.4792 822.5,106.6992 C874.27,118.4492 1016.85,105.0892 1059.5,136.6992 C1100.33,166.9542 1123.9825,218.7842 1137.475,263.6217 C1140.8481,274.8311 1143.5863,285.6034 1145.799,295.4924 C1145.9373,296.1104 1146.0736,296.7251 1146.2078,297.3361 C1146.2749,297.6416 1146.3415,297.9463 1146.4076,298.25 " fill="none" id="Department3-Book.Chapter2" style="stroke:#A80036;stroke-width:1.0;"/><polygon fill="#A80036" points="1146.4076,298.25,1148.4022,288.6052,1145.3443,293.3643,1140.5852,290.3064,1146.4076,298.25" style="stroke:#A80036;stroke-width:1.0;"/><polygon fill="#A80036" points="748.68,84.4992,755.8442,91.2575,753.3971,86.1573,758.4972,83.7102,748.68,84.4992" style="stroke:#A80036;stroke-width:1.0;"/><text fill="#000000" font-family="sans-serif" font-size="13" lengthAdjust="spacing" textLength="191" x="1078.5" y="150.2676">Can access Chapter and below</text><!--MD5=[43744d6bee2ce2691fc952ab436890f8]
link Book.toc to Book.text1--><!--MD5=[becfa6b01ec233c6da09afcc7f6c2fb1]
link Book.text1 to Book.glossary--><!--MD5=[e8ae5e91b6be0b92daffe019812193c7]
link Book.toc to Book.copyright--><!--MD5=[8852a7f6a10a3959c56c8051f7d4ddd1]
link Book.copyright to Book.notation--><text fill="#888888" font-family="sans-serif" font-size="10" lengthAdjust="spacing" textLength="184" x="757.25" y="541.3672">(C) 2021 VSR - Author Sean Donnellan</text><!--MD5=[3186a487904d1b1e14c9a6e34b5a7f8c]
@startuml
title Asciidoc document structure with granular access
footer (C) 2021 VSR - Author Sean Donnellan
skinparam BackgroundColor #fff/aaf
skinparam CardBackgroundColor #fff/green

folder Book {
    card "Table of Contents" as Book.toc
    card "text and includes" as Book.text1
    folder Chapter as Book.Chapter1 {
        card "text and includes" as Book.Chapter1.text1
        folder SubSection as Book.Chapter1.SubSection1 {
            card "text and includes" as Book.Chapter1.SubSection1.text1
        }
    }
    folder Chapter as Book.Chapter2 {
        card "text and includes" as Book.Chapter2.text1
        folder SubSection as Book.Chapter2.SubSection1 {
            card "text and includes" as Book.Chapter2.SubSection1.text1
        }
    }
    card "appendix Glossary" as Book.glossary
    card "appendix Copyrights" as Book.copyright
    card "appendix Notation" as Book.notation    
}

actor Owner
actor Department1
actor Department2
actor Department3
actor Department4
actor Contractor1
actor Contractor2

Owner <- -> Book : Can access all
Department4 <- -> Book : Can access all
Department1 <- -> Book.Chapter1 : Can access Chapter and below
Contractor1 <- -> Book.Chapter1.SubSection1 : Can access only the section
Department2 <- -> Book.Chapter2 : Can access Chapter and below
Contractor2 <- -> Book.Chapter2.SubSection1 : Can access only the section
Department3 <- -> Book.Chapter1 : Can access Chapter and below
Department3 <- -> Book.Chapter2 : Can access Chapter and below

@enduml

PlantUML version 1.2021.10(Mon Aug 30 15:43:48 CEST 2021)
(GPL source distribution)
Java Runtime: OpenJDK Runtime Environment
JVM: OpenJDK 64-Bit Server VM
Default Encoding: UTF-8
Language: en
Country: GB
--></g></svg>