<?xml version="1.0" encoding="UTF-8" standalone="no"?><svg xmlns="http://www.w3.org/2000/svg" xmlns:xlink="http://www.w3.org/1999/xlink" contentScriptType="application/ecmascript" contentStyleType="text/css" height="792px" preserveAspectRatio="none" style="width:429px;height:792px;background:#FFFFFF;" version="1.1" viewBox="0 0 429 792" width="429px" zoomAndPan="magnify"><defs><linearGradient id="g2nxqt8p9tmk80" x1="0%" x2="100%" y1="0%" y2="100%"><stop offset="0%" stop-color="#FFFFFF"/><stop offset="100%" stop-color="#BBBBEE"/></linearGradient><filter height="300%" id="f2nxqt8p9tmk8" width="300%" x="-1" y="-1"><feGaussianBlur result="blurOut" stdDeviation="2.0"/><feColorMatrix in="blurOut" result="blurOut2" type="matrix" values="0 0 0 0 0 0 0 0 0 0 0 0 0 0 0 0 0 0 .4 0"/><feOffset dx="4.0" dy="4.0" in="blurOut2" result="blurOut3"/><feBlend in="SourceGraphic" in2="blurOut3" mode="normal"/></filter></defs><g><rect fill="url(#g2nxqt8p9tmk80)" height="792" style="stroke:none;stroke-width:1.0;" width="429" x="0" y="0"/><text fill="#000000" font-family="sans-serif" font-size="18" lengthAdjust="spacing" textLength="214" x="101.3952" y="17.4023">Structured cabling layers</text><ellipse cx="150.3909" cy="41.8582" fill="url(#g2nxqt8p9tmk80)" filter="url(#f2nxqt8p9tmk8)" rx="41.8909" ry="14.659" style="stroke:#A80036;stroke-width:1.5;"/><text fill="#000000" font-family="sans-serif" font-size="14" lengthAdjust="spacing" textLength="43" x="128.8909" y="45.1492">Server</text><ellipse cx="150.3952" cy="157.2783" fill="url(#g2nxqt8p9tmk80)" filter="url(#f2nxqt8p9tmk8)" rx="108.3952" ry="24.079" style="stroke:#A80036;stroke-width:1.5;"/><text fill="#000000" font-family="sans-serif" font-size="14" lengthAdjust="spacing" textLength="182" x="59.3952" y="160.5693">Structured Cabling Layer 1</text><ellipse cx="69.4325" cy="273.2857" fill="url(#g2nxqt8p9tmk80)" filter="url(#f2nxqt8p9tmk8)" rx="63.4325" ry="15.0865" style="stroke:#A80036;stroke-width:1.5;"/><text fill="#000000" font-family="sans-serif" font-size="14" lengthAdjust="spacing" textLength="75" x="28.9325" y="277.3033">LAN Switch</text><ellipse cx="232.2687" cy="273.353" fill="url(#g2nxqt8p9tmk80)" filter="url(#f2nxqt8p9tmk8)" rx="63.7687" ry="15.1537" style="stroke:#A80036;stroke-width:1.5;"/><text fill="#000000" font-family="sans-serif" font-size="14" lengthAdjust="spacing" textLength="76" x="191.2687" y="277.3705">SAN Switch</text><ellipse cx="150.3952" cy="389.2783" fill="url(#g2nxqt8p9tmk80)" filter="url(#f2nxqt8p9tmk8)" rx="108.3952" ry="24.079" style="stroke:#A80036;stroke-width:1.5;"/><text fill="#000000" font-family="sans-serif" font-size="14" lengthAdjust="spacing" textLength="182" x="59.3952" y="392.5693">Structured Cabling Layer 2</text><ellipse cx="116.2687" cy="511.353" fill="url(#g2nxqt8p9tmk80)" filter="url(#f2nxqt8p9tmk8)" rx="63.7687" ry="15.1537" style="stroke:#A80036;stroke-width:1.5;"/><text fill="#000000" font-family="sans-serif" font-size="14" lengthAdjust="spacing" textLength="76" x="75.2687" y="515.3705">SAN Device</text><ellipse cx="309.44" cy="511.2872" fill="url(#g2nxqt8p9tmk80)" filter="url(#f2nxqt8p9tmk8)" rx="93.44" ry="21.088" style="stroke:#A80036;stroke-width:1.5;"/><text fill="#000000" font-family="sans-serif" font-size="14" lengthAdjust="spacing" textLength="149" x="234.94" y="514.5782">LAN Device router/FW</text><ellipse cx="309.3952" cy="633.2783" fill="url(#g2nxqt8p9tmk80)" filter="url(#f2nxqt8p9tmk8)" rx="108.3952" ry="24.079" style="stroke:#A80036;stroke-width:1.5;"/><text fill="#000000" font-family="sans-serif" font-size="14" lengthAdjust="spacing" textLength="182" x="218.3952" y="636.5693">Structured Cabling Layer 3</text><ellipse cx="309.5624" cy="748.8582" fill="url(#g2nxqt8p9tmk80)" filter="url(#f2nxqt8p9tmk8)" rx="39.0624" ry="14.659" style="stroke:#A80036;stroke-width:1.5;"/><text fill="#000000" font-family="sans-serif" font-size="14" lengthAdjust="spacing" textLength="39" x="290.0624" y="752.1492">ETC...</text><!--MD5=[f8765b45722917534dd0044be62f742d]
link Server to Structured Cabling Layer 1--><path d="M134.85,55.2492 C122.36,66.8892 107.81,85.1092 113.5,103.1992 C116.4,112.4092 121.53,121.4192 127.06,129.3192 " fill="none" id="Server-to-Structured Cabling Layer 1" style="stroke:#0000FF;stroke-width:1.0;"/><polygon fill="#0000FF" points="130.17,133.5892,128.1074,123.9588,127.2274,129.5468,121.6394,128.6669,130.17,133.5892" style="stroke:#0000FF;stroke-width:1.0;"/><text fill="#000000" font-family="sans-serif" font-size="13" lengthAdjust="spacing" textLength="26" x="114.5" y="99.7676">LAN</text><!--MD5=[f8765b45722917534dd0044be62f742d]
link Server to Structured Cabling Layer 1--><path d="M150.5,56.6192 C150.5,74.3392 150.5,105.3792 150.5,128.1092 " fill="none" id="Server-to-Structured Cabling Layer 1-1" style="stroke:#008000;stroke-width:1.0;"/><polygon fill="#008000" points="150.5,133.1092,154.5,124.1092,150.5,128.1092,146.5,124.1092,150.5,133.1092" style="stroke:#008000;stroke-width:1.0;"/><text fill="#000000" font-family="sans-serif" font-size="13" lengthAdjust="spacing" textLength="26" x="151.5" y="99.7676">SAN</text><!--MD5=[4ce28a1c1eeb0d006d19ab368de7b1f8]
link Structured Cabling Layer 1 to LAN Switch--><path d="M134.3,180.9992 C119.11,202.3792 96.67,233.9592 82.58,253.7892 " fill="none" id="Structured Cabling Layer 1-to-LAN Switch" style="stroke:#0000FF;stroke-width:1.0;"/><polygon fill="#0000FF" points="79.54,258.0792,88.0077,253.0495,82.4313,253.9999,81.4809,248.4235,79.54,258.0792" style="stroke:#0000FF;stroke-width:1.0;"/><text fill="#000000" font-family="sans-serif" font-size="13" lengthAdjust="spacing" textLength="26" x="113.5" y="224.7676">LAN</text><!--MD5=[c6973b7ca9cfa06bb231b8481a3aa22d]
link Structured Cabling Layer 1 to SAN Switch--><path d="M166.9,180.9992 C182.28,202.3792 204.99,233.9592 219.26,253.7892 " fill="none" id="Structured Cabling Layer 1-to-SAN Switch" style="stroke:#008000;stroke-width:1.0;"/><polygon fill="#008000" points="222.34,258.0792,220.3158,248.4406,219.4136,254.0251,213.8291,253.1229,222.34,258.0792" style="stroke:#008000;stroke-width:1.0;"/><text fill="#000000" font-family="sans-serif" font-size="13" lengthAdjust="spacing" textLength="26" x="200.5" y="224.7676">SAN</text><!--MD5=[f44e20c833be8eddb72d31a5ce8992c6]
link SAN Switch to Structured Cabling Layer 2--><path d="M222.45,288.1792 C209.4,306.3092 186.37,338.3392 169.87,361.2692 " fill="none" id="SAN Switch-to-Structured Cabling Layer 2" style="stroke:#008000;stroke-width:1.0;"/><polygon fill="#008000" points="166.87,365.4392,175.3693,360.4632,169.787,361.3783,168.8719,355.796,166.87,365.4392" style="stroke:#008000;stroke-width:1.0;"/><text fill="#000000" font-family="sans-serif" font-size="13" lengthAdjust="spacing" textLength="26" x="200.5" y="331.7676">SAN</text><!--MD5=[b3be9e02cb6797a3cdd4ca2831e4cec8]
link LAN Switch to Structured Cabling Layer 2--><path d="M79.43,288.1792 C92.32,306.3092 115.07,338.3392 131.36,361.2692 " fill="none" id="LAN Switch-to-Structured Cabling Layer 2" style="stroke:#0000FF;stroke-width:1.0;"/><polygon fill="#0000FF" points="134.33,365.4392,132.3826,355.7848,131.436,361.3619,125.8589,360.4153,134.33,365.4392" style="stroke:#0000FF;stroke-width:1.0;"/><text fill="#000000" font-family="sans-serif" font-size="13" lengthAdjust="spacing" textLength="26" x="113.5" y="331.7676">LAN</text><!--MD5=[f4e1f3a9d551219a588b19fad307433b]
link Structured Cabling Layer 2 to SAN Device--><path d="M143.94,413.3392 C137.54,435.9392 127.91,469.9392 121.92,491.0592 " fill="none" id="Structured Cabling Layer 2-to-SAN Device" style="stroke:#008000;stroke-width:1.0;"/><polygon fill="#008000" points="120.48,496.1392,126.7927,488.5794,121.8498,491.3305,119.0987,486.3877,120.48,496.1392" style="stroke:#008000;stroke-width:1.0;"/><text fill="#000000" font-family="sans-serif" font-size="13" lengthAdjust="spacing" textLength="26" x="136.5" y="456.7676">SAN</text><!--MD5=[65e25cfc52889fc26d73286281f38b5c]
link Structured Cabling Layer 2 to LAN Device router/FW--><path d="M180.03,412.4892 C208.45,433.9392 251.2,466.1992 279.7,487.7092 " fill="none" id="Structured Cabling Layer 2-to-LAN Device router/FW" style="stroke:#0000FF;stroke-width:1.0;"/><polygon fill="#0000FF" points="283.8,490.8092,279.0345,482.1901,279.812,487.7932,274.2089,488.5708,283.8,490.8092" style="stroke:#0000FF;stroke-width:1.0;"/><text fill="#000000" font-family="sans-serif" font-size="13" lengthAdjust="spacing" textLength="26" x="240.5" y="456.7676">LAN</text><!--MD5=[a2a02f65a134791f68c08fd2ee9d3bbf]
link LAN Device router/FW to Structured Cabling Layer 3--><path d="M309.5,532.2892 C309.5,551.9292 309.5,582.0192 309.5,604.0392 " fill="none" id="LAN Device router/FW-to-Structured Cabling Layer 3" style="stroke:#0000FF;stroke-width:1.0;"/><polygon fill="#0000FF" points="309.5,609.1692,313.5,600.1692,309.5,604.1692,305.5,600.1692,309.5,609.1692" style="stroke:#0000FF;stroke-width:1.0;"/><text fill="#000000" font-family="sans-serif" font-size="13" lengthAdjust="spacing" textLength="26" x="310.5" y="575.7676">LAN</text><!--MD5=[ecdddfb64528627daa9e4935f0217f42]
link Structured Cabling Layer 3 to ETC...--><path d="M309.5,657.4392 C309.5,678.5492 309.5,709.2792 309.5,728.8792 " fill="none" id="Structured Cabling Layer 3-to-ETC..." style="stroke:#0000FF;stroke-width:1.0;"/><polygon fill="#0000FF" points="309.5,734.0992,313.5,725.0992,309.5,729.0992,305.5,725.0992,309.5,734.0992" style="stroke:#0000FF;stroke-width:1.0;"/><text fill="#000000" font-family="sans-serif" font-size="13" lengthAdjust="spacing" textLength="26" x="310.5" y="700.7676">LAN</text><text fill="#888888" font-family="sans-serif" font-size="10" lengthAdjust="spacing" textLength="115" x="150.8952" y="784.1851">(C)2021 Sean Donnellan</text><!--MD5=[2e363bfeacc5e8f9ab50bb3fdcb25a09]
@startuml
title Structured cabling layers
footer (C)2021 Sean Donnellan

skinparam BackgroundColor #fff/bbe
skinparam UsecaseBackgroundColor #fff/bbe

(Server) - -> (Structured Cabling Layer 1) #blue: LAN
(Server) - -> (Structured Cabling Layer 1) #green: SAN
(Structured Cabling Layer 1) - -> (LAN Switch)#blue: LAN
(Structured Cabling Layer 1) - -> (SAN Switch)#green: SAN
(SAN Switch) - -> (Structured Cabling Layer 2) #green: SAN
(LAN Switch) - -> (Structured Cabling Layer 2) #blue: LAN
(Structured Cabling Layer 2) - -> (SAN Device)#green: SAN
(Structured Cabling Layer 2) - -> (LAN Device router/FW)#blue: LAN
(LAN Device router/FW) - -> (Structured Cabling Layer 3)#blue:LAN
(Structured Cabling Layer 3) - -> (ETC...)#blue:LAN
@enduml

PlantUML version 1.2021.10(Mon Aug 30 15:43:48 CEST 2021)
(GPL source distribution)
Java Runtime: OpenJDK Runtime Environment
JVM: OpenJDK 64-Bit Server VM
Default Encoding: UTF-8
Language: en
Country: GB
--></g></svg>