<?xml version="1.0" encoding="UTF-8" standalone="no"?><svg xmlns="http://www.w3.org/2000/svg" xmlns:xlink="http://www.w3.org/1999/xlink" contentScriptType="application/ecmascript" contentStyleType="text/css" height="845px" preserveAspectRatio="none" style="width:1537px;height:845px;background:#FFFFFF;" version="1.1" viewBox="0 0 1537 845" width="1537px" zoomAndPan="magnify"><defs><linearGradient id="grv45bbtpktm80" x1="0%" x2="100%" y1="50%" y2="50%"><stop offset="0%" stop-color="#FFFFFF"/><stop offset="100%" stop-color="#AAAAFF"/></linearGradient><linearGradient id="grv45bbtpktm81" x1="0%" x2="100%" y1="50%" y2="50%"><stop offset="0%" stop-color="#FFA500"/><stop offset="100%" stop-color="#008000"/></linearGradient><linearGradient id="grv45bbtpktm82" x1="0%" x2="100%" y1="0%" y2="100%"><stop offset="0%" stop-color="#FFFFFF"/><stop offset="100%" stop-color="#AAAAFF"/></linearGradient><linearGradient id="grv45bbtpktm83" x1="0%" x2="100%" y1="100%" y2="0%"><stop offset="0%" stop-color="#AAAAFF"/><stop offset="100%" stop-color="#FFFFFF"/></linearGradient><linearGradient id="grv45bbtpktm84" x1="0%" x2="100%" y1="100%" y2="0%"><stop offset="0%" stop-color="#FFFFFF"/><stop offset="100%" stop-color="#AAAAFF"/></linearGradient></defs><g><rect fill="none" height="26.4883" style="stroke:none;stroke-width:1.0;" width="390" x="390.1" y="5"/><text fill="#000000" font-family="sans-serif" font-size="14" font-weight="bold" lengthAdjust="spacing" textLength="380" x="395.1" y="23.5352">Example High level GANTT for example agile project</text><rect fill="url(#grv45bbtpktm80)" height="29" style="stroke:none;stroke-width:1.0;" width="1171.2" x="0" y="37.4883"/><rect fill="#EEEEEE" height="635.8516" style="stroke:none;stroke-width:1.0;" width="60.8" x="0" y="66.4883"/><rect fill="#FA8072" height="635.8516" style="stroke:none;stroke-width:1.0;" width="3.2" x="60.8" y="66.4883"/><rect fill="#EEEEEE" height="635.8516" style="stroke:none;stroke-width:1.0;" width="35.2" x="64" y="66.4883"/><rect fill="#EEEEEE" height="635.8516" style="stroke:none;stroke-width:1.0;" width="99.2" x="188.8" y="66.4883"/><rect fill="#EEEEEE" height="635.8516" style="stroke:none;stroke-width:1.0;" width="99.2" x="384" y="66.4883"/><rect fill="#EEEEEE" height="635.8516" style="stroke:none;stroke-width:1.0;" width="99.2" x="579.2" y="66.4883"/><rect fill="#EEEEEE" height="635.8516" style="stroke:none;stroke-width:1.0;" width="96" x="777.6" y="66.4883"/><rect fill="#EEEEEE" height="635.8516" style="stroke:none;stroke-width:1.0;" width="96" x="972.8" y="66.4883"/><line style="stroke:#C0C0C0;stroke-width:1.0;" x1="0" x2="0" y1="37.4883" y2="52.4883"/><text fill="#000000" font-family="Serif" font-size="12" font-weight="bold" lengthAdjust="spacing" textLength="24" x="573.6" y="46.4883">2022</text><line style="stroke:#C0C0C0;stroke-width:1.0;" x1="1171.2" x2="1171.2" y1="37.4883" y2="52.4883"/><line style="stroke:#C0C0C0;stroke-width:1.0;" x1="0" x2="0" y1="53.4883" y2="65.4883"/><line style="stroke:#C0C0C0;stroke-width:1.0;" x1="99.2" x2="99.2" y1="53.4883" y2="65.4883"/><text fill="#000000" font-family="Serif" font-size="10" lengthAdjust="spacing" textLength="30" x="34.6" y="60.9883">January</text><line style="stroke:#C0C0C0;stroke-width:1.0;" x1="188.8" x2="188.8" y1="53.4883" y2="65.4883"/><text fill="#000000" font-family="Serif" font-size="10" lengthAdjust="spacing" textLength="35" x="126.5" y="60.9883">February</text><line style="stroke:#C0C0C0;stroke-width:1.0;" x1="288" x2="288" y1="53.4883" y2="65.4883"/><text fill="#000000" font-family="Serif" font-size="10" lengthAdjust="spacing" textLength="25" x="225.9" y="60.9883">March</text><line style="stroke:#C0C0C0;stroke-width:1.0;" x1="384" x2="384" y1="53.4883" y2="65.4883"/><text fill="#000000" font-family="Serif" font-size="10" lengthAdjust="spacing" textLength="21" x="325.5" y="60.9883">April</text><line style="stroke:#C0C0C0;stroke-width:1.0;" x1="483.2" x2="483.2" y1="53.4883" y2="65.4883"/><text fill="#000000" font-family="Serif" font-size="10" lengthAdjust="spacing" textLength="18" x="424.6" y="60.9883">May</text><line style="stroke:#C0C0C0;stroke-width:1.0;" x1="579.2" x2="579.2" y1="53.4883" y2="65.4883"/><text fill="#000000" font-family="Serif" font-size="10" lengthAdjust="spacing" textLength="18" x="522.2" y="60.9883">June</text><line style="stroke:#C0C0C0;stroke-width:1.0;" x1="678.4" x2="678.4" y1="53.4883" y2="65.4883"/><text fill="#000000" font-family="Serif" font-size="10" lengthAdjust="spacing" textLength="17" x="620.3" y="60.9883">July</text><line style="stroke:#C0C0C0;stroke-width:1.0;" x1="777.6" x2="777.6" y1="53.4883" y2="65.4883"/><text fill="#000000" font-family="Serif" font-size="10" lengthAdjust="spacing" textLength="29" x="713.5" y="60.9883">August</text><line style="stroke:#C0C0C0;stroke-width:1.0;" x1="873.6" x2="873.6" y1="53.4883" y2="65.4883"/><text fill="#000000" font-family="Serif" font-size="10" lengthAdjust="spacing" textLength="42" x="804.6" y="60.9883">September</text><line style="stroke:#C0C0C0;stroke-width:1.0;" x1="972.8" x2="972.8" y1="53.4883" y2="65.4883"/><text fill="#000000" font-family="Serif" font-size="10" lengthAdjust="spacing" textLength="31" x="907.7" y="60.9883">October</text><line style="stroke:#C0C0C0;stroke-width:1.0;" x1="1068.8" x2="1068.8" y1="53.4883" y2="65.4883"/><text fill="#000000" font-family="Serif" font-size="10" lengthAdjust="spacing" textLength="41" x="1000.3" y="60.9883">November</text><text fill="#000000" font-family="Serif" font-size="10" lengthAdjust="spacing" textLength="39" x="1100.5" y="60.9883">December</text><line style="stroke:#C0C0C0;stroke-width:1.0;" x1="1171.2" x2="1171.2" y1="53.4883" y2="65.4883"/><line style="stroke:#C0C0C0;stroke-width:1.0;" x1="0" x2="1171.2" y1="37.4883" y2="37.4883"/><line style="stroke:#C0C0C0;stroke-width:1.0;" x1="0" x2="1171.2" y1="53.4883" y2="53.4883"/><line style="stroke:#C0C0C0;stroke-width:1.0;" x1="0" x2="1171.2" y1="66.4883" y2="66.4883"/><line style="stroke:#A9A9A9;stroke-width:2.0;" x1="23" x2="23" y1="128.5313" y2="143.1309"/><line style="stroke:#A9A9A9;stroke-width:2.0;" x1="23" x2="31" y1="143.1309" y2="143.1309"/><polygon fill="#A9A9A9" points="27,139.1309,27,143.1309,27,147.1309,31,143.1309" style="stroke:#A9A9A9;stroke-width:1.5;"/><line style="stroke:#A9A9A9;stroke-width:2.0;" x1="87" x2="87" y1="153.7305" y2="168.3301"/><line style="stroke:#A9A9A9;stroke-width:2.0;" x1="87" x2="95" y1="168.3301" y2="168.3301"/><polygon fill="#A9A9A9" points="91,164.3301,91,168.3301,91,172.3301,95,168.3301" style="stroke:#A9A9A9;stroke-width:1.5;"/><line style="stroke:#A9A9A9;stroke-width:2.0;" x1="183" x2="183" y1="178.9297" y2="193.5293"/><line style="stroke:#A9A9A9;stroke-width:2.0;" x1="183" x2="191" y1="193.5293" y2="193.5293"/><polygon fill="#A9A9A9" points="187,189.5293,187,193.5293,187,197.5293,191,193.5293" style="stroke:#A9A9A9;stroke-width:1.5;"/><line style="stroke:#A9A9A9;stroke-width:2.0;" x1="279" x2="279" y1="204.1289" y2="218.7285"/><line style="stroke:#A9A9A9;stroke-width:2.0;" x1="279" x2="287" y1="218.7285" y2="218.7285"/><polygon fill="#A9A9A9" points="283,214.7285,283,218.7285,283,222.7285,287,218.7285" style="stroke:#A9A9A9;stroke-width:1.5;"/><line style="stroke:#A9A9A9;stroke-width:2.0;" x1="375" x2="375" y1="229.3281" y2="243.9277"/><line style="stroke:#A9A9A9;stroke-width:2.0;" x1="375" x2="383" y1="243.9277" y2="243.9277"/><polygon fill="#A9A9A9" points="379,239.9277,379,243.9277,379,247.9277,383,243.9277" style="stroke:#A9A9A9;stroke-width:1.5;"/><line style="stroke:#A9A9A9;stroke-width:2.0;" x1="471" x2="471" y1="254.5273" y2="269.127"/><line style="stroke:#A9A9A9;stroke-width:2.0;" x1="471" x2="479" y1="269.127" y2="269.127"/><polygon fill="#A9A9A9" points="475,265.127,475,269.127,475,273.127,479,269.127" style="stroke:#A9A9A9;stroke-width:1.5;"/><line style="stroke:#A9A9A9;stroke-width:2.0;" x1="575" x2="581" y1="269.127" y2="269.127"/><line style="stroke:#A9A9A9;stroke-width:2.0;" x1="581" x2="581" y1="269.127" y2="385.9453"/><line style="stroke:#A9A9A9;stroke-width:2.0;" x1="581" x2="549.4" y1="385.9453" y2="385.9453"/><line style="stroke:#A9A9A9;stroke-width:2.0;" x1="549.4" x2="549.4" y1="385.9453" y2="399.9453"/><line style="stroke:#A9A9A9;stroke-width:2.0;" x1="549.4" x2="557.4" y1="399.9453" y2="399.9453"/><polygon fill="#A9A9A9" points="553.4,395.9453,553.4,399.9453,553.4,403.9453,557.4,399.9453" style="stroke:#A9A9A9;stroke-width:1.5;"/><line style="stroke:#A9A9A9;stroke-width:2.0;" x1="573.4" x2="573.4" y1="411.9453" y2="454.5449"/><line style="stroke:#A9A9A9;stroke-width:2.0;" x1="573.4" x2="581.4" y1="454.5449" y2="454.5449"/><polygon fill="#A9A9A9" points="577.4,450.5449,577.4,454.5449,577.4,458.5449,581.4,454.5449" style="stroke:#A9A9A9;stroke-width:1.5;"/><line style="stroke:#A9A9A9;stroke-width:2.0;" x1="573.4" x2="573.4" y1="411.9453" y2="479.7441"/><line style="stroke:#A9A9A9;stroke-width:2.0;" x1="573.4" x2="581.4" y1="479.7441" y2="479.7441"/><polygon fill="#A9A9A9" points="577.4,475.7441,577.4,479.7441,577.4,483.7441,581.4,479.7441" style="stroke:#A9A9A9;stroke-width:1.5;"/><line style="stroke:#A9A9A9;stroke-width:2.0;" x1="637.4" x2="637.4" y1="465.1445" y2="504.9434"/><line style="stroke:#A9A9A9;stroke-width:2.0;" x1="637.4" x2="645.4" y1="504.9434" y2="504.9434"/><polygon fill="#A9A9A9" points="641.4,500.9434,641.4,504.9434,641.4,508.9434,645.4,504.9434" style="stroke:#A9A9A9;stroke-width:1.5;"/><line style="stroke:#A9A9A9;stroke-width:2.0;" x1="740.8" x2="740.8" y1="515.543" y2="531.543"/><line style="stroke:#A9A9A9;stroke-width:2.0;" x1="740.8" x2="755.8" y1="531.543" y2="531.543"/><polygon fill="#A9A9A9" points="751.8,527.543,751.8,531.543,751.8,535.543,755.8,531.543" style="stroke:#A9A9A9;stroke-width:1.5;"/><line style="stroke:#A9A9A9;stroke-width:2.0;" x1="771.8" x2="771.8" y1="543.543" y2="558.1426"/><line style="stroke:#A9A9A9;stroke-width:2.0;" x1="771.8" x2="779.8" y1="558.1426" y2="558.1426"/><polygon fill="#A9A9A9" points="775.8,554.1426,775.8,558.1426,775.8,562.1426,779.8,558.1426" style="stroke:#A9A9A9;stroke-width:1.5;"/><line style="stroke:#A9A9A9;stroke-width:2.0;" x1="867.8" x2="867.8" y1="568.7422" y2="583.3418"/><line style="stroke:#A9A9A9;stroke-width:2.0;" x1="867.8" x2="875.8" y1="583.3418" y2="583.3418"/><polygon fill="#A9A9A9" points="871.8,579.3418,871.8,583.3418,871.8,587.3418,875.8,583.3418" style="stroke:#A9A9A9;stroke-width:1.5;"/><line style="stroke:#A9A9A9;stroke-width:2.0;" x1="944.6" x2="944.6" y1="593.9414" y2="608.541"/><line style="stroke:#A9A9A9;stroke-width:2.0;" x1="944.6" x2="952.6" y1="608.541" y2="608.541"/><polygon fill="#A9A9A9" points="948.6,604.541,948.6,608.541,948.6,612.541,952.6,608.541" style="stroke:#A9A9A9;stroke-width:1.5;"/><line style="stroke:#A9A9A9;stroke-width:2.0;" x1="1048.6" x2="1054.6" y1="608.541" y2="608.541"/><line style="stroke:#A9A9A9;stroke-width:2.0;" x1="1054.6" x2="1054.6" y1="608.541" y2="621.1406"/><line style="stroke:#A9A9A9;stroke-width:2.0;" x1="1054.6" x2="1039" y1="621.1406" y2="621.1406"/><line style="stroke:#A9A9A9;stroke-width:2.0;" x1="1039" x2="1039" y1="621.1406" y2="635.1406"/><line style="stroke:#A9A9A9;stroke-width:2.0;" x1="1039" x2="1047" y1="635.1406" y2="635.1406"/><polygon fill="#A9A9A9" points="1043,631.1406,1043,635.1406,1043,639.1406,1047,635.1406" style="stroke:#A9A9A9;stroke-width:1.5;"/><line style="stroke:#A9A9A9;stroke-width:2.0;" x1="1063" x2="1063" y1="647.1406" y2="661.7402"/><line style="stroke:#A9A9A9;stroke-width:2.0;" x1="1063" x2="1071" y1="661.7402" y2="661.7402"/><polygon fill="#A9A9A9" points="1067,657.7402,1067,661.7402,1067,665.7402,1071,661.7402" style="stroke:#A9A9A9;stroke-width:1.5;"/><line style="stroke:#A9A9A9;stroke-width:2.0;" x1="1167" x2="1173" y1="661.7402" y2="661.7402"/><line style="stroke:#A9A9A9;stroke-width:2.0;" x1="1173" x2="1173" y1="661.7402" y2="674.3398"/><line style="stroke:#A9A9A9;stroke-width:2.0;" x1="1173" x2="1138.2" y1="674.3398" y2="674.3398"/><line style="stroke:#A9A9A9;stroke-width:2.0;" x1="1138.2" x2="1138.2" y1="674.3398" y2="688.3398"/><line style="stroke:#A9A9A9;stroke-width:2.0;" x1="1138.2" x2="1146.2" y1="688.3398" y2="688.3398"/><polygon fill="#A9A9A9" points="1142.2,684.3398,1142.2,688.3398,1142.2,692.3398,1146.2,688.3398" style="stroke:#A9A9A9;stroke-width:1.5;"/><rect fill="url(#grv45bbtpktm81)" height="28.8438" style="stroke:none;stroke-width:1.0;" width="1171.2" x="0" y="71.4883"/><line style="stroke:#0000FF;stroke-width:1.0;" x1="0" x2="5" y1="85.9102" y2="85.9102"/><line style="stroke:#0000FF;stroke-width:1.0;" x1="101" x2="1170.2" y1="85.9102" y2="85.9102"/><rect fill="#008000" height="21.1992" style="stroke:none;stroke-width:1.0;" width="28" x="2" y="107.332"/><line style="stroke:#008000;stroke-width:1.0;" x1="2" x2="30" y1="107.332" y2="107.332"/><line style="stroke:#008000;stroke-width:1.0;" x1="2" x2="30" y1="128.5313" y2="128.5313"/><line style="stroke:#008000;stroke-width:1.0;" x1="2" x2="2" y1="107.332" y2="128.5313"/><line style="stroke:#008000;stroke-width:1.0;" x1="30" x2="30" y1="107.332" y2="128.5313"/><rect fill="#008000" height="21.1992" style="stroke:none;stroke-width:1.0;" width="30" x="34" y="132.5313"/><rect fill="#FFFFFF" height="21.1992" style="stroke:none;stroke-width:1.0;" width="30" x="64" y="132.5313"/><line style="stroke:#008000;stroke-width:1.0;" x1="34" x2="94" y1="132.5313" y2="132.5313"/><line style="stroke:#008000;stroke-width:1.0;" x1="34" x2="94" y1="153.7305" y2="153.7305"/><line style="stroke:#008000;stroke-width:1.0;" x1="34" x2="34" y1="132.5313" y2="153.7305"/><line style="stroke:#008000;stroke-width:1.0;" x1="94" x2="94" y1="132.5313" y2="153.7305"/><rect fill="url(#grv45bbtpktm81)" height="21.1992" style="stroke:none;stroke-width:1.0;" width="92" x="98" y="157.7305"/><line style="stroke:#FF0000;stroke-width:1.0;" x1="98" x2="190" y1="157.7305" y2="157.7305"/><line style="stroke:#FF0000;stroke-width:1.0;" x1="98" x2="190" y1="178.9297" y2="178.9297"/><line style="stroke:#FF0000;stroke-width:1.0;" x1="98" x2="98" y1="157.7305" y2="178.9297"/><line style="stroke:#FF0000;stroke-width:1.0;" x1="190" x2="190" y1="157.7305" y2="178.9297"/><rect fill="url(#grv45bbtpktm81)" height="21.1992" style="stroke:none;stroke-width:1.0;" width="92" x="194" y="182.9297"/><line style="stroke:#FF0000;stroke-width:1.0;" x1="194" x2="286" y1="182.9297" y2="182.9297"/><line style="stroke:#FF0000;stroke-width:1.0;" x1="194" x2="286" y1="204.1289" y2="204.1289"/><line style="stroke:#FF0000;stroke-width:1.0;" x1="194" x2="194" y1="182.9297" y2="204.1289"/><line style="stroke:#FF0000;stroke-width:1.0;" x1="286" x2="286" y1="182.9297" y2="204.1289"/><rect fill="url(#grv45bbtpktm81)" height="21.1992" style="stroke:none;stroke-width:1.0;" width="92" x="290" y="208.1289"/><line style="stroke:#FF0000;stroke-width:1.0;" x1="290" x2="382" y1="208.1289" y2="208.1289"/><line style="stroke:#FF0000;stroke-width:1.0;" x1="290" x2="382" y1="229.3281" y2="229.3281"/><line style="stroke:#FF0000;stroke-width:1.0;" x1="290" x2="290" y1="208.1289" y2="229.3281"/><line style="stroke:#FF0000;stroke-width:1.0;" x1="382" x2="382" y1="208.1289" y2="229.3281"/><rect fill="url(#grv45bbtpktm81)" height="21.1992" style="stroke:none;stroke-width:1.0;" width="92" x="386" y="233.3281"/><line style="stroke:#FF0000;stroke-width:1.0;" x1="386" x2="478" y1="233.3281" y2="233.3281"/><line style="stroke:#FF0000;stroke-width:1.0;" x1="386" x2="478" y1="254.5273" y2="254.5273"/><line style="stroke:#FF0000;stroke-width:1.0;" x1="386" x2="386" y1="233.3281" y2="254.5273"/><line style="stroke:#FF0000;stroke-width:1.0;" x1="478" x2="478" y1="233.3281" y2="254.5273"/><path d="M480,281.7266 L480,385.9453 L680,385.9453 L680,291.7266 L670,281.7266 L480,281.7266 " fill="#FBFB77" style="stroke:#FFA500;stroke-width:1.0;"/><path d="M670,281.7266 L670,291.7266 L680,291.7266 L670,281.7266 " fill="#FBFB77" style="stroke:#FFA500;stroke-width:1.0;"/><text fill="#000000" font-family="sans-serif" font-size="10" lengthAdjust="spacing" textLength="158" x="486" y="296.3945">Around this time Vacations start</text><text fill="#000000" font-family="sans-serif" font-size="10" lengthAdjust="spacing" textLength="88" x="486" y="308.1719">to hit the timeline</text><text fill="#000000" font-family="sans-serif" font-size="10" lengthAdjust="spacing" textLength="176" x="486" y="319.9492">Also not that Saturdays and sundays</text><text fill="#000000" font-family="sans-serif" font-size="10" lengthAdjust="spacing" textLength="157" x="486" y="331.7266">Are not marked as closed so the</text><text fill="#000000" font-family="sans-serif" font-size="10" lengthAdjust="spacing" textLength="176" x="486" y="343.5039">Durations are calendar days and not</text><text fill="#000000" font-family="sans-serif" font-size="10" lengthAdjust="spacing" textLength="67" x="486" y="355.2813">working days.</text><text fill="#000000" font-family="sans-serif" font-size="10" lengthAdjust="spacing" textLength="177" x="486" y="367.0586">This is an example of very high level</text><text fill="#000000" font-family="sans-serif" font-size="10" lengthAdjust="spacing" textLength="68" x="486" y="378.8359">planning only.</text><rect fill="url(#grv45bbtpktm81)" height="21.1992" style="stroke:none;stroke-width:1.0;" width="92" x="482" y="258.5273"/><line style="stroke:#FF0000;stroke-width:1.0;" x1="482" x2="574" y1="258.5273" y2="258.5273"/><line style="stroke:#FF0000;stroke-width:1.0;" x1="482" x2="574" y1="279.7266" y2="279.7266"/><line style="stroke:#FF0000;stroke-width:1.0;" x1="482" x2="482" y1="258.5273" y2="279.7266"/><line style="stroke:#FF0000;stroke-width:1.0;" x1="574" x2="574" y1="258.5273" y2="279.7266"/><polygon fill="url(#grv45bbtpktm82)" points="580.8,387.9453,592.8,399.9453,580.8,411.9453,568.8,399.9453" style="stroke:#AAAAFF;stroke-width:1.0;"/><polygon fill="url(#grv45bbtpktm82)" points="580.8,415.9453,592.8,427.9453,580.8,439.9453,568.8,427.9453" style="stroke:#AAAAFF;stroke-width:1.0;"/><rect fill="url(#grv45bbtpktm81)" height="21.1992" style="stroke:none;stroke-width:1.0;" width="60" x="584.4" y="443.9453"/><line style="stroke:#FF0000;stroke-width:1.0;" x1="584.4" x2="644.4" y1="443.9453" y2="443.9453"/><line style="stroke:#FF0000;stroke-width:1.0;" x1="584.4" x2="644.4" y1="465.1445" y2="465.1445"/><line style="stroke:#FF0000;stroke-width:1.0;" x1="584.4" x2="584.4" y1="443.9453" y2="465.1445"/><line style="stroke:#FF0000;stroke-width:1.0;" x1="644.4" x2="644.4" y1="443.9453" y2="465.1445"/><rect fill="url(#grv45bbtpktm81)" height="21.1992" style="stroke:none;stroke-width:1.0;" width="92" x="584.4" y="469.1445"/><line style="stroke:#FF0000;stroke-width:1.0;" x1="584.4" x2="676.4" y1="469.1445" y2="469.1445"/><line style="stroke:#FF0000;stroke-width:1.0;" x1="584.4" x2="676.4" y1="490.3438" y2="490.3438"/><line style="stroke:#FF0000;stroke-width:1.0;" x1="584.4" x2="584.4" y1="469.1445" y2="490.3438"/><line style="stroke:#FF0000;stroke-width:1.0;" x1="676.4" x2="676.4" y1="469.1445" y2="490.3438"/><rect fill="url(#grv45bbtpktm81)" height="21.1992" style="stroke:none;stroke-width:1.0;" width="92" x="648.4" y="494.3438"/><line style="stroke:#FF0000;stroke-width:1.0;" x1="648.4" x2="740.4" y1="494.3438" y2="494.3438"/><line style="stroke:#FF0000;stroke-width:1.0;" x1="648.4" x2="740.4" y1="515.543" y2="515.543"/><line style="stroke:#FF0000;stroke-width:1.0;" x1="648.4" x2="648.4" y1="494.3438" y2="515.543"/><line style="stroke:#FF0000;stroke-width:1.0;" x1="740.4" x2="740.4" y1="494.3438" y2="515.543"/><polygon fill="url(#grv45bbtpktm82)" points="779.2,519.543,791.2,531.543,779.2,543.543,767.2,531.543" style="stroke:#AAAAFF;stroke-width:1.0;"/><rect fill="url(#grv45bbtpktm81)" height="21.1992" style="stroke:none;stroke-width:1.0;" width="92" x="782.8" y="547.543"/><line style="stroke:#FF0000;stroke-width:1.0;" x1="782.8" x2="874.8" y1="547.543" y2="547.543"/><line style="stroke:#FF0000;stroke-width:1.0;" x1="782.8" x2="874.8" y1="568.7422" y2="568.7422"/><line style="stroke:#FF0000;stroke-width:1.0;" x1="782.8" x2="782.8" y1="547.543" y2="568.7422"/><line style="stroke:#FF0000;stroke-width:1.0;" x1="874.8" x2="874.8" y1="547.543" y2="568.7422"/><rect fill="url(#grv45bbtpktm81)" height="21.1992" style="stroke:none;stroke-width:1.0;" width="72.8" x="878.8" y="572.7422"/><line style="stroke:#FF0000;stroke-width:1.0;" x1="878.8" x2="951.6" y1="572.7422" y2="572.7422"/><line style="stroke:#FF0000;stroke-width:1.0;" x1="878.8" x2="951.6" y1="593.9414" y2="593.9414"/><line style="stroke:#FF0000;stroke-width:1.0;" x1="878.8" x2="878.8" y1="572.7422" y2="593.9414"/><line style="stroke:#FF0000;stroke-width:1.0;" x1="951.6" x2="951.6" y1="572.7422" y2="593.9414"/><rect fill="url(#grv45bbtpktm81)" height="21.1992" style="stroke:none;stroke-width:1.0;" width="92" x="955.6" y="597.9414"/><line style="stroke:#FF0000;stroke-width:1.0;" x1="955.6" x2="1047.6" y1="597.9414" y2="597.9414"/><line style="stroke:#FF0000;stroke-width:1.0;" x1="955.6" x2="1047.6" y1="619.1406" y2="619.1406"/><line style="stroke:#FF0000;stroke-width:1.0;" x1="955.6" x2="955.6" y1="597.9414" y2="619.1406"/><line style="stroke:#FF0000;stroke-width:1.0;" x1="1047.6" x2="1047.6" y1="597.9414" y2="619.1406"/><polygon fill="url(#grv45bbtpktm82)" points="1070.4,623.1406,1082.4,635.1406,1070.4,647.1406,1058.4,635.1406" style="stroke:#AAAAFF;stroke-width:1.0;"/><rect fill="url(#grv45bbtpktm81)" height="21.1992" style="stroke:none;stroke-width:1.0;" width="92" x="1074" y="651.1406"/><line style="stroke:#FF0000;stroke-width:1.0;" x1="1074" x2="1166" y1="651.1406" y2="651.1406"/><line style="stroke:#FF0000;stroke-width:1.0;" x1="1074" x2="1166" y1="672.3398" y2="672.3398"/><line style="stroke:#FF0000;stroke-width:1.0;" x1="1074" x2="1074" y1="651.1406" y2="672.3398"/><line style="stroke:#FF0000;stroke-width:1.0;" x1="1166" x2="1166" y1="651.1406" y2="672.3398"/><polygon fill="url(#grv45bbtpktm82)" points="1169.6,676.3398,1181.6,688.3398,1169.6,700.3398,1157.6,688.3398" style="stroke:#AAAAFF;stroke-width:1.0;"/><text fill="#0000FF" font-family="sans-serif" font-size="16" font-weight="bold" lengthAdjust="spacing" textLength="86" x="10" y="91.957">Phase One</text><text fill="#A9A9A9" font-family="sans-serif" font-size="18" font-weight="bold" lengthAdjust="spacing" textLength="274" x="34" y="124.7344">"Requirements" and Planning</text><text fill="#A9A9A9" font-family="sans-serif" font-size="18" font-weight="bold" lengthAdjust="spacing" textLength="214" x="98" y="149.9336">Design and "Modeling"</text><text fill="#A9A9A9" font-family="sans-serif" font-size="18" font-weight="bold" lengthAdjust="spacing" textLength="196" x="194" y="175.1328">Dev &amp; Test "Sprint 1"</text><text fill="#A9A9A9" font-family="sans-serif" font-size="18" font-weight="bold" lengthAdjust="spacing" textLength="196" x="290" y="200.332">Dev &amp; Test "Sprint 2"</text><text fill="#A9A9A9" font-family="sans-serif" font-size="18" font-weight="bold" lengthAdjust="spacing" textLength="196" x="386" y="225.5313">Dev &amp; Test "Sprint 3"</text><text fill="#A9A9A9" font-family="sans-serif" font-size="18" font-weight="bold" lengthAdjust="spacing" textLength="196" x="482" y="250.7305">Dev &amp; Test "Sprint 4"</text><text fill="#A9A9A9" font-family="sans-serif" font-size="18" font-weight="bold" lengthAdjust="spacing" textLength="196" x="578" y="275.9297">Dev &amp; Test "Sprint 5"</text><text fill="#AAAAFF" font-family="sans-serif" font-size="25" font-style="italic" lengthAdjust="spacing" textLength="289" x="595.8" y="409.3936">Alpha Release "Drop1A"</text><text fill="#AAAAFF" font-family="sans-serif" font-size="25" font-style="italic" lengthAdjust="spacing" textLength="396" x="595.8" y="437.3936">Executive Presentation "Report0"</text><text fill="#A9A9A9" font-family="sans-serif" font-size="18" font-weight="bold" lengthAdjust="spacing" textLength="202" x="648.4" y="461.3477">UXT Testing 1 "UXT1"</text><text fill="#A9A9A9" font-family="sans-serif" font-size="18" font-weight="bold" lengthAdjust="spacing" textLength="347" x="680.4" y="486.5469">Progress Report to Sponsor "Report1"</text><text fill="#A9A9A9" font-family="sans-serif" font-size="18" font-weight="bold" lengthAdjust="spacing" textLength="196" x="744.4" y="511.7461">Dev &amp; Test "Sprint 6"</text><text fill="#AAAAFF" font-family="sans-serif" font-size="25" font-style="italic" lengthAdjust="spacing" textLength="267" x="794.2" y="540.9912">Beta Release "Drop2B"</text><text fill="#A9A9A9" font-family="sans-serif" font-size="18" font-weight="bold" lengthAdjust="spacing" textLength="202" x="878.8" y="564.9453">UXT Testing 2 "UXT2"</text><text fill="#A9A9A9" font-family="sans-serif" font-size="18" font-weight="bold" lengthAdjust="spacing" textLength="196" x="955.6" y="590.1445">Dev &amp; Test "Sprint 7"</text><text fill="#A9A9A9" font-family="sans-serif" font-size="18" font-weight="bold" lengthAdjust="spacing" textLength="299" x="1051.6" y="615.3438">Documentation relese "Report2"</text><text fill="#AAAAFF" font-family="sans-serif" font-size="25" font-style="italic" lengthAdjust="spacing" textLength="288" x="1085.4" y="644.5889">Stable Release "Drop3S"</text><text fill="#A9A9A9" font-family="sans-serif" font-size="18" font-weight="bold" lengthAdjust="spacing" textLength="311" x="1170" y="668.543">Final Report to Sponsor "Report3"</text><text fill="#AAAAFF" font-family="sans-serif" font-size="25" font-style="italic" lengthAdjust="spacing" textLength="351" x="1184.6" y="697.7881">Phase 1 Completion "P1Stop"</text><rect fill="url(#grv45bbtpktm83)" height="110.9297" rx="7.5" ry="7.5" style="stroke:url(#grv45bbtpktm84);stroke-width:1.0;" width="311" x="8" y="710.3398"/><text fill="#000000" font-family="sans-serif" font-size="14" lengthAdjust="spacing" textLength="151" x="14" y="729.875">Approved 1971 01 01</text><text fill="#000000" font-family="sans-serif" font-size="14" lengthAdjust="spacing" textLength="153" x="14" y="746.3633">Develop test scenarios</text><text fill="#000000" font-family="sans-serif" font-size="14" lengthAdjust="spacing" textLength="86" x="14" y="762.8516">Sponsor CIO</text><text fill="#000000" font-family="sans-serif" font-size="14" lengthAdjust="spacing" textLength="142" x="14" y="779.3398">example project 123</text><text fill="#000000" font-family="sans-serif" font-size="14" lengthAdjust="spacing" textLength="299" x="14" y="795.8281">Date modified : 1971 01 01 Sean Donnellan</text><text fill="#000000" font-family="sans-serif" font-size="14" lengthAdjust="spacing" textLength="86" x="14" y="812.3164">PM John Doe</text><rect fill="none" height="11.7773" style="stroke:none;stroke-width:1.0;" width="115" x="527.6" y="830.2695"/><text fill="#888888" font-family="sans-serif" font-size="10" lengthAdjust="spacing" textLength="115" x="527.6" y="839.9375">(C)2021 Sean Donnellan</text><!--MD5=[06c1dc6a192ccf6805dc2a9659f22f82]
@startgantt
title Example High level GANTT for example agile project
'header <font color=red size=20>DRAFT</font>
footer (C)2021 Sean Donnellan
skinparam LegendBackgroundColor #aaf\fff
skinparam LegendBorderColor #fff\aaf
legend left
Approved 1971 01 01
Develop test scenarios
Sponsor CIO
example project 123
Date modified : 1971 01 01 Sean Donnellan
PM John Doe
end legend

' take a look at https://plantuml.com/gantt-diagram
'this style section allows you to tune the style.
<style>
    ganttDiagram {
        task {
            'FontName Helvetica
            FontColor DarkGrey
            FontSize 18
            FontStyle bold
            BackGroundColor #orange|green
            LineColor #red
            'margin 0
            'padding 5
        }
        milestone {
            FontColor #aaf/red
            FontSize 25
            FontStyle italic
            BackGroundColor #fff/aaf
            LineColor #aaf/fff
        }
        note {
            FontColor Black
            FontSize 10
            LineColor Orange
        }
        arrow {
            'FontName Helvetica
            FontColor red
            FontSize 18
            FontStyle bold
            BackGroundColor GreenYellow
            LineColor DarkGrey
            'LineStyle 8.0;13.0
            LineThickness 2.0
        }
        separator {
            BackgroundColor #orange|green
            LineStyle 8.0;3.0
            LineColor blue
            LineThickness 1.0
            FontSize 16
            FontStyle bold
            FontColor blue
            Margin 5
            Padding 5
        }
        timeline {
            BackgroundColor #fff|aaf
        }
        closed {
            BackgroundColor #eee
            FontColor Black
        }
    }
</style>

'the following two lines allow you to either hide or show the footbox
hide footbox

2022/1/1 to 2022/1/31 are colored in #eee
2022/3/1 to 2022/3/31 are colored in #eee
2022/5/1 to 2022/5/31 are colored in #eee
2022/7/1 to 2022/7/31 are colored in #eee
2022/9/1 to 2022/9/30 are colored in #eee
2022/11/1 to 2022/11/30 are colored in #eee
projectscale monthly zoom 3

' if you want to have these closed days shown tasks will be split into weeks for High level it's best not to used closed days.
' closed days WILL on the other hand allow you to work with business days in planning as opposed to weekdays.
' coloring months wil overlay on top of closed day markings so they sort of clash
'saturday are closed
'sunday are closed

- - Phase One - -
Project starts the 1st of january 2022
2022/1/20 is colored in salmon
["Requirements" and Planning] as [Requirements] lasts 10 days and is 100% completed
[Requirements] is colored in green
[Design and "Modeling"] as [Modeling] lasts 20 days and is 50% completed
[Modeling] is colored in green
'note bottom
'  example Note
'end note

[Dev & Test "Sprint 1"] as [Sprint1] lasts 30 days 
[Dev & Test "Sprint 2"] as [Sprint2] lasts 30 days 
[Dev & Test "Sprint 3"] as [Sprint3] lasts 30 days 
[Dev & Test "Sprint 4"] as [Sprint4] lasts 30 days 
[Dev & Test "Sprint 5"] as [Sprint5] lasts 30 days 
note bottom
  Around this time Vacations start
  to hit the timeline
  Also not that Saturdays and sundays
  Are not marked as closed so the
  Durations are calendar days and not 
  working days.
  This is an example of very high level
  planning only.
end note
[Alpha Release "Drop1A"] as [Drop1A] happens 2022-07-01
[Executive Presentation "Report0"] as [Report0] happens 2022-07-01

[UXT Testing 1 "UXT1"] as [UXT1] lasts 20 days
[Progress Report to Sponsor "Report1"] as [Report1] lasts 30 days
[Dev & Test "Sprint 6"] as [Sprint6] lasts 30 days

[Beta Release "Drop2B"] as [Drop2B] happens at 2022-09-01

[UXT Testing 2 "UXT2"] as [UXT2] lasts 30 days
[Dev & Test "Sprint 7"] as [Sprint7] lasts 24 days
[Documentation relese "Report2"] as [Report2] lasts 30 days

[Stable Release "Drop3S"] as [Drop3S] happens 2022-12-01

[Final Report to Sponsor "Report3"] as [Report3] lasts 30 days

[Phase 1 Completion "P1Stop"] as [P1Stop] happens 2022-12-31

[Requirements]->[Modeling]
[Modeling]->[Sprint1]
[Sprint1]->[Sprint2]
[Sprint2]->[Sprint3]
[Sprint3]->[Sprint4]
[Sprint4]->[Sprint5]
[Sprint5]->[Drop1A]
'[Sprint5]->[Report0]
[Drop1A]->[UXT1]
 [Drop1A]->[Report1]
[UXT1]->[Sprint6]
[Sprint6]->[Drop2B]
[Drop2B]->[UXT2]
[UXT2]->[Sprint7]
[Sprint7]->[Report2]
[Report2]->[Drop3S]
[Drop3S]->[Report3]
[Report3]->[P1Stop]


@endgantt

@startgantt
title Example High level GANTT for example agile project
footer (C)2021 Sean Donnellan
skinparam LegendBackgroundColor #aaf\fff
skinparam LegendBorderColor #fff\aaf
legend left
Approved 1971 01 01
Develop test scenarios
Sponsor CIO
example project 123
Date modified : 1971 01 01 Sean Donnellan
PM John Doe
end legend

<style>
    ganttDiagram {
        task {
            FontColor DarkGrey
            FontSize 18
            FontStyle bold
            BackGroundColor #orange|green
            LineColor #red
        }
        milestone {
            FontColor #aaf/red
            FontSize 25
            FontStyle italic
            BackGroundColor #fff/aaf
            LineColor #aaf/fff
        }
        note {
            FontColor Black
            FontSize 10
            LineColor Orange
        }
        arrow {
            FontColor red
            FontSize 18
            FontStyle bold
            BackGroundColor GreenYellow
            LineColor DarkGrey
            LineThickness 2.0
        }
        separator {
            BackgroundColor #orange|green
            LineStyle 8.0;3.0
            LineColor blue
            LineThickness 1.0
            FontSize 16
            FontStyle bold
            FontColor blue
            Margin 5
            Padding 5
        }
        timeline {
            BackgroundColor #fff|aaf
        }
        closed {
            BackgroundColor #eee
            FontColor Black
        }
    }
</style>

hide footbox

2022/1/1 to 2022/1/31 are colored in #eee
2022/3/1 to 2022/3/31 are colored in #eee
2022/5/1 to 2022/5/31 are colored in #eee
2022/7/1 to 2022/7/31 are colored in #eee
2022/9/1 to 2022/9/30 are colored in #eee
2022/11/1 to 2022/11/30 are colored in #eee
projectscale monthly zoom 3


- - Phase One - -
Project starts the 1st of january 2022
2022/1/20 is colored in salmon
["Requirements" and Planning] as [Requirements] lasts 10 days and is 100% completed
[Requirements] is colored in green
[Design and "Modeling"] as [Modeling] lasts 20 days and is 50% completed
[Modeling] is colored in green

[Dev & Test "Sprint 1"] as [Sprint1] lasts 30 days 
[Dev & Test "Sprint 2"] as [Sprint2] lasts 30 days 
[Dev & Test "Sprint 3"] as [Sprint3] lasts 30 days 
[Dev & Test "Sprint 4"] as [Sprint4] lasts 30 days 
[Dev & Test "Sprint 5"] as [Sprint5] lasts 30 days 
note bottom
  Around this time Vacations start
  to hit the timeline
  Also not that Saturdays and sundays
  Are not marked as closed so the
  Durations are calendar days and not 
  working days.
  This is an example of very high level
  planning only.
end note
[Alpha Release "Drop1A"] as [Drop1A] happens 2022-07-01
[Executive Presentation "Report0"] as [Report0] happens 2022-07-01

[UXT Testing 1 "UXT1"] as [UXT1] lasts 20 days
[Progress Report to Sponsor "Report1"] as [Report1] lasts 30 days
[Dev & Test "Sprint 6"] as [Sprint6] lasts 30 days

[Beta Release "Drop2B"] as [Drop2B] happens at 2022-09-01

[UXT Testing 2 "UXT2"] as [UXT2] lasts 30 days
[Dev & Test "Sprint 7"] as [Sprint7] lasts 24 days
[Documentation relese "Report2"] as [Report2] lasts 30 days

[Stable Release "Drop3S"] as [Drop3S] happens 2022-12-01

[Final Report to Sponsor "Report3"] as [Report3] lasts 30 days

[Phase 1 Completion "P1Stop"] as [P1Stop] happens 2022-12-31

[Requirements]->[Modeling]
[Modeling]->[Sprint1]
[Sprint1]->[Sprint2]
[Sprint2]->[Sprint3]
[Sprint3]->[Sprint4]
[Sprint4]->[Sprint5]
[Sprint5]->[Drop1A]
[Drop1A]->[UXT1]
 [Drop1A]->[Report1]
[UXT1]->[Sprint6]
[Sprint6]->[Drop2B]
[Drop2B]->[UXT2]
[UXT2]->[Sprint7]
[Sprint7]->[Report2]
[Report2]->[Drop3S]
[Drop3S]->[Report3]
[Report3]->[P1Stop]


@endgantt

PlantUML version 1.2021.10(Mon Aug 30 15:43:48 CEST 2021)
(GPL source distribution)
Java Runtime: OpenJDK Runtime Environment
JVM: OpenJDK 64-Bit Server VM
Default Encoding: UTF-8
Language: en
Country: GB
--></g></svg>