<?xml version="1.0" encoding="UTF-8" standalone="no"?><svg xmlns="http://www.w3.org/2000/svg" xmlns:xlink="http://www.w3.org/1999/xlink" contentScriptType="application/ecmascript" contentStyleType="text/css" height="470px" preserveAspectRatio="none" style="width:535px;height:470px;background:#FFFFFF;" version="1.1" viewBox="0 0 535 470" width="535px" zoomAndPan="magnify"><defs><linearGradient id="g14s6b8zfvc4y80" x1="0%" x2="100%" y1="0%" y2="100%"><stop offset="0%" stop-color="#FFFFFF"/><stop offset="100%" stop-color="#BBBBEE"/></linearGradient><filter height="300%" id="f14s6b8zfvc4y8" width="300%" x="-1" y="-1"><feGaussianBlur result="blurOut" stdDeviation="2.0"/><feColorMatrix in="blurOut" result="blurOut2" type="matrix" values="0 0 0 0 0 0 0 0 0 0 0 0 0 0 0 0 0 0 .4 0"/><feOffset dx="4.0" dy="4.0" in="blurOut2" result="blurOut3"/><feBlend in="SourceGraphic" in2="blurOut3" mode="normal"/></filter><linearGradient id="g14s6b8zfvc4y81" x1="0%" x2="100%" y1="0%" y2="100%"><stop offset="0%" stop-color="#BBBBEE"/><stop offset="100%" stop-color="#FFFFFF"/></linearGradient><filter height="1" id="b14s6b8zfvc4y80" width="1" x="0" y="0"><feFlood flood-color="#008000" result="flood"/><feComposite in="SourceGraphic" in2="flood" operator="over"/></filter><linearGradient id="g14s6b8zfvc4y82" x1="0%" x2="100%" y1="0%" y2="100%"><stop offset="0%" stop-color="#FFFFFF"/><stop offset="100%" stop-color="#008000"/></linearGradient><filter height="1" id="b14s6b8zfvc4y81" width="1" x="0" y="0"><feFlood flood-color="#FF0000" result="flood"/><feComposite in="SourceGraphic" in2="flood" operator="over"/></filter><linearGradient id="g14s6b8zfvc4y83" x1="0%" x2="100%" y1="0%" y2="100%"><stop offset="0%" stop-color="#FFFFFF"/><stop offset="100%" stop-color="#FF0000"/></linearGradient></defs><g><rect fill="url(#g14s6b8zfvc4y80)" height="470" style="stroke:none;stroke-width:1.0;" width="535" x="0" y="0"/><text fill="#000000" font-family="sans-serif" font-size="18" lengthAdjust="spacing" textLength="223" x="149.5" y="17.4023">Example context diagram</text><!--MD5=[ce5ccd5b359d4259c2ab78015c688698]
cluster container--><rect fill="url(#g14s6b8zfvc4y80)" filter="url(#f14s6b8zfvc4y8)" height="96" style="stroke:#000000;stroke-width:1.5;" width="381" x="142" y="169.6992"/><text fill="#000000" font-family="sans-serif" font-size="14" font-weight="bold" lengthAdjust="spacing" textLength="48" x="308.5" y="185.2344">docker</text><ellipse cx="235.1216" cy="227.4235" fill="url(#g14s6b8zfvc4y81)" filter="url(#f14s6b8zfvc4y8)" rx="76.6216" ry="17.7243" style="stroke:#A80036;stroke-width:1.5;"/><text fill="#000000" font-family="sans-serif" font-size="14" lengthAdjust="spacing" textLength="110" x="180.1216" y="230.7146">Example Project</text><!--MD5=[bce8ed80e0b7aad8739b0649b735fd39]
entity neo4j--><path d="M447.5,214.6992 C447.5,204.6992 477,204.6992 477,204.6992 C477,204.6992 506.5,204.6992 506.5,214.6992 L506.5,240.1875 C506.5,250.1875 477,250.1875 477,250.1875 C477,250.1875 447.5,250.1875 447.5,240.1875 L447.5,214.6992 " fill="url(#g14s6b8zfvc4y80)" filter="url(#f14s6b8zfvc4y8)" style="stroke:#000000;stroke-width:1.5;"/><path d="M447.5,214.6992 C447.5,224.6992 477,224.6992 477,224.6992 C477,224.6992 506.5,224.6992 506.5,214.6992 " fill="none" style="stroke:#000000;stroke-width:1.5;"/><text fill="#000000" font-family="sans-serif" font-size="14" lengthAdjust="spacing" textLength="39" x="457.5" y="242.2344">neo4j</text><!--MD5=[ebf6e87013a4374badcf52b9d75ef618]
entity dataSource--><path d="M6,214.6992 C6,204.6992 34,204.6992 34,204.6992 C34,204.6992 62,204.6992 62,214.6992 L62,240.1875 C62,250.1875 34,250.1875 34,250.1875 C34,250.1875 6,250.1875 6,240.1875 L6,214.6992 " fill="url(#g14s6b8zfvc4y80)" filter="url(#f14s6b8zfvc4y8)" style="stroke:#000000;stroke-width:1.5;"/><path d="M6,214.6992 C6,224.6992 34,224.6992 34,224.6992 C34,224.6992 62,224.6992 62,214.6992 " fill="none" style="stroke:#000000;stroke-width:1.5;"/><text fill="#000000" font-family="sans-serif" font-size="14" lengthAdjust="spacing" textLength="36" x="16" y="242.2344">excel</text><!--MD5=[8fc3522a43f8c7199df5e09e5bb0188e]
entity user--><ellipse cx="183" cy="35.1992" filter="url(#f14s6b8zfvc4y8)" rx="8" ry="8" style="stroke:#A80036;stroke-width:1.5;fill:none;"/><path d="M183,43.1992 L183,70.1992 M170,51.1992 L196,51.1992 M183,70.1992 L170,85.1992 M183,70.1992 L196,85.1992 " fill="none" filter="url(#f14s6b8zfvc4y8)" style="stroke:#A80036;stroke-width:1.5;"/><text fill="#000000" font-family="sans-serif" font-size="14" lengthAdjust="spacing" textLength="30" x="168" y="104.2344">user</text><!--MD5=[79a439086b036a57b90a01d7b2f8bbd1]
entity admin--><ellipse cx="428" cy="35.1992" filter="url(#f14s6b8zfvc4y8)" rx="8" ry="8" style="stroke:#A80036;stroke-width:1.5;fill:none;"/><path d="M428,43.1992 L428,70.1992 M415,51.1992 L441,51.1992 M428,70.1992 L415,85.1992 M428,70.1992 L441,85.1992 " fill="none" filter="url(#f14s6b8zfvc4y8)" style="stroke:#A80036;stroke-width:1.5;"/><text fill="#000000" font-family="sans-serif" font-size="14" lengthAdjust="spacing" textLength="74" x="391" y="104.2344">dev/admin</text><!--MD5=[de4df4aeba74b1aec503ebd5674e218a]
entity diagram--><rect fill="url(#g14s6b8zfvc4y81)" filter="url(#f14s6b8zfvc4y8)" height="22.4883" style="stroke:#000000;stroke-width:1.5;" width="77" x="139.5" y="328.6992"/><text fill="#000000" font-family="sans-serif" font-size="14" lengthAdjust="spacing" textLength="57" x="149.5" y="345.2344">diagram</text><!--MD5=[af2fb4f17e34493b6fc9981f80a5dccf]
entity asciidoc--><rect fill="url(#g14s6b8zfvc4y81)" filter="url(#f14s6b8zfvc4y8)" height="22.4883" style="stroke:#000000;stroke-width:1.5;" width="75" x="254.5" y="328.6992"/><text fill="#000000" font-family="sans-serif" font-size="14" lengthAdjust="spacing" textLength="55" x="264.5" y="345.2344">asciidoc</text><!--MD5=[a1e9a697adcd41b5e09f0234e09b2696]
link user to context--><path d="M175.81,106.8092 C174.58,121.8392 175.02,138.8892 180,153.6992 C186.77,173.8192 201.58,192.7892 214.13,206.2792 " fill="none" id="user-to-context" style="stroke:#008000;stroke-width:1.0;"/><polygon fill="#008000" points="217.61,209.9292,214.317,200.6472,214.1685,206.3021,208.5136,206.1536,217.61,209.9292" style="stroke:#008000;stroke-width:1.0;"/><text fill="#000000" font-family="sans-serif" font-size="13" lengthAdjust="spacing" textLength="77" x="181" y="150.2676">(2b) triggers</text><!--MD5=[7a618bea3de9181e03b5c07980c520f2]
link user to neo4j--><path d="M198.23,82.4792 C218.53,101.9692 256.4,135.3192 295,153.6992 C309.02,160.3692 314.27,156.7992 329,161.6992 C369.01,175.0092 413.11,194.9492 442.68,209.1292 " fill="none" id="user-to-neo4j" style="stroke:#008000;stroke-width:1.0;stroke-dasharray:7.0,7.0;"/><polygon fill="#008000" points="447.29,211.3592,440.9227,203.8454,442.7869,209.1863,437.446,211.0504,447.29,211.3592" style="stroke:#008000;stroke-width:1.0;"/><text fill="#000000" font-family="sans-serif" font-size="13" lengthAdjust="spacing" textLength="35" x="296" y="150.2676">views</text><!--MD5=[b0a46ca17152c3502003389e73fdfd31]
link user to dataSource--><path d="M167.9,78.3292 C150.75,91.3492 122.36,114.0092 101,136.6992 C82.36,156.4992 64.05,181.4392 51.3,199.9592 " fill="none" id="user-to-dataSource" style="stroke:#008000;stroke-width:1.0;"/><polygon fill="#008000" points="48.18,204.5192,56.5666,199.3554,51.006,200.3944,49.9669,194.8338,48.18,204.5192" style="stroke:#008000;stroke-width:1.0;"/><text fill="#000000" font-family="sans-serif" font-size="13" lengthAdjust="spacing" textLength="65" x="102" y="150.2676">(1) creates</text><!--MD5=[c1fb0f456f7db11821fa6ce49f7a838e]
link admin to context--><path d="M390.8,106.5892 C375.6,121.9192 357.51,139.2392 340,153.6992 C315.67,173.8092 285.89,193.9892 264.27,207.9392 " fill="none" id="admin-to-context" style="stroke:#A80036;stroke-width:1.0;stroke-dasharray:7.0,7.0;"/><polygon fill="#A80036" points="260.06,210.6392,269.7959,209.1521,264.2701,207.9419,265.4803,202.416,260.06,210.6392" style="stroke:#A80036;stroke-width:1.0;"/><text fill="#000000" font-family="sans-serif" font-size="13" lengthAdjust="spacing" textLength="56" x="358" y="150.2676">manages</text><!--MD5=[82ac4fbec3acfe27a1d1915f23d8b853]
link admin to neo4j--><path d="M440.24,106.9092 C449.17,135.8892 461.02,174.3592 468.83,199.6792 " fill="none" id="admin-to-neo4j" style="stroke:#A80036;stroke-width:1.0;stroke-dasharray:7.0,7.0;"/><polygon fill="#A80036" points="470.33,204.5592,471.5002,194.7801,468.8566,199.7813,463.8554,197.1376,470.33,204.5592" style="stroke:#A80036;stroke-width:1.0;"/><text fill="#000000" font-family="sans-serif" font-size="13" lengthAdjust="spacing" textLength="56" x="454" y="150.2676">manages</text><!--MD5=[0f55b7befc50ddacb1e9b0d3fc5666e1]
link dataSource to context--><path d="M62.37,227.1992 C86,227.1992 120.86,227.1992 153.09,227.1992 " fill="none" id="dataSource-to-context" style="stroke:#008000;stroke-width:1.0;"/><polygon fill="#008000" points="158.23,227.1992,149.23,223.1992,153.23,227.1992,149.23,231.1992,158.23,227.1992" style="stroke:#008000;stroke-width:1.0;"/><text fill="#000000" font-family="sans-serif" font-size="13" lengthAdjust="spacing" textLength="60" x="80.25" y="220.7676">(2a) input</text><!--MD5=[e728667cdcada73295e67c2124b4696c]
link context to neo4j--><path d="M316.74,227.1992 C359.53,227.1992 409.65,227.1992 442.3,227.1992 " fill="none" id="context-neo4j" style="stroke:#A80036;stroke-width:1.0;"/><polygon fill="#A80036" points="447.39,227.1992,438.39,223.1992,442.39,227.1992,438.39,231.1992,447.39,227.1992" style="stroke:#A80036;stroke-width:1.0;"/><polygon fill="#A80036" points="311.57,227.1992,320.57,231.1992,316.57,227.1992,320.57,223.1992,311.57,227.1992" style="stroke:#A80036;stroke-width:1.0;"/><text fill="#000000" font-family="sans-serif" font-size="13" lengthAdjust="spacing" textLength="99" x="330" y="220.7676">(3) reads/writes</text><!--MD5=[c02f8453eec234431e029cce353b619c]
link context to diagram--><path d="M208.93,243.8292 C196.15,253.0692 182.02,266.0292 175,281.6992 C169.1,294.8692 170.88,311.5092 173.52,323.4092 " fill="none" id="context-to-diagram" style="stroke:#008000;stroke-width:1.0;"/><polygon fill="#008000" points="174.77,328.5092,176.5215,318.8174,173.5842,323.6519,168.7497,320.7146,174.77,328.5092" style="stroke:#008000;stroke-width:1.0;"/><text fill="#000000" font-family="sans-serif" font-size="13" lengthAdjust="spacing" textLength="72" x="176" y="295.2676">(4a) creates</text><!--MD5=[5d9e9fdfc4aed24ac2855c80a4b535d0]
link context to asciidoc--><path d="M243.66,244.9792 C254.73,266.4492 273.73,303.2892 284.31,323.7992 " fill="none" id="context-to-asciidoc" style="stroke:#008000;stroke-width:1.0;"/><polygon fill="#008000" points="286.69,328.3992,286.1296,318.5663,284.4026,323.9531,279.0158,322.2261,286.69,328.3992" style="stroke:#008000;stroke-width:1.0;"/><text fill="#000000" font-family="sans-serif" font-size="13" lengthAdjust="spacing" textLength="73" x="271" y="295.2676">(4b) creates</text><rect fill="url(#g14s6b8zfvc4y81)" height="72.8867" rx="5" ry="5" style="stroke:url(#g14s6b8zfvc4y81);stroke-width:0.0;" width="130" x="195.5" y="370.1875"/><text fill="#000000" font-family="sans-serif" font-size="10" lengthAdjust="spacing" textLength="33" x="201.5" y="384.8555">legend</text><text fill="#000000" filter="url(#b14s6b8zfvc4y80)" font-family="sans-serif" font-size="10" lengthAdjust="spacing" textLength="13" x="201.5" y="398.6328">'   '</text><text fill="#000000" font-family="sans-serif" font-size="10" lengthAdjust="spacing" textLength="64" x="217.5" y="398.6328">User usecase</text><rect fill="url(#g14s6b8zfvc4y82)" height="11.7773" style="stroke:none;stroke-width:0.0;" width="13" x="201.5" y="400.6328"/><text fill="#000000" font-family="sans-serif" font-size="10" lengthAdjust="spacing" textLength="13" x="201.5" y="410.4102">'   '</text><text fill="#000000" font-family="sans-serif" font-size="10" lengthAdjust="spacing" textLength="99" x="217.5" y="410.4102">2ndary user usecase</text><text fill="#000000" filter="url(#b14s6b8zfvc4y81)" font-family="sans-serif" font-size="10" lengthAdjust="spacing" textLength="13" x="201.5" y="422.1875">'   '</text><text fill="#000000" font-family="sans-serif" font-size="10" lengthAdjust="spacing" textLength="83" x="217.5" y="422.1875">internal use case</text><rect fill="url(#g14s6b8zfvc4y83)" height="11.7773" style="stroke:none;stroke-width:0.0;" width="13" x="201.5" y="424.1875"/><text fill="#000000" font-family="sans-serif" font-size="10" lengthAdjust="spacing" textLength="13" x="201.5" y="433.9648">'   '</text><text fill="#000000" font-family="sans-serif" font-size="10" lengthAdjust="spacing" textLength="59" x="217.5" y="433.9648">admin flows</text><line style="stroke:#000000;stroke-width:1.0;" x1="201.5" x2="319.5" y1="388.9648" y2="388.9648"/><line style="stroke:#000000;stroke-width:1.0;" x1="201.5" x2="319.5" y1="400.7422" y2="400.7422"/><line style="stroke:#000000;stroke-width:1.0;" x1="201.5" x2="319.5" y1="412.5195" y2="412.5195"/><line style="stroke:#000000;stroke-width:1.0;" x1="201.5" x2="319.5" y1="424.2969" y2="424.2969"/><line style="stroke:#000000;stroke-width:1.0;" x1="201.5" x2="319.5" y1="436.0742" y2="436.0742"/><line style="stroke:#000000;stroke-width:1.0;" x1="201.5" x2="201.5" y1="388.9648" y2="436.0742"/><line style="stroke:#000000;stroke-width:1.0;" x1="214.5" x2="214.5" y1="388.9648" y2="436.0742"/><line style="stroke:#000000;stroke-width:1.0;" x1="319.5" x2="319.5" y1="388.9648" y2="436.0742"/><text fill="#888888" font-family="sans-serif" font-size="10" lengthAdjust="spacing" textLength="115" x="203.5" y="461.7422">(C)2021 Sean Donnellan</text><!--MD5=[bec1126eba8575549651358ec8aa3d1c]
@startuml
title Example context diagram
footer (C)2021 Sean Donnellan

skinparam BackgroundColor #fff/bbe
skinparam NodeBorderColor black
skinparam NodeBackgroundColor #bbbbee
skinparam DatabaseBackgroundColor #fff/bbe
skinparam ActorBackgroundColor transparent
skinparam CloudBackgroundColor #ffff33
skinparam LegendBackgroundColor #bbe/fff
skinparam UsecaseBackgroundColor #bbe/fff
skinparam CardBackgroundColor #bbe/fff

rectangle "docker" as container {
    usecase "Example Project" as context
    database neo4j
}
database "excel" as dataSource
actor "user" as user
actor "dev/admin" as admin

card diagram
card asciidoc

user - -> context #green: (2b) triggers
user -.> neo4j #green: views
user - -> dataSource #green: (1) creates
admin -.> context : manages
admin -.> neo4j : manages

dataSource -> context #green:  (2a) input
context <-> neo4j : (3) reads/writes
context - -> diagram #green: (4a) creates
context - -> asciidoc #green: (4b) creates

skinparam LegendBorderThickness 0
skinparam LegendFontSize 10

legend
legend
|<back:#green>'   '</back>| User usecase |
|<back:#white/green>'   '</back>| 2ndary user usecase |
|<back:red>'   '</back>| internal use case |
|<back:white/red>'   '</back>| admin flows |
endlegend

@enduml

PlantUML version 1.2021.10(Mon Aug 30 15:43:48 CEST 2021)
(GPL source distribution)
Java Runtime: OpenJDK Runtime Environment
JVM: OpenJDK 64-Bit Server VM
Default Encoding: UTF-8
Language: en
Country: GB
--></g></svg>