<?xml version="1.0" encoding="UTF-8" standalone="no"?>
<!DOCTYPE svg PUBLIC "-//W3C//DTD SVG 20010904//EN" "http://www.w3.org/TR/2001/REC-SVG-20010904/DTD/svg10.dtd">
<svg version="1.0" xmlns="http://www.w3.org/2000/svg" width="978.000000pt" height="996.000000pt" viewBox="0 0 978.000000 996.000000" preserveAspectRatio="xMidYMid meet">

<g transform="translate(0.000000,996.000000) scale(0.100000,-0.100000)" fill="#000000" stroke="none">
<path d="M3801 9317 c-28 -14 -50 -35 -62 -58 -18 -37 -57 -59 -104 -59 -12 0 -40 -12 -61 -27 -53 -37 -103 -37 -140 0 -15 15 -38 30 -51 32 -12 3 -34 7 -48 10 -39 8 -92 -19 -110 -57 -40 -83 -57 -109 -80 -120 -14 -6 -25 -14 -25 -18 0 -4 26 -25 57 -46 116 -79 186 -134 222 -176 43 -51 81 -125 81 -160 0 -32 -59 -124 -94 -147 -31 -21 -84 -15 -115 13 -24 21 -49 11 -53 -22 -4 -34 -24 -39 -32 -7 -4 16 -13 25 -26 25 -10 0 -22 5 -26 11 -3 6 -26 20 -50 31 -29 12 -49 30 -60 51 -8 18 -26 52 -40 77 -13 24 -24 56 -24 70 0 32 -26 70 -48 70 -9 0 -28 -9 -42 -20 -47 -37 -110 -15 -110 39 0 21 -39 65 -87 98 -14 9 -50 15 -101 16 l-80 2 -50 -45 c-56 -50 -68 -73 -76 -144 -8 -63 -16 -72 -76 -79 -77 -9 -155 -51 -177 -95 -25 -50 -65 -60 -161 -37 -61 14 -83 15 -139 5 -77 -13 -108 -27 -145 -67 -31 -32 -68 -121 -63 -149 2 -11 4 -29 4 -41 1 -30 51 -85 128 -140 85 -60 86 -82 4 -147 -59 -48 -71 -63 -71 -93 0 -27 -48 -81 -78 -88 -37 -8 -132 -79 -156 -116 -23 -37 -18 -104 11 -146 34 -49 2 -125 -67 -153 -38 -16 -65 -77 -55 -126 7 -39 70 -108 110 -120 64 -20 65 -64 3 -158 -47 -71 -60 -124 -52 -208 4 -35 6 -84 5 -110 0 -31 3 -49 12 -50 6 0 36 -2 65 -3 74 -3 158 -58 168 -110 12 -65 -2 -196 -28 -255 -32 -75 -33 -77 -72 -84 -18 -4 -41 -15 -50 -25 -10 -11 -29 -22 -42 -25 -37 -10 -141 31 -164 64 -23 32 -80 47 -80 21 0 -18 42 -61 77 -80 13 -6 23 -18 23 -25 0 -8 15 -23 33 -35 17 -11 51 -36 74 -55 24 -20 59 -37 82 -41 73 -12 73 -23 1 -135 -47 -73 -34 -156 34 -219 31 -29 36 -90 9 -112 -9 -8 -34 -39 -56 -69 -32 -43 -42 -65 -45 -106 -6 -72 10 -112 71 -176 50 -54 55 -56 127 -68 65 -11 83 -11 140 4 77 20 114 54 150 136 37 85 46 93 107 88 61 -5 93 -29 93 -67 0 -51 49 -205 78 -245 42 -58 125 -106 182 -106 75 1 167 71 227 173 18 31 34 37 108 37 119 0 136 -6 172 -58 17 -26 35 -64 38 -85 11 -58 66 -122 121 -141 64 -22 87 -20 169 10 95 35 126 39 181 20 26 -9 74 -16 106 -16 l57 0 40 63 c57 88 58 89 80 75 49 -30 51 -47 51 -360 0 -330 -16 -1300 -25 -1513 -9 -212 -26 -446 -35 -485 -5 -19 -16 -102 -25 -185 -8 -82 -22 -172 -30 -200 -8 -27 -19 -88 -26 -135 -7 -47 -18 -100 -26 -118 -8 -19 -19 -59 -24 -90 -6 -32 -17 -68 -24 -82 -7 -14 -27 -70 -45 -125 -18 -54 -45 -127 -61 -161 -16 -33 -29 -68 -29 -76 0 -32 -209 -198 -249 -198 -9 0 -45 -9 -81 -21 -135 -42 -569 -37 -670 9 -26 12 -80 17 -210 20 l-175 4 -135 -41 c-209 -62 -287 -92 -421 -163 -153 -81 -276 -139 -444 -212 -72 -31 -148 -65 -170 -76 -79 -37 -230 -79 -295 -80 -53 -2 -102 -22 -111 -48 -7 -19 -3 -26 33 -48 23 -15 84 -44 137 -67 91 -38 103 -40 221 -45 132 -5 273 15 315 44 11 8 27 14 36 14 9 0 37 11 63 25 26 14 53 25 60 25 6 0 34 11 62 24 133 65 385 163 469 182 33 8 78 20 100 26 68 19 213 21 295 4 41 -8 107 -20 145 -26 39 -7 97 -18 131 -26 68 -16 236 -19 280 -5 16 5 75 15 132 22 90 11 105 10 118 -3 14 -14 9 -21 -43 -75 -32 -34 -78 -74 -102 -89 l-45 -29 -230 -6 c-158 -3 -238 -9 -254 -18 -13 -7 -45 -19 -70 -26 -52 -16 -179 -93 -236 -143 -20 -18 -41 -32 -46 -32 -5 0 -35 -25 -66 -55 -52 -49 -57 -57 -43 -70 14 -14 35 -14 178 -4 128 10 198 10 334 0 95 -7 192 -17 217 -22 118 -24 163 -29 270 -30 83 0 128 4 160 16 25 9 64 23 88 32 24 8 46 22 49 30 3 8 16 18 28 23 52 20 232 170 393 327 135 131 176 166 184 156 7 -9 8 -41 2 -101 -10 -113 -8 -265 5 -336 21 -113 29 -130 78 -171 43 -36 53 -40 103 -40 43 1 74 9 138 39 73 35 91 50 160 127 42 48 88 105 101 126 27 43 76 167 107 271 2 6 16 12 32 12 22 0 40 -11 69 -43 61 -66 176 -147 234 -165 110 -34 340 -40 415 -12 43 17 259 18 324 1 72 -18 231 -95 395 -192 89 -52 114 -60 197 -62 125 -3 138 26 70 158 -33 64 -123 173 -178 215 -95 71 -186 111 -329 142 -49 10 -93 23 -98 27 -4 4 5 19 20 33 21 19 54 31 123 47 52 11 120 28 150 37 41 13 97 17 215 18 204 1 233 -7 580 -164 234 -106 260 -120 267 -145 4 -18 2 -37 -7 -54 -20 -39 -104 -98 -150 -105 -48 -8 -128 -56 -150 -90 -36 -55 10 -88 145 -106 77 -10 91 -9 150 10 36 11 101 25 145 29 102 11 115 25 115 121 0 49 5 73 16 84 19 20 13 20 159 0 78 -10 148 -14 201 -10 96 8 103 3 113 -76 7 -61 25 -75 110 -85 48 -5 52 -4 120 46 83 61 94 89 64 161 -13 33 -18 71 -18 140 0 84 5 108 39 210 21 63 43 120 48 127 5 6 16 40 24 75 8 35 22 83 33 108 29 71 88 266 112 375 22 93 23 125 25 487 l2 386 47 144 c26 78 55 166 65 193 10 28 22 66 25 85 4 19 14 51 22 70 21 49 66 232 126 520 9 41 20 124 26 184 l10 109 45 46 c25 26 46 53 46 61 0 8 -12 26 -27 42 -41 43 -36 83 15 128 58 49 56 75 -6 119 -30 21 -33 28 -29 60 5 40 34 121 47 135 5 5 31 -1 62 -14 41 -18 72 -24 133 -24 69 -1 87 3 132 28 66 35 95 70 122 141 22 59 20 99 -7 114 -22 12 -122 -16 -152 -43 -45 -41 -104 -39 -67 2 24 27 32 86 12 102 -13 11 -19 10 -39 -9 -17 -16 -33 -22 -57 -19 -29 3 -34 7 -37 32 -5 42 37 80 153 136 104 51 249 146 328 216 35 31 63 74 121 187 42 81 76 160 76 175 0 15 -12 45 -27 67 -16 22 -48 76 -73 122 -54 98 -118 168 -212 230 -83 55 -106 87 -153 217 -45 125 -75 175 -136 230 -58 53 -150 90 -260 106 -98 14 -266 74 -300 106 -49 47 -119 230 -119 309 0 16 11 48 25 70 46 74 133 259 151 320 14 51 16 85 11 228 -6 158 -8 171 -36 230 -23 50 -47 78 -107 131 -87 77 -99 82 -209 102 -93 17 -170 19 -278 9 -100 -10 -208 -65 -262 -133 -31 -40 -35 -52 -35 -104 0 -46 -7 -72 -32 -121 -30 -57 -32 -71 -36 -177 l-4 -115 -70 -72 c-65 -65 -70 -74 -65 -103 4 -17 15 -42 25 -55 16 -20 18 -37 15 -102 -5 -76 -4 -79 26 -111 17 -18 31 -42 31 -53 0 -33 27 -74 56 -88 15 -6 57 -14 93 -17 99 -8 109 -12 126 -45 13 -24 14 -37 5 -64 -16 -49 -50 -71 -138 -91 -42 -9 -92 -23 -111 -31 -18 -8 -79 -18 -135 -22 -107 -9 -168 -31 -228 -83 -34 -29 -128 -148 -128 -161 0 -6 -9 -29 -19 -51 -29 -60 -51 -183 -51 -283 0 -85 -13 -174 -45 -318 -31 -133 -55 -257 -55 -277 0 -32 -48 -104 -94 -142 -73 -59 -167 -268 -197 -436 -10 -56 -18 -71 -61 -116 -40 -42 -61 -56 -116 -73 -107 -33 -160 -42 -245 -40 -66 2 -82 -1 -98 -18 -20 -19 -20 -20 1 -45 11 -14 20 -28 20 -31 0 -3 -26 -22 -57 -41 -52 -32 -64 -36 -128 -36 -72 0 -104 13 -133 52 -39 53 -137 64 -208 22 -32 -19 -58 -26 -92 -26 -91 2 -121 12 -150 49 -40 51 -70 63 -160 63 -70 0 -82 -3 -103 -23 -34 -33 -51 -37 -122 -30 -56 6 -66 11 -112 54 -42 39 -59 48 -105 55 -75 12 -82 28 -77 166 3 80 8 112 19 125 23 26 66 136 78 201 11 64 32 96 81 130 29 20 44 23 96 20 51 -3 68 -9 90 -30 25 -24 64 -42 146 -68 32 -10 79 -4 119 16 29 15 47 58 57 137 5 38 12 55 33 70 26 19 28 19 53 3 24 -16 38 -40 65 -112 9 -25 21 -34 64 -47 29 -10 65 -17 80 -17 51 0 161 34 198 60 46 33 88 83 88 103 0 26 27 45 87 62 124 36 212 103 233 175 13 48 66 130 84 130 8 0 33 -16 56 -35 36 -30 49 -35 94 -35 91 0 146 23 188 77 20 26 44 72 53 101 15 46 16 60 5 110 -19 82 -24 162 -11 175 6 6 36 9 66 8 75 -3 118 12 132 47 7 15 22 43 33 62 18 29 21 48 18 115 -3 72 -7 84 -36 125 -36 48 -79 86 -126 110 -36 18 -43 36 -23 58 8 9 22 33 31 52 9 19 23 46 31 60 8 14 15 34 15 46 0 46 21 57 107 55 97 -3 137 12 180 64 28 33 31 45 35 123 6 114 -14 178 -81 253 -43 48 -58 58 -122 78 -60 18 -79 21 -102 12 -50 -19 -85 -14 -103 17 -9 15 -25 39 -35 54 -27 39 -24 56 26 159 54 112 59 166 20 219 -31 42 -33 100 -5 166 19 43 19 51 6 93 -8 25 -17 59 -21 75 -7 33 -63 106 -80 106 -7 0 -18 6 -24 14 -6 7 -39 17 -74 20 -34 4 -81 16 -104 26 -35 16 -43 24 -44 47 l-1 28 -8 -29 c-12 -39 -49 -76 -76 -76 -13 0 -26 -4 -29 -10 -3 -5 -14 -10 -24 -10 -9 0 -37 -20 -61 -45 -53 -54 -80 -59 -80 -15 0 25 -4 30 -24 30 -57 0 -116 43 -150 108 -9 18 -20 32 -25 32 -4 0 -13 19 -20 41 -15 51 -6 130 18 156 24 26 24 55 0 42 -28 -15 -75 -11 -99 9 -21 17 -22 22 -11 70 7 35 7 60 1 77 -17 44 -12 110 10 138 75 95 -58 223 -208 202 -32 -5 -86 -9 -120 -9 -55 -1 -66 2 -83 23 -11 14 -19 39 -19 61 0 49 -12 78 -45 113 -24 25 -32 27 -105 27 l-80 0 -24 38 c-32 49 -94 108 -129 121 -40 15 -113 14 -146 -3 -22 -12 -30 -26 -40 -70 -9 -39 -20 -62 -39 -76 l-26 -21 -51 57 c-50 56 -53 58 -102 58 -31 0 -61 -7 -76 -17 -46 -30 -82 -22 -132 29 l-45 47 -83 -7 c-76 -6 -86 -5 -130 19 -59 31 -108 32 -166 2z m-218 -818 c4 -15 0 -23 -14 -26 -10 -3 -19 -9 -19 -14 0 -14 20 -11 37 6 8 8 18 13 22 10 5 -2 8 -48 8 -101 0 -82 -2 -97 -18 -107 -11 -7 -19 -23 -19 -37 0 -33 -17 -50 -52 -50 -28 0 -79 19 -89 33 -12 17 -77 19 -110 3 -32 -16 -114 -21 -156 -10 -27 7 -37 34 -28 74 8 36 48 47 96 28 47 -19 69 -13 69 21 0 24 6 29 53 45 51 17 72 19 132 14 35 -4 49 26 15 35 -23 6 -27 40 -7 57 65 56 70 57 80 19z m2027 -199 c6 -11 9 -20 6 -20 -3 0 0 -13 5 -30 6 -16 17 -30 24 -30 11 0 27 -38 24 -56 0 -4 5 -10 12 -14 7 -5 26 -36 43 -70 19 -38 42 -68 60 -78 34 -20 82 -66 96 -93 13 -24 2 -69 -16 -69 -13 0 -44 25 -121 98 -13 12 -28 22 -33 22 -4 0 -17 12 -28 27 -23 31 -45 23 -40 -15 3 -24 -1 -27 -29 -30 -27 -3 -33 0 -33 17 0 46 -33 29 -42 -21 -4 -19 -1 -28 8 -28 8 0 14 -4 14 -10 0 -17 -16 -11 -44 15 -14 13 -26 35 -26 49 0 13 -4 26 -9 28 -12 4 -24 145 -12 152 5 3 22 39 37 79 15 39 31 78 37 85 15 19 55 14 67 -8z m300 -1141 c105 -12 190 -52 266 -121 45 -43 54 -56 54 -85 0 -26 -8 -43 -33 -66 -70 -68 -134 -120 -168 -137 -19 -10 -41 -26 -48 -34 -18 -21 -55 -20 -77 1 -18 19 -90 21 -123 4 -31 -17 -61 -2 -61 31 0 27 -8 38 -71 92 -11 9 -19 30 -20 49 -1 17 -4 43 -8 57 -9 30 10 136 29 166 7 12 32 27 54 34 23 7 46 14 51 15 21 7 73 5 155 -6z m-2555 -48 c98 -31 215 -148 215 -215 0 -22 -18 -75 -42 -123 -18 -37 -148 -45 -148 -9 0 19 -25 27 -39 13 -17 -17 -13 -35 10 -42 14 -5 18 -10 11 -17 -12 -12 -46 4 -84 41 -15 14 -34 33 -43 41 -64 62 -95 122 -95 183 0 29 45 127 64 139 20 13 90 8 151 -11z m2161 -22 c3 -6 7 -55 8 -110 1 -90 3 -100 24 -114 18 -13 22 -26 22 -65 0 -27 -4 -51 -8 -54 -14 -9 -82 70 -88 103 -4 17 -10 31 -14 31 -4 0 -15 -25 -25 -55 -11 -30 -22 -55 -26 -55 -3 0 -9 15 -12 34 -7 41 -34 86 -53 86 -14 0 -33 -29 -39 -62 -7 -33 -12 -31 -19 5 -15 78 39 207 87 207 9 0 27 10 39 22 17 17 51 31 90 37 4 1 10 -4 14 -10z m-1802 -314 c8 -8 18 -37 22 -63 4 -26 11 -57 15 -70 6 -15 4 -30 -5 -45 -8 -12 -17 -37 -21 -54 -11 -56 -91 -78 -136 -38 -16 15 -23 15 -77 1 -54 -14 -64 -13 -110 1 -55 18 -73 42 -65 86 5 26 8 27 67 27 60 0 91 10 91 29 0 13 72 61 90 61 10 0 15 10 15 30 0 22 6 33 23 40 34 14 74 12 91 -5z m1896 -65 c0 -5 -2 -10 -4 -10 -3 0 -8 5 -11 10 -3 6 -1 10 4 10 6 0 11 -4 11 -10z m-1090 -162 c12 -18 36 -43 51 -56 16 -13 29 -28 29 -34 0 -5 11 -31 24 -58 13 -26 29 -79 36 -118 14 -78 9 -102 -38 -174 l-25 -38 -85 0 c-91 0 -122 13 -122 52 0 25 -11 23 -36 -9 l-22 -28 -16 39 c-9 21 -16 56 -16 78 0 25 -5 41 -15 44 -20 8 -20 93 0 120 8 10 15 25 15 33 0 16 60 102 104 149 21 23 39 32 61 32 24 0 37 -8 55 -32z m-2713 -59 c12 -4 29 -21 37 -38 10 -18 26 -32 43 -35 36 -8 94 -67 95 -98 1 -12 1 -38 0 -57 -2 -32 -3 -33 -36 -28 -40 6 -53 -5 -62 -51 -8 -38 -19 -34 -27 8 -11 51 -74 62 -106 18 -7 -11 -23 -23 -36 -28 -16 -6 -26 -22 -34 -54 -7 -30 -17 -46 -27 -46 -8 0 -13 -4 -10 -9 10 -15 -23 -34 -49 -27 l-25 6 39 36 c23 20 43 49 47 67 3 17 16 44 27 59 14 19 22 47 24 90 5 82 11 110 23 103 6 -3 10 -2 10 4 0 5 -5 11 -11 13 -6 2 -12 23 -15 46 l-4 43 38 -7 c20 -4 47 -10 59 -15z m2588 -502 c11 -5 38 -9 61 -9 23 1 60 -5 83 -13 41 -14 41 -14 63 15 27 37 41 38 63 4 16 -24 15 -28 -4 -67 -33 -69 -91 -123 -140 -131 -41 -6 -121 8 -121 22 0 4 4 13 9 21 16 25 -9 60 -50 71 -20 6 -50 17 -66 25 -15 8 -38 15 -49 15 -14 0 -24 8 -28 23 -13 49 -12 50 77 42 45 -4 91 -12 102 -18z m4249 -373 c9 -3 44 -38 77 -78 39 -46 83 -84 123 -107 54 -31 61 -38 58 -63 -2 -15 -12 -36 -22 -46 -29 -29 -50 -76 -65 -143 -34 -159 -121 -291 -208 -312 -30 -8 -35 -1 -53 76 -21 89 -11 363 16 461 11 40 20 90 20 111 0 35 23 107 34 107 2 0 12 -3 20 -6z m-1422 -437 c-3 -190 0 -241 14 -302 17 -72 17 -75 -6 -182 -14 -64 -37 -135 -56 -173 -30 -59 -32 -69 -23 -105 19 -73 6 -122 -25 -96 -21 17 -82 10 -79 -9 1 -8 14 -59 29 -113 23 -83 25 -100 13 -108 -22 -14 -62 -11 -131 11 -98 31 -127 27 -191 -26 -59 -50 -199 -18 -240 53 -18 31 -18 33 1 70 23 43 66 93 82 93 16 0 126 107 173 169 23 31 50 65 60 75 9 11 17 25 17 31 0 11 36 71 81 137 14 20 20 53 25 130 6 107 31 213 67 283 19 38 47 114 87 238 10 32 31 70 47 85 l28 27 15 -30 c12 -25 14 -71 12 -258z m-2668 -899 c12 -35 -6 -58 -45 -58 -22 0 -32 7 -41 26 -11 23 -10 29 9 44 32 26 66 20 77 -12z m456 -48 c8 -14 8 -26 0 -41 -11 -20 -12 -20 -31 -3 -24 21 -24 33 -1 50 22 17 19 17 32 -6z m479 -41 c28 -10 32 -15 29 -43 -2 -23 -11 -34 -32 -45 -28 -13 -31 -12 -53 13 -29 34 -29 51 -1 70 12 9 23 16 24 16 0 0 15 -5 33 -11z m-684 -7 c6 -4 21 -23 34 -43 34 -50 53 -60 137 -68 78 -7 106 0 151 41 19 17 32 20 98 16 76 -3 78 -4 114 -45 46 -53 68 -63 131 -63 54 0 81 10 117 42 19 18 30 19 97 13 117 -11 132 -42 102 -208 -13 -78 -19 -84 -99 -93 -73 -9 -99 -1 -148 43 -28 25 -53 38 -85 43 -50 8 -76 -2 -129 -49 -24 -21 -48 -30 -89 -35 -80 -10 -108 -1 -157 51 l-43 46 -95 -6 c-84 -6 -98 -9 -111 -29 -42 -61 -45 -63 -118 -63 -57 0 -75 4 -94 21 -38 34 -80 58 -128 74 l-45 15 -3 85 c-3 113 13 141 90 159 34 7 64 21 78 36 21 23 31 25 104 25 45 0 86 -4 91 -8z m1650 -185 c-9 -5 -23 -6 -31 -3 -12 5 -13 10 -4 27 11 20 12 20 31 3 18 -16 18 -19 4 -27z m486 -4 c5 -13 9 -28 9 -32 0 -13 -57 -34 -69 -26 -14 8 -14 68 0 82 16 16 49 3 60 -24z m-270 -34 c61 -13 89 -38 89 -79 0 -116 -129 -148 -252 -63 -21 14 -38 33 -38 42 1 31 28 65 71 87 51 27 61 28 130 13z m-313 -86 c-2 -14 -10 -29 -18 -33 -8 -4 -25 -12 -38 -19 -50 -26 -56 15 -9 63 25 26 36 31 50 24 12 -6 17 -18 15 -35z m751 17 c28 -14 32 -37 16 -76 -17 -40 -53 -46 -85 -14 -36 36 -23 81 25 93 11 2 21 5 23 6 2 0 11 -3 21 -9z m-2605 -129 c34 -37 -1 -100 -41 -75 -19 13 -20 59 -1 81 14 18 22 16 42 -6z m965 5 c7 -8 11 -30 9 -48 -3 -36 -20 -45 -64 -34 -22 6 -25 11 -22 43 2 30 8 39 28 44 37 10 37 10 49 -5z m979 -3 c5 -10 6 -31 3 -48 -5 -26 -11 -30 -43 -33 -32 -3 -40 1 -50 22 -18 42 3 76 46 76 24 0 38 -6 44 -17z m464 -29 c10 -37 -12 -65 -36 -44 -19 15 -21 51 -4 68 18 18 31 10 40 -24z m-1953 -5 c-13 -26 -19 -24 -19 6 0 17 4 23 15 19 11 -5 12 -11 4 -25z m-157 -66 c8 -10 19 -30 25 -45 10 -23 20 -27 68 -33 102 -13 140 -3 188 49 43 46 44 46 111 46 70 0 115 -16 138 -48 7 -11 28 -27 47 -37 50 -26 104 -14 157 35 51 47 74 54 156 48 62 -5 70 -9 108 -67 15 -22 23 -24 114 -25 92 -1 99 1 115 22 48 67 46 66 114 70 90 6 115 -2 160 -51 37 -40 41 -42 99 -42 56 0 61 2 94 38 43 46 69 57 139 57 68 0 100 -14 124 -56 16 -27 28 -34 65 -39 75 -12 133 2 175 41 21 19 44 34 50 34 25 0 32 -52 20 -154 -25 -215 -8 -729 30 -896 22 -96 9 -318 -20 -356 -9 -11 -29 -67 -74 -204 -38 -117 -46 -201 -49 -532 -2 -168 -7 -311 -10 -317 -10 -16 -57 -14 -75 3 -9 8 -62 35 -118 61 -75 34 -123 48 -185 56 -46 6 -100 18 -121 27 -31 12 -65 14 -203 8 -115 -4 -175 -11 -194 -21 -16 -8 -42 -15 -58 -15 -16 0 -64 -9 -108 -21 -112 -29 -213 -40 -413 -46 -274 -8 -388 12 -571 100 -85 41 -119 65 -173 119 -41 40 -117 169 -117 197 0 6 -11 33 -25 59 -14 26 -25 54 -25 63 0 9 -7 36 -16 60 -8 24 -29 123 -46 219 -39 225 -56 536 -60 1071 -3 370 -2 398 15 417 10 11 32 22 48 26 17 3 53 26 81 51 l50 45 78 0 c61 0 80 -4 92 -17z m2989 -550 c19 -33 34 -282 34 -568 0 -99 4 -236 9 -305 8 -120 7 -128 -19 -205 -14 -44 -29 -102 -32 -130 -3 -27 -12 -62 -19 -77 -17 -33 -19 -281 -4 -372 7 -41 8 -163 2 -376 -9 -334 -16 -375 -60 -399 -32 -17 -44 -14 -144 34 -104 51 -179 97 -239 146 -47 39 -51 64 -26 150 22 74 74 304 83 359 3 25 12 52 18 60 7 8 28 58 47 110 l34 95 1 265 c1 265 5 301 39 340 7 8 18 44 24 80 6 36 27 110 46 164 28 79 38 122 44 211 5 67 15 123 24 142 9 17 35 87 57 154 23 68 43 130 45 137 7 19 19 14 36 -15z"/>
<path d="M5600 8100 c0 -19 3 -21 12 -12 9 9 9 15 0 24 -9 9 -12 7 -12 -12z"/>
<path d="M1853 6314 c-8 -21 13 -42 28 -27 13 13 5 43 -11 43 -6 0 -13 -7 -17 -16z"/>
<path d="M2933 9083 c-7 -2 -13 -18 -13 -34 0 -33 22 -38 54 -14 13 10 32 13 56 9 27 -4 40 -2 50 11 12 14 12 18 -1 26 -15 9 -125 11 -146 2z"/>
<path d="M6000 8565 c-14 -8 -44 -24 -67 -35 -24 -12 -43 -25 -43 -30 0 -15 77 -12 108 4 52 27 114 30 158 7 21 -11 52 -25 67 -30 l28 -11 -2 -100 c-1 -70 3 -105 12 -116 12 -14 14 -14 20 3 4 10 8 59 8 108 1 70 -3 96 -16 115 -25 36 -74 80 -101 91 -36 14 -144 11 -172 -6z"/>
<path d="M5805 8460 c-18 -8 -17 -9 8 -9 15 -1 27 4 27 9 0 12 -8 12 -35 0z"/>
<path d="M1332 6621 c-11 -6 -10 -9 5 -13 25 -6 54 2 48 13 -8 11 -36 11 -53 0z"/>
<path d="M1278 6577 c-15 -6 -28 -20 -30 -31 -2 -13 -12 -22 -25 -24 -14 -2 -23 -10 -23 -22 0 -18 -19 -30 -49 -30 -10 0 -28 -11 -41 -25 -13 -14 -32 -25 -42 -25 -24 0 -23 -25 2 -50 28 -28 37 -25 44 15 5 27 15 38 42 51 20 9 42 28 51 40 8 13 22 24 29 24 8 0 20 11 26 25 6 13 19 27 30 30 10 4 18 13 18 21 0 8 -1 14 -2 13 -2 -1 -15 -6 -30 -12z"/>
<path d="M1140 6308 c0 -33 14 -58 31 -58 11 0 19 5 19 10 0 6 -4 10 -9 10 -5 0 -12 11 -15 25 -7 26 -26 35 -26 13z"/>
<path d="M0 48 l0 -48 35 0 c40 0 39 8 -9 65 l-25 30 -1 -47z"/>
</g>
</svg>