<?xml version="1.0" encoding="UTF-8" standalone="no"?>
<svg
   width="1052"
   height="744"
   version="1.1"
   id="svg740"
   sodipodi:docname="Heraldic-Listel.svg"
   inkscape:version="1.1 (c4e8f9e, 2021-05-24)"
   xmlns:inkscape="http://www.inkscape.org/namespaces/inkscape"
   xmlns:sodipodi="http://sodipodi.sourceforge.net/DTD/sodipodi-0.dtd"
   xmlns="http://www.w3.org/2000/svg"
   xmlns:svg="http://www.w3.org/2000/svg">
  <defs
     id="defs744" />
  <sodipodi:namedview
     id="namedview742"
     pagecolor="#ffffff"
     bordercolor="#666666"
     borderopacity="1.0"
     inkscape:pageshadow="2"
     inkscape:pageopacity="0.0"
     inkscape:pagecheckerboard="0"
     showgrid="false"
     inkscape:zoom="0.87365591"
     inkscape:cx="525.95077"
     inkscape:cy="372"
     inkscape:window-width="1296"
     inkscape:window-height="872"
     inkscape:window-x="0"
     inkscape:window-y="0"
     inkscape:window-maximized="0"
     inkscape:current-layer="svg740" />
  <path
     fill="#b3b3b3"
     d="m 101.15538,325.77385 -22.699995,30.3 31.899995,44.1 92.1,21 35.7,-64.5 -137,-31 z m 847.8,0 -137,30.9 35.7,64.5 92,-21 31.9,-44.1 z"
     id="path732"
     style="stroke:#000000;stroke-width:2.5;fill:#ffffff" />
  <path
     fill="#ffffff"
     d="m 64.055385,300.07385 c -26.5,0.3 -48.8,14.6 -56.5000004,57 14.4000004,-15.5 32.0000004,-21.8 56.8000004,-7.8 -32.8,2.2 -46.6,23.4 -46.8,58.2 12.6,-15 29.6,-18.2 49.6,-13.9 l 57.899995,23.9 c 30,15.1 67.4,19.4 77.4,3.6 13.4,-21.1 -101.3,-20.9 -101.3,-52.3 v -19.5 l 83,7.6 c 6.2,21.1 64.1,8.9 55,22.9 14.6,-20.3 9,-16.4 -47.8,-50.8 l -66.3,-12.8 c -19.9,-9.2 -41.599995,-16.4 -60.999995,-16.1 z m 919.799995,0 c -18.8,0.3 -39.6,7.2 -58.8,16.1 l -66.3,12.8 c -56.8,34.4 -62.4,30.5 -47.9,50.8 -9,-14 48.9,-1.8 55,-22.9 l 83.1,-7.6 v 19.5 c 0,31.4 -114.8,31.2 -101.4,52.3 10,15.8 47.5,11.5 77.5,-3.6 l 57.9,-23.9 c 19.90002,-4.3 37.00002,-1.1 49.60002,13.9 -0.2,-34.8 -14,-56 -46.80002,-58.2 24.70002,-14 42.40002,-7.7 56.80002,7.8 -7.9,-43.5 -31.2,-57.4 -58.70002,-57 z"
     id="path734"
     style="stroke:#000000;stroke-width:2.5" />
  <path
     fill="#ffffff"
     d="m 112.95538,236.57385 c -7.6,0.1 -11.8,4.4 -11.8,15 v 115.4 c 1.6,-28.9 81.6,7 154.8,36.1 a 764.8,764.8 0 0 0 269.1,51.8 c 84.2,0 183.9,-18 269.1,-51.8 73.3,-29.1 153.4,-65.1 154.8,-35.9 v -115.6 c 0,-45.2 -77.8,23.8 -160.6,51.3 -33.1,11.1 -126.4,46.4 -263.3,46.4 -136.9,0 -230.2,-35.3 -263.3,-46.4 -63.4,-21.1 -123.9,-66.4 -148.8,-66.3 z m 836,130.6 z m -847.9,-0.2 v 1.8 z"
     id="path736"
     style="stroke:#000000;stroke-width:2.5" />
</svg>
