<?xml version="1.0" encoding="UTF-8" standalone="no"?>
<!-- Created with Inkscape (http://www.inkscape.org/) -->
<svg xmlns:dc="http://purl.org/dc/elements/1.1/" xmlns:cc="http://creativecommons.org/ns#" xmlns:rdf="http://www.w3.org/1999/02/22-rdf-syntax-ns#" xmlns:svg="http://www.w3.org/2000/svg" xmlns="http://www.w3.org/2000/svg" xmlns:sodipodi="http://sodipodi.sourceforge.net/DTD/sodipodi-0.dtd" xmlns:inkscape="http://www.inkscape.org/namespaces/inkscape" version="1.0" width="737.51117" height="728.04517" id="svg3567" inkscape:version="0.48.5 r10040" sodipodi:docname="POL_COA_Bandemer_II.svg">
  <metadata id="metadata169">
    <rdf:RDF>
      <cc:Work rdf:about="">
        <dc:format>image/svg+xml</dc:format>
        <dc:type rdf:resource="http://purl.org/dc/dcmitype/StillImage"/>
        <dc:title/>
      </cc:Work>
    </rdf:RDF>
  </metadata>
  <sodipodi:namedview pagecolor="#ffffff" bordercolor="#666666" borderopacity="1" objecttolerance="10" gridtolerance="10" guidetolerance="10" inkscape:pageopacity="0" inkscape:pageshadow="2" inkscape:window-width="1920" inkscape:window-height="1017" id="namedview167" showgrid="false" fit-margin-top="4" fit-margin-left="4" fit-margin-bottom="4" fit-margin-right="4" inkscape:zoom="0.74081796" inkscape:cx="402.74752" inkscape:cy="489.22675" inkscape:window-x="-8" inkscape:window-y="-8" inkscape:window-maximized="1" inkscape:current-layer="svg3567"/>
  <defs id="defs3569"/>
  <g transform="matrix(1.063033,0,0,1.063033,-64.22254,-344.98287)" id="g3044"/>
  <g transform="matrix(-0.1429173,-1.0533817,1.0533817,-0.1429173,-358.28479,911.949)" id="g2460"/>
  <g transform="matrix(-0.6200884,0.86344,-0.86344,-0.6200884,1176.692,518.07752)" id="g2466"/>
  <g transform="matrix(1.063033,0,0,1.063033,-63.67933,-345.52136)" id="g2456"/>
  <g transform="matrix(1.063033,0,0,1.063033,-131.17097,-345.52136)" id="g2408">
    <g transform="translate(63.48975,0.835391)" id="g2378">
      <g id="g2350"/>
    </g>
  </g>
  <g id="g3955">
    <g id="g3932">
      <path d="m 167.2504,329.22789 c 0,18.50274 0,37.00549 0,55.50824 -20.53714,22.87315 -39.28589,44.40502 -68.317827,61.91303 -21.896956,11.9696 -44.688112,31.53981 -57.643172,58.71063 -21.998929,-25.50937 -24.772772,-57.72518 0.620371,-87.2584 15.190536,-10.78446 37.534599,-16.6509 58.090268,-21.62313 13.14829,-1.41402 13.77795,-11.32285 -2.134933,-9.6072 -19.797681,8.96044 -61.055926,8.97899 -82.194892,-10.67467 46.949967,23.2411 116.701785,-1.80406 151.580185,-46.9685 z" id="path3189" style="fill:#fcdd09;fill-opacity:1;fill-rule:evenodd;stroke:#000000;stroke-width:3.76665235000000020;stroke-linecap:butt;stroke-linejoin:miter;stroke-miterlimit:4;stroke-opacity:1;stroke-dasharray:none" inkscape:connector-curvature="0"/>
      <path d="M 115.8687,370.25581 C 95.6913,365.47457 74.541027,354.46697 75.183054,333.14693 79.479983,314.22787 86.500955,308.92902 105.00179,313.748 c 7.43511,2.36803 11.17331,1.42829 13.54948,-3.40292 -4.61998,2.93935 -10.01827,-0.93141 -13.08165,-4.21843 -19.87101,-14.98239 -41.882331,-3.11354 -45.798264,20.04059 -3.982567,-4.73995 -4.268224,-12.59308 0.310467,-22.97568 3.957757,-8.73899 4.607755,-22.73149 -4.47095,-32.63794 4.661627,11.7735 -3.129488,23.547 -15.20123,34.34764 -16.513986,13.92604 -16.68375,42.83429 3.576759,59.09521 -6.958945,-3.39884 -11.429895,-3.37403 -21.46056,0.8942 -7.070765,4.82713 -13.4998588,2.31841 -16.5425154,-5.36514 3.3896285,34.51404 71.9408294,31.58639 109.9853734,10.73028 z" id="path3191" style="fill:#9116a1;fill-opacity:1;fill-rule:evenodd;stroke:#000000;stroke-width:3.76665235000000020;stroke-linecap:butt;stroke-linejoin:miter;stroke-miterlimit:4;stroke-opacity:1;stroke-dasharray:none" inkscape:connector-curvature="0"/>
      <path d="m 61.149382,561.38369 c -2.189723,-4.51312 -12.133041,0.89835 -7.499603,5.99969 11.226683,15.8414 27.725815,28.89151 49.497381,35.73874 30.83526,8.89794 39.03002,16.24513 51.25665,35.06766 3.57868,7.61058 9.94867,17.08199 18.48966,16.93896 13.32682,0.39302 10.21603,-15.65158 -3.7498,-16.49914 31.01437,-6.66941 31.01437,37.52475 0,36.74807 7.27234,3.01855 8.03166,7.89797 6.61997,16.49912 -0.78204,7.92071 4.0185,14.29068 9.12919,17.24909 -19.02171,0.12432 -36.18257,-10.29626 -41.8681,-25.98926 -16.08339,25.73792 -51.705823,32.86722 -81.125388,24.48933 28.664248,4.09603 45.853188,-9.79627 52.497228,-23.99872 13.89497,-29.64148 -12.52877,-56.49166 -48.8771,-72.79695 -28.316669,-18.21294 -49.50003,-37.04619 -38.738589,-88.13437 6.249669,9.74948 19.3225,31.28443 20.299726,27.69773 -21.4493,-33.75708 -28.93503,-40.65312 -28.28247,-67.57711 -0.488339,-16.95105 4.208556,-33.16974 12.352832,-51.17597 -12.719895,37.36298 -6.521025,64.49124 23.24877,83.24559 25.997269,13.03004 39.898935,-14.56875 24.64709,-26.04005 -29.769791,-11.90312 -40.620818,-47.06703 -19.216897,-67.96433 -5.045178,21.45207 -2.646907,36.08098 15.568695,44.507 15.55398,3.70837 18.081937,5.24572 18.749011,19.49897 -0.04146,10.23475 10.151862,5.89274 7.939422,-1.86086 -9.524691,-33.53031 -6.023337,-53.10414 21.04895,-86.63445 -5.62557,14.3094 -4.73811,29.23908 -1.9898,41.99777 4.79119,9.43935 6.79108,16.39753 4.44896,27.69774 0.32581,4.05936 2.84709,2.56061 3.83598,-0.78068 1.73405,-26.11811 25.48293,-13.30605 28.02329,-3.17767 8.41015,23.07813 -4.26948,33.44036 -15.08825,22.40268 9.58064,5.73788 8.61638,-6.51258 6.10141,-12.8703 -5.80393,-9.56274 -15.63973,-6.09945 -13.37992,11.63046 2.22144,31.60765 -22.22947,51.73999 -45.439808,51.09269 -8.623865,-2.34211 -9.804289,6.48094 -0.749959,5.99969 17.600667,1.63359 34.270907,-1.69511 43.497697,-16.49913 3.89437,10.51927 1.58585,22.89937 -8.7864,25.04475 14.69155,4.18852 23.18022,12.09877 24.53557,27.45247 -0.95315,13.36025 10.49944,22.99878 15.74917,34.49817 -8.59716,-7.98086 -21.22616,-16.89214 -39.7479,-16.49912 -18.01242,1.39297 -31.062519,-2.17636 -34.498178,-13.49929 -0.767945,-5.82473 -7.118462,-7.30744 -6.025536,-1.65686 4.52835,7.2571 2.543689,4.58961 -4.093135,4.09312 -9.228043,-5.14073 -13.183643,-13.07276 -18.379819,-21.93523 z" id="path3193" style="fill:#9116a1;fill-opacity:1;fill-rule:evenodd;stroke:#000000;stroke-width:3.76665235000000020;stroke-linecap:butt;stroke-linejoin:miter;stroke-miterlimit:4;stroke-opacity:1;stroke-dasharray:none" inkscape:connector-curvature="0"/>
      <path d="m 114.67104,683.21395 c -6.3884,16.1099 -23.344213,30.91327 -51.662738,24.99811 -22.134279,-7.70758 -28.701526,-28.05343 -27.77567,-47.4964 1.599267,-12.52203 12.31388,-26.57206 31.10875,-28.60894 14.443347,-1.38878 19.998481,16.38764 6.943918,16.6654 1.759126,-4.72187 2.129467,-7.77718 -2.499811,-10.83251 -7.869773,0.83327 -12.128709,8.3327 -9.165971,19.16521 3.518252,7.59202 8.980802,12.12871 18.609701,16.94316 -2.592395,-10.18441 2.870158,-17.86902 12.221297,-18.05419 -11.480618,12.12871 3.703416,31.20134 22.220524,27.22016 z" id="path3195" style="fill:#fcdd09;fill-opacity:1;fill-rule:evenodd;stroke:#000000;stroke-width:3.76665235000000020;stroke-linecap:butt;stroke-linejoin:miter;stroke-miterlimit:4;stroke-opacity:1;stroke-dasharray:none" inkscape:connector-curvature="0"/>
    </g>
    <g id="g3938">
      <path d="m 570.26077,332.12789 c 0,18.50274 0,37.00549 0,55.50824 20.53714,22.87315 39.28588,44.40502 68.31782,61.91303 21.89696,11.9696 44.68811,31.53981 57.64317,58.71063 21.99893,-25.50937 24.77278,-57.72518 -0.62037,-87.2584 -15.19053,-10.78446 -37.5346,-16.6509 -58.09026,-21.62313 -13.1483,-1.41402 -13.77795,-11.32285 2.13493,-9.6072 19.79768,8.96044 61.05592,8.97899 82.19489,-10.67467 -46.94997,23.2411 -116.70178,-1.80406 -151.58018,-46.9685 z" id="path1546" style="fill:#fcdd09;fill-opacity:1;fill-rule:evenodd;stroke:#000000;stroke-width:3.76665235000000020;stroke-linecap:butt;stroke-linejoin:miter;stroke-miterlimit:4;stroke-opacity:1;stroke-dasharray:none" inkscape:connector-curvature="0"/>
      <path d="m 621.64247,373.15581 c 20.17739,-4.78124 41.32767,-15.78884 40.68564,-37.10888 -4.29693,-18.91906 -11.3179,-24.21791 -29.81873,-19.39893 -7.43511,2.36803 -11.17331,1.42829 -13.54949,-3.40292 4.61999,2.93935 10.01827,-0.93141 13.08166,-4.21843 19.87101,-14.98239 41.88233,-3.11354 45.79826,20.04059 3.98257,-4.73995 4.26822,-12.59308 -0.31047,-22.97568 -3.95776,-8.73899 -4.60775,-22.73149 4.47095,-32.63794 -4.66162,11.7735 3.12949,23.547 15.20123,34.34764 16.51399,13.92604 16.68375,42.83429 -3.57676,59.09521 6.95895,-3.39884 11.4299,-3.37403 21.46056,0.8942 7.07077,4.82713 13.49986,2.31841 16.54252,-5.36514 -3.38963,34.51404 -71.94083,31.58639 -109.98537,10.73028 z" id="path1548" style="fill:#9116a1;fill-opacity:1;fill-rule:evenodd;stroke:#000000;stroke-width:3.76665235000000020;stroke-linecap:butt;stroke-linejoin:miter;stroke-miterlimit:4;stroke-opacity:1;stroke-dasharray:none" inkscape:connector-curvature="0"/>
      <path d="m 676.36178,564.28369 c 2.18973,-4.51312 12.13304,0.89835 7.49961,5.99969 -11.22669,15.8414 -27.72582,28.89151 -49.49738,35.73874 -30.83526,8.89794 -39.03003,16.24513 -51.25666,35.06766 -3.57868,7.61058 -9.94867,17.08199 -18.48965,16.93896 -13.32682,0.39302 -10.21603,-15.65158 3.74979,-16.49914 -31.01437,-6.66941 -31.01437,37.52475 0,36.74807 -7.27233,3.01855 -8.03166,7.89797 -6.61997,16.49912 0.78204,7.92071 -4.0185,14.29068 -9.12919,17.24909 19.02171,0.12432 36.18257,-10.29626 41.86811,-25.98926 16.08338,25.73792 51.70582,32.86722 81.12538,24.48933 -28.66425,4.09603 -45.85318,-9.79627 -52.49722,-23.99872 -13.89497,-29.64148 12.52877,-56.49166 48.87709,-72.79695 28.31667,-18.21294 49.50004,-37.04619 38.73859,-88.13437 -6.24966,9.74948 -19.3225,31.28443 -20.29972,27.69773 21.4493,-33.75708 28.93503,-40.65312 28.28247,-67.57711 0.48834,-16.95105 -4.20856,-33.16974 -12.35283,-51.17597 12.71989,37.36298 6.52102,64.49124 -23.24877,83.24559 -25.99727,13.03004 -39.89894,-14.56875 -24.64709,-26.04005 29.76979,-11.90312 40.62081,-47.06703 19.21689,-67.96433 5.04518,21.45207 2.64691,36.08098 -15.56869,44.507 -15.55398,3.70837 -18.08194,5.24572 -18.74901,19.49897 0.0415,10.23475 -10.15186,5.89274 -7.93942,-1.86086 9.52469,-33.53031 6.02333,-53.10414 -21.04895,-86.63445 5.62557,14.3094 4.73811,29.23908 1.9898,41.99777 -4.79119,9.43935 -6.79108,16.39753 -4.44897,27.69774 -0.32581,4.05936 -2.84709,2.56061 -3.83597,-0.78068 -1.73406,-26.11811 -25.48294,-13.30605 -28.0233,-3.17767 -8.41014,23.07813 4.26948,33.44036 15.08826,22.40268 -9.58064,5.73788 -8.61638,-6.51258 -6.10142,-12.8703 5.80394,-9.56274 15.63974,-6.09945 13.37993,11.63046 -2.22144,31.60765 22.22947,51.73999 45.4398,51.09269 8.62387,-2.34211 9.80429,6.48094 0.74996,5.99969 -17.60067,1.63359 -34.27091,-1.69511 -43.49769,-16.49913 -3.89437,10.51927 -1.58586,22.89937 8.78639,25.04475 -14.69154,4.18852 -23.18021,12.09877 -24.53557,27.45247 0.95315,13.36025 -10.49944,22.99878 -15.74916,34.49817 8.59715,-7.98086 21.22615,-16.89214 39.7479,-16.49912 18.01241,1.39297 31.06251,-2.17636 34.49817,-13.49929 0.76795,-5.82473 7.11846,-7.30744 6.02554,-1.65686 -4.52835,7.2571 -2.54369,4.58961 4.09313,4.09312 9.22805,-5.14073 13.18365,-13.07276 18.37982,-21.93523 z" id="path1550" style="fill:#9116a1;fill-opacity:1;fill-rule:evenodd;stroke:#000000;stroke-width:3.76665235000000020;stroke-linecap:butt;stroke-linejoin:miter;stroke-miterlimit:4;stroke-opacity:1;stroke-dasharray:none" inkscape:connector-curvature="0"/>
      <path d="m 622.84012,686.11395 c 6.38841,16.1099 25.90098,32.04961 51.66274,24.99811 21.8502,-10.83251 28.70153,-28.05343 27.77567,-47.4964 -1.59926,-14.22654 -12.59796,-26.85614 -31.10875,-28.60894 -14.44334,-1.38878 -19.99848,16.38764 -6.94391,16.6654 -1.75913,-4.72187 -2.12947,-7.77718 2.49981,-10.83251 7.86977,0.83327 12.1287,8.3327 9.16597,19.16521 -3.51826,7.59202 -11.53757,15.53773 -18.6097,16.94316 2.59239,-10.18441 -2.87016,-17.86902 -12.2213,-18.05419 11.48062,12.12871 -3.70342,31.20134 -22.22053,27.22016 z" id="path1552" style="fill:#fcdd09;fill-opacity:1;fill-rule:evenodd;stroke:#000000;stroke-width:3.76665235000000020;stroke-linecap:butt;stroke-linejoin:miter;stroke-miterlimit:4;stroke-opacity:1;stroke-dasharray:none" inkscape:connector-curvature="0"/>
    </g>
    <g transform="translate(1.6003882,6.7004406)" id="g3944">
      <path d="m 645.81114,243.51333 c -8.99074,11.19647 -16.88102,13.31409 -26.97222,17.08241 21.37579,-18.00605 31.19667,-40.13885 17.08241,-54.84351 -40.97319,-24.0724 -63.23846,19.53387 -39.55925,25.17407 -7.1824,-8.19476 -0.33385,-18.04021 8.71563,-16.88101 16.55614,4.63803 6.42597,26.33328 2.07325,27.6699 -30.79507,25.11353 -102.03229,-32.30792 -140.25551,-57.54073 -9.88981,-6.59321 -19.77963,-13.18641 -29.66944,-19.77962 -5.46337,20.70807 -13.12767,38.94008 -28.77036,53.04536 -1.19817,25.39943 24.28997,32.64117 43.72555,25.85196 8.98595,-2.27945 38.33052,-19.69031 38.78786,4.99166 -0.26553,15.4365 -8.50944,31.14812 -18.67916,41.08228 32.36665,12.58704 64.73331,25.17407 97.09996,37.7611 13.14746,13.22058 40.87609,22.58954 68.32961,20.67871 -18.26138,-0.26073 -33.49649,-14.82754 -44.05461,-29.66945 18.00065,-0.90926 22.79571,-16.12458 14.38518,-33.26573 2.00913,13.59879 -4.78548,14.81734 -17.0824,14.38518 -37.45123,-4.653 -60.59638,-18.93509 -81.81572,-49.44906 -7.50666,-7.89987 -3.18332,-18.55088 7.1926,-7.19259 33.86991,36.87581 60.58677,48.71602 93.63133,31.39387 13.13727,-7.68888 24.34872,-17.02848 35.83529,-30.4948 z" id="path2280" style="fill:#9116a1;fill-opacity:1;fill-rule:evenodd;stroke:#000000;stroke-width:3.76665235;stroke-linecap:butt;stroke-linejoin:miter;stroke-miterlimit:4;stroke-opacity:1;stroke-dasharray:none" inkscape:connector-curvature="0"/>
      <path d="m 88.179207,243.51333 c 8.990741,11.19647 16.881023,13.31409 26.972223,17.08241 -21.375792,-18.00605 -31.196673,-40.13885 -17.082412,-54.84351 40.973192,-24.0724 63.238462,19.53387 39.559252,25.17407 7.18241,-8.19476 0.33386,-18.04021 -8.71562,-16.88101 -16.55615,4.63803 -6.42597,26.33328 -2.07326,27.6699 30.79508,25.11353 102.03229,-32.30792 140.25551,-57.54073 9.88981,-6.59321 19.77963,-13.18641 29.66944,-19.77962 5.46338,20.70807 13.12768,38.94008 28.77037,53.04536 1.19816,25.39943 -24.28998,32.64117 -43.72556,25.85196 -8.98595,-2.27945 -38.33051,-19.69031 -38.78785,4.99166 0.26552,15.4365 8.50944,31.14812 18.67916,41.08228 -32.36666,12.58704 -64.73331,25.17407 -97.09997,37.7611 -13.14745,13.22058 -40.87609,22.58954 -68.329612,20.67871 18.261392,-0.26073 33.496492,-14.82754 44.054622,-29.66945 -18.00066,-0.90926 -22.79572,-16.12458 -14.38519,-33.26573 -2.00913,13.59879 4.78548,14.81734 17.08241,14.38518 37.45123,-4.653 60.59638,-18.93509 81.81572,-49.44906 7.50666,-7.89987 3.18331,-18.55088 -7.1926,-7.19259 -33.86991,36.87581 -60.58678,48.71602 -93.63134,31.39387 -13.13727,-7.68888 -24.348722,-17.02848 -35.835293,-30.4948 z" id="path2278" style="fill:#9116a1;fill-opacity:1;fill-rule:evenodd;stroke:#000000;stroke-width:3.76665235;stroke-linecap:butt;stroke-linejoin:miter;stroke-miterlimit:4;stroke-opacity:1;stroke-dasharray:none" inkscape:connector-curvature="0"/>
      <g transform="matrix(1.063033,0,0,1.063033,-28.700442,-277.62622)" id="g2268" style="fill:#fcdd09;fill-opacity:1">
        <path d="m 204.60873,513.29688 c -18.68919,17.54767 -53.21477,15.90654 -82.66217,3.87258 -19.51951,-9.94445 -34.44217,-22.27124 -51.062853,-44.43038 -1.05352,-1.40458 -2.111188,-0.98677 -0.870797,0.76402 13.854807,19.14491 39.97303,44.49365 67.38972,49.78813 -10.68512,6.0377 -28.29547,5.87157 -44.030224,-4.39384 -10.999905,-7.2094 -31.954812,-13.98598 -36.318049,0.30166 -0.1093,7.17005 6.129518,8.28054 10.492755,8.52537 -13.583746,6.6629 -29.790681,3.62 -26.612251,-21.20848 2.382731,-9.31669 9.998722,-23.60433 30.547035,-13.54877 -48.310394,-21.20411 -42.845418,-101.42998 5.902175,-136.40583 25.576089,-22.9529 49.184789,-44.59421 38.036239,-70.82609 -7.88857,-9.53271 -16.062308,-5.86406 -20.329715,-1.3116 1.663258,-12.78328 27.762085,-28.27529 46.561605,-5.24637 15.30194,29.94807 5.02777,57.27295 -19.01812,80.00725 -28.855079,23.1715 -48.528995,39.78504 -43.282618,61.64494 -3.497586,-34.32006 36.287438,-43.06401 46.561598,-34.75725 19.67392,14.42754 10.49275,47.87319 -13.77174,55.74276 11.36715,-17.05073 4.38158,-28.98733 -10.48316,-23.74096 -40.119478,25.38172 42.1148,143.03725 101.31408,95.22123 3.47194,-2.80433 3.36786,-1.68557 1.63649,0.002 z" id="path2266" style="fill:#fcdd09;fill-opacity:1;fill-rule:evenodd;stroke:#000000;stroke-width:3.54330707;stroke-linecap:butt;stroke-linejoin:miter;stroke-miterlimit:4;stroke-opacity:1;stroke-dasharray:none" inkscape:connector-curvature="0"/>
      </g>
      <g transform="matrix(-1.063033,0,0,1.063033,761.97346,-277.62622)" id="g2272" style="fill:#fcdd09;fill-opacity:1">
        <path d="m 204.60873,513.29688 c -18.68919,17.54767 -53.21477,15.90654 -82.66217,3.87258 -19.51951,-9.94445 -34.44217,-22.27124 -51.062853,-44.43038 -1.05352,-1.40458 -2.111188,-0.98677 -0.870797,0.76402 13.854807,19.14491 39.97303,44.49365 67.38972,49.78813 -10.68512,6.0377 -28.29547,5.87157 -44.030224,-4.39384 -10.999905,-7.2094 -31.954812,-13.98598 -36.318049,0.30166 -0.1093,7.17005 6.129518,8.28054 10.492755,8.52537 -13.583746,6.6629 -29.790681,3.62 -26.612251,-21.20848 2.382731,-9.31669 9.998722,-23.60433 30.547035,-13.54877 -48.310394,-21.20411 -42.845418,-101.42998 5.902175,-136.40583 25.576089,-22.9529 49.184789,-43.85288 38.036239,-70.08476 -4.92324,-7.30871 -12.72631,-8.08805 -20.329715,-2.05293 4.999255,-15.74861 29.615415,-27.90462 46.561605,-5.24637 15.30194,29.94807 5.02777,57.27295 -19.01812,80.00725 -28.855079,23.1715 -48.528995,39.78504 -43.282618,61.64494 -3.497586,-34.32006 36.287438,-43.06401 46.561598,-34.75725 19.67392,14.42754 10.49275,47.87319 -13.77174,55.74276 11.36715,-17.05073 4.38158,-28.98733 -10.48316,-23.74096 -40.119478,25.38172 42.1148,143.03725 101.31408,95.22123 3.47194,-2.80433 3.36786,-1.68557 1.63649,0.002 z" id="path2276" style="fill:#fcdd09;fill-opacity:1;fill-rule:evenodd;stroke:#000000;stroke-width:3.54330707;stroke-linecap:butt;stroke-linejoin:miter;stroke-miterlimit:4;stroke-opacity:1;stroke-dasharray:none" inkscape:connector-curvature="0"/>
      </g>
      <path d="m 367.29211,150.32212 c -3.90919,-2.27283 -8.08522,-7.69644 -11.13595,-16.60845 -6.0331,5.2314 -10.94091,10.35029 -17.53666,13.66873 -2.4025,-2.25227 3.63461,-9.79338 0.78198,-9.4575 -23.13935,18.96096 -57.98167,21.94286 -71.66861,61.27149 -0.83941,4.59565 0.009,11.21683 7.27175,11.42388 3.30444,0.092 7.17153,-1.1664 8.56299,-5.23799 0.66118,-3.30443 -0.81568,-6.72141 -4.88069,-6.42493 5.72179,-8.79461 21.05301,-5.04577 21.98694,8.67551 -1.69618,11.09286 -10.35771,19.78066 -25.80147,19.93345 -10.59591,-0.21192 -22.14545,-5.82775 -23.20504,-20.66203 0.42383,-10.27804 6.05686,-16.17734 18.87791,-28.04476 -7.84097,6.25159 -15.48722,10.66746 -23.32819,18.19057 -10.70187,9.00652 -22.0395,14.51639 -35.60226,17.48324 -16.3177,0.10597 -25.95999,-5.82775 -30.83411,-20.02626 11.97339,0.21192 24.58252,-1.16556 34.01288,-8.90057 -9.21844,-3.92048 -16.52962,-5.29796 -19.07264,-17.48325 -1.05959,-9.43036 10.59591,-17.90709 12.07934,-13.03297 -3.49665,3.28473 -5.72178,8.15885 -2.8609,11.76146 6.03967,6.56947 12.7151,6.78138 26.7017,4.45028 17.80114,-9.53632 46.09221,-12.71508 64.84697,-22.88716 12.77584,-22.12841 9.73289,-62.098233 71.05,-62.098233 61.31711,0 63.93474,35.543713 71.05,62.098233 18.75476,10.17208 47.04584,13.35084 64.84697,22.88716 13.9866,2.3311 20.66204,2.11919 26.7017,-4.45028 2.86089,-3.60261 0.63576,-8.47673 -2.8609,-11.76146 1.48343,-4.87412 13.13893,3.60261 12.07934,13.03297 -2.54302,12.18529 -9.8542,13.56277 -19.07264,17.48325 9.43037,7.73501 22.03949,9.11249 34.01288,8.90057 -4.87411,14.19851 -14.51641,20.13223 -30.8341,20.02626 -13.56276,-2.96685 -24.90039,-8.47672 -35.60226,-17.48324 -7.84098,-7.52311 -16.3693,-11.05691 -24.21027,-17.3085 12.82105,11.86742 19.33615,16.88465 19.75999,27.16269 -1.05959,14.83428 -12.60914,20.45011 -23.20505,20.66203 -15.44375,-0.15279 -24.10528,-8.84059 -25.80147,-19.93345 0.93393,-13.72128 16.26515,-17.47012 21.98695,-8.67551 -4.06502,-0.29648 -5.54188,3.1205 -4.88069,6.42493 1.39145,4.07159 5.25854,5.32995 8.56298,5.23799 7.26264,-0.20705 8.11117,-6.82823 7.27175,-11.42388 -13.68694,-39.32863 -48.52926,-42.31053 -71.66861,-61.27149 -2.85263,-0.33588 3.18449,7.20523 0.78198,9.4575 -6.59575,-3.31844 -11.50356,-8.43733 -17.53665,-13.66873 -3.05074,8.91201 -7.22677,14.33562 -11.62784,16.60845 z" id="path2272" style="fill:#9116a1;fill-opacity:1;fill-rule:evenodd;stroke:#000000;stroke-width:3.76665235;stroke-linecap:butt;stroke-linejoin:miter;stroke-miterlimit:4;stroke-opacity:1;stroke-dasharray:none" inkscape:connector-curvature="0"/>
      <path d="m 210.51498,214.93918 c -22.57626,0.57475 -34.20069,-14.96382 -31.97434,-38.22535 4.43377,-26.01527 21.10779,-34.95862 35.20493,-34.2386 9.14387,1.50476 12.16763,15.57189 -0.27,20.61989 13.6408,2.30847 23.73838,-9.55597 23.52838,-19.80987 0.003,-15.76138 -18.9983,-23.46995 -34.77862,-15.71717 5.50749,-6.46119 5.86117,-15.49927 -5.70328,-20.67201 -8.68438,-3.55269 -16.40243,-4.19691 -25.08682,-11.302323 2.41111,13.298173 -1.29793,17.577203 -5.32906,22.500453 -4.05166,4.58062 -7.45909,11.41603 -8.28964,19.53988 -3.00006,-11.70971 -18.56249,-19.23197 -33.15857,-7.10541 19.59513,-5.76959 17.93089,20.34988 20.13199,31.97434 1.29634,33.65122 7.42436,47.6536 29.01375,49.73786 -15.18031,-15.62243 -12.96658,-39.61976 -5.92117,-60.39598 -8.98123,39.28186 -4.43377,73.73977 42.63245,63.09429 z" id="path1348" style="fill:#fcdd09;fill-opacity:1;fill-rule:evenodd;stroke:#000000;stroke-width:3.76665235;stroke-linecap:butt;stroke-linejoin:miter;stroke-miterlimit:4;stroke-opacity:1;stroke-dasharray:none" inkscape:connector-curvature="0"/>
      <path d="m 523.51145,215.26903 c 22.57626,0.57475 34.2007,-15.29367 31.97434,-38.5552 -4.43377,-26.01527 -21.10779,-34.95862 -35.20493,-34.2386 -9.14387,1.50476 -12.16762,15.57189 0.27,20.61989 -13.64079,2.30847 -23.73837,-9.55597 -23.52837,-19.80987 -0.003,-15.76138 18.99829,-23.46995 34.77861,-15.71717 -5.50749,-6.46119 -5.86117,-15.49927 5.70328,-20.67201 8.68438,-3.55269 16.40244,-4.19691 25.08682,-11.302323 -2.4111,13.298173 1.29793,17.577203 5.32906,22.500453 4.05167,4.58062 7.45909,11.41603 8.28964,19.53988 3.00006,-11.70971 18.56249,-19.23197 33.15857,-7.10541 -19.59513,-5.76959 -17.93089,20.34988 -20.13198,31.97434 -1.29635,33.65122 -7.42436,47.6536 -29.01376,49.73786 15.18032,-15.62243 12.96658,-39.61976 5.92117,-60.39598 8.98124,39.28186 4.43377,74.06961 -42.63245,63.42414 z" id="path2223" style="fill:#fcdd09;fill-opacity:1;fill-rule:evenodd;stroke:#000000;stroke-width:3.76665235;stroke-linecap:butt;stroke-linejoin:miter;stroke-miterlimit:4;stroke-opacity:1;stroke-dasharray:none" inkscape:connector-curvature="0"/>
    </g>
  </g>
</svg>